{
.appVersion = "3151";
.formatVersion = 3;
axes = (
{
default = -100;
name = OFST;
tag = OFST;
}
);
customParameters = (
{
name = panose;
value = (
0,
0,
0,
0,
0,
0,
0,
0,
0,
0
);
},
{
name = unicodeRanges;
value = (
0,
1
);
},
{
name = codePageRanges;
value = (
"1252"
);
},
{
name = glyphOrder;
value = (
.notdef,
space,
A,
Adieresis,
Aring,
B,
C,
D,
E,
F,
G,
H,
I,
J,
K,
L,
M,
N,
O,
Odieresis,
P,
Q,
R,
S,
T,
U,
V,
W,
X,
Y,
Z,
a,
adieresis,
aring,
b,
c,
d,
e,
f,
g,
h,
i,
j,
k,
l,
m,
n,
o,
odieresis,
p,
q,
r,
s,
t,
u,
v,
w,
x,
y,
z,
a.isol,
adieresis.isol,
aring.isol,
b.isol,
c.isol,
d.isol,
e.isol,
f.isol,
g.isol,
h.isol,
i.isol,
j.isol,
k.isol,
l.isol,
m.isol,
n.isol,
o.isol,
odieresis.isol,
p.isol,
q.isol,
r.isol,
s.isol,
t.isol,
u.isol,
v.isol,
w.isol,
x.isol,
y.isol,
z.isol,
a.init,
adieresis.init,
aring.init,
b.init,
c.init,
d.init,
e.init,
f.init,
g.init,
h.init,
i.init,
j.init,
k.init,
l.init,
m.init,
n.init,
o.init,
odieresis.init,
p.init,
q.init,
r.init,
s.init,
t.init,
u.init,
v.init,
w.init,
x.init,
y.init,
z.init,
a.init.001,
a.init.002,
a.init.003,
a.init.004,
adieresis.init.001,
adieresis.init.002,
adieresis.init.003,
adieresis.init.004,
adieresis.init.005,
adieresis.init.006,
aring.init.001,
aring.init.002,
aring.init.003,
aring.init.004,
b.init.001,
b.init.002,
b.init.003,
b.init.004,
c.init.001,
c.init.002,
c.init.003,
c.init.004,
d.init.001,
d.init.002,
d.init.003,
d.init.004,
e.init.001,
e.init.002,
e.init.003,
e.init.004,
f.init.001,
f.init.002,
f.init.003,
f.init.004,
f.init.005,
g.init.001,
g.init.002,
g.init.003,
g.init.004,
h.init.001,
h.init.002,
h.init.003,
h.init.004,
i.init.001,
i.init.002,
i.init.003,
i.init.004,
i.init.005,
i.init.006,
j.init.001,
j.init.002,
j.init.003,
j.init.004,
j.init.005,
j.init.006,
k.init.001,
k.init.002,
k.init.003,
k.init.004,
l.init.001,
l.init.002,
l.init.003,
l.init.004,
m.init.001,
m.init.002,
m.init.003,
m.init.004,
n.init.001,
n.init.002,
n.init.003,
n.init.004,
o.init.001,
o.init.002,
o.init.003,

glyphs = (
{
glyphname = .notdef;
layers = (
{
layerId = m01;
shapes = (
{
closed = 1;
nodes = (
(102,800,l),
(102,-300,l),
(451,-300,l),
(451,800,l)
);
},
{
closed = 1;
nodes = (
(366,-74,l),
(184,-74,l),
(184,50,l),
(366,50,l)
);
},
{
closed = 1;
nodes = (
(220,14,l),
(220,-38,l),
(330,-38,l),
(330,14,l)
);
},
{
closed = 1;
nodes = (
(366,116,l),
(184,116,l),
(184,240,l),
(220,240,l),
(220,152,l),
(330,152,l),
(330,204,l),
(294,204,l),
(294,179,l),
(256,179,l),
(256,240,l),
(366,240,l)
);
},
{
closed = 1;
nodes = (
(366,264,l),
(184,264,l),
(184,302,l),
(330,302,l),
(330,374,l),
(366,374,l)
);
},
{
closed = 1;
nodes = (
(366,404,l),
(294,404,l),
(294,327,l),
(184,327,l),
(184,363,l),
(256,363,l),
(256,404,l),
(184,404,l),
(184,440,l),
(366,440,l)
);
},
{
closed = 1;
nodes = (
(220,547,l),
(220,507,l),
(256,507,l),
(256,547,l)
);
},
{
closed = 1;
nodes = (
(294,507,l),
(366,507,l),
(366,470,l),
(184,470,l),
(184,584,l),
(294,584,l)
);
},
{
closed = 1;
nodes = (
(366,690,l),
(294,690,l),
(294,649,l),
(366,649,l),
(366,613,l),
(184,613,l),
(184,649,l),
(256,649,l),
(256,690,l),
(185,690,l),
(185,726,l),
(366,726,l)
);
},
{
closed = 1;
nodes = (
(366,-136,l),
(331,-136,l),
(254,-188,l),
(366,-188,l),
(366,-224,l),
(184,-224,l),
(184,-188,l),
(261,-136,l),
(184,-136,l),
(184,-100,l),
(366,-100,l)
);
}
);
width = 550;
},
{
layerId = "AA4DCE21-7FE4-4F03-915F-CE2C7C2CC948";
shapes = (
{
closed = 1;
nodes = (
(102,800,l),
(102,-300,l),
(451,-300,l),
(451,800,l)
);
},
{
closed = 1;
nodes = (
(366,-74,l),
(184,-74,l),
(184,50,l),
(366,50,l)
);
},
{
closed = 1;
nodes = (
(220,14,l),
(220,-38,l),
(330,-38,l),
(330,14,l)
);
},
{
closed = 1;
nodes = (
(366,116,l),
(184,116,l),
(184,240,l),
(220,240,l),
(220,152,l),
(330,152,l),
(330,204,l),
(294,204,l),
(294,179,l),
(256,179,l),
(256,240,l),
(366,240,l)
);
},
{
closed = 1;
nodes = (
(366,264,l),
(184,264,l),
(184,302,l),
(330,302,l),
(330,374,l),
(366,374,l)
);
},
{
closed = 1;
nodes = (
(366,404,l),
(294,404,l),
(294,327,l),
(184,327,l),
(184,363,l),
(256,363,l),
(256,404,l),
(184,404,l),
(184,440,l),
(366,440,l)
);
},
{
closed = 1;
nodes = (
(220,547,l),
(220,507,l),
(256,507,l),
(256,547,l)
);
},
{
closed = 1;
nodes = (
(294,507,l),
(366,507,l),
(366,470,l),
(184,470,l),
(184,584,l),
(294,584,l)
);
},
{
closed = 1;
nodes = (
(366,690,l),
(294,690,l),
(294,649,l),
(366,649,l),
(366,613,l),
(184,613,l),
(184,649,l),
(256,649,l),
(256,690,l),
(185,690,l),
(185,726,l),
(366,726,l)
);
},
{
closed = 1;
nodes = (
(366,-136,l),
(331,-136,l),
(254,-188,l),
(366,-188,l),
(366,-224,l),
(184,-224,l),
(184,-188,l),
(261,-136,l),
(184,-136,l),
(184,-100,l),
(366,-100,l)
);
}
);
width = 550;
}
);
note = ".notdef";
},
{
glyphname = a;
layers = (
{
layerId = m01;
shapes = (
{
closed = 1;
nodes = (
(542,0,l),
(542,500,l),
(452,500,l),
(452,0,l)
);
},
{
closed = 1;
nodes = (
(381,-16,o),
(482,131,o),
(482,251,q),
(452,251,l),
(452,158,o),
(375,54,o),
(301,54,qs),
(227,54,o),
(150,158,o),
(150,251,qs),
(150,342,o),
(227,446,o),
(301,446,qs),
(375,446,o),
(452,342,o),
(452,251,q),
(482,251,l),
(482,369,o),
(381,516,o),
(271,516,qs),
(196,516,o),
(92,445,o),
(40,325,o),
(40,251,qs),
(40,176,o),
(92,55,o),
(196,-16,o),
(271,-16,qs)
);
}
);
width = 602;
},
{
layerId = "AA4DCE21-7FE4-4F03-915F-CE2C7C2CC948";
shapes = (
{
closed = 1;
nodes = (
(542,0,l),
(542,500,l),
(452,500,l),
(452,0,l)
);
},
{
closed = 1;
nodes = (
(381,-16,o),
(482,131,o),
(482,251,q),
(452,251,l),
(452,158,o),
(375,54,o),
(301,54,q),
(227,54,o),
(150,158,o),
(150,251,q),
(150,342,o),
(227,446,o),
(301,446,q),
(375,446,o),
(452,342,o),
(452,251,q),
(482,251,l),
(482,369,o),
(381,516,o),
(271,516,q),
(196,516,o),
(92,445,o),
(40,325,o),
(40,251,q),
(40,176,o),
(92,55,o),
(196,-16,o),
(271,-16,q)
);
}
);
width = 602;
}
);
note = a;
unicode = 97;
},
{
glyphname = adieresis;
layers = (
{
layerId = m01;
shapes = (
{
closed = 1;
nodes = (
(542,0,l),
(542,500,l),
(452,500,l),
(452,0,l)
);
},
{
closed = 1;
nodes = (
(381,-16,o),
(482,131,o),
(482,251,q),
(452,251,l),
(452,158,o),
(375,54,o),
(301,54,qs),
(227,54,o),
(150,158,o),
(150,251,qs),
(150,342,o),
(227,446,o),
(301,446,qs),
(375,446,o),
(452,342,o),
(452,251,q),
(482,251,l),
(482,369,o),
(381,516,o),
(271,516,qs),
(196,516,o),
(92,445,o),
(40,325,o),
(40,251,qs),
(40,176,o),
(92,55,o),
(196,-16,o),
(271,-16,qs)
);
},
{
closed = 1;
nodes = (
(249,590,o),
(280,622,o),
(280,646,qs),
(280,669,o),
(249,700,o),
(226,700,qs),
(202,700,o),
(170,669,o),
(170,646,qs),
(170,622,o),
(202,590,o),
(226,590,qs)
);
},
{
closed = 1;
nodes = (
(439,590,o),
(470,622,o),
(470,646,qs),
(470,669,o),
(439,700,o),
(416,700,qs),
(392,700,o),
(360,669,o),
(360,646,qs),
(360,622,o),
(392,590,o),
(416,590,qs)
);
}
);
width = 602;
},
{
layerId = "AA4DCE21-7FE4-4F03-915F-CE2C7C2CC948";
shapes = (
{
closed = 1;
nodes = (
(542,0,l),
(542,500,l),
(452,500,l),
(452,0,l)
);
},
{
closed = 1;
nodes = (
(381,-16,o),
(482,131,o),
(482,251,q),
(452,251,l),
(452,158,o),
(375,54,o),
(301,54,q),
(227,54,o),
(150,158,o),
(150,251,q),
(150,342,o),
(227,446,o),
(301,446,q),
(375,446,o),
(452,342,o),
(452,251,q),
(482,251,l),
(482,369,o),
(381,516,o),
(271,516,q),
(196,516,o),
(92,445,o),
(40,325,o),
(40,251,q),
(40,176,o),
(92,55,o),
(196,-16,o),
(271,-16,q)
);
},
{
closed = 1;
nodes = (
(249,590,o),
(280,622,o),
(280,646,q),
(280,669,o),
(249,700,o),
(226,700,q),
(202,700,o),
(170,669,o),
(170,646,q),
(170,622,o),
(202,590,o),
(226,590,q)
);
},
{
closed = 1;
nodes = (
(439,590,o),
(470,622,o),
(470,646,q),
(470,669,o),
(439,700,o),
(416,700,q),
(392,700,o),
(360,669,o),
(360,646,q),
(360,622,o),
(392,590,o),
(416,590,q)
);
}
);
width = 602;
}
);
note = adieresis;
unicode = 228;
},
{
glyphname = aring;
layers = (
{
layerId = m01;
shapes = (
{
closed = 1;
nodes = (
(542,0,l),
(542,500,l),
(452,500,l),
(452,0,l)
);
},
{
closed = 1;
nodes = (
(381,-16,o),
(482,131,o),
(482,251,q),
(452,251,l),
(452,158,o),
(375,54,o),
(301,54,qs),
(227,54,o),
(150,158,o),
(150,251,qs),
(150,342,o),
(227,446,o),
(301,446,qs),
(375,446,o),
(452,342,o),
(452,251,q),
(482,251,l),
(482,369,o),
(381,516,o),
(271,516,qs),
(196,516,o),
(92,445,o),
(40,325,o),
(40,251,qs),
(40,176,o),
(92,55,o),
(196,-16,o),
(271,-16,qs)
);
},
{
closed = 1;
nodes = (
(298,612,o),
(269,644,o),
(269,676,qs),
(269,706,o),
(298,737,o),
(323,737,qs),
(346,737,o),
(374,705,o),
(374,676,qs),
(374,645,o),
(346,612,o),
(323,612,qs)
);
},
{
closed = 1;
nodes = (
(370,572,o),
(434,632,o),
(434,676,qs),
(434,718,o),
(370,777,o),
(323,777,qs),
(274,777,o),
(209,718,o),
(209,676,qs),
(209,632,o),
(274,572,o),
(323,572,qs)
);
}
);
width = 602;
},
{
layerId = "AA4DCE21-7FE4-4F03-915F-CE2C7C2CC948";
shapes = (
{
closed = 1;
nodes = (
(542,0,l),
(542,500,l),
(452,500,l),
(452,0,l)
);
},
{
closed = 1;
nodes = (
(381,-16,o),
(482,131,o),
(482,251,q),
(452,251,l),
(452,158,o),
(375,54,o),
(301,54,q),
(227,54,o),
(150,158,o),
(150,251,q),
(150,342,o),
(227,446,o),
(301,446,q),
(375,446,o),
(452,342,o),
(452,251,q),
(482,251,l),
(482,369,o),
(381,516,o),
(271,516,q),
(196,516,o),
(92,445,o),
(40,325,o),
(40,251,q),
(40,176,o),
(92,55,o),
(196,-16,o),
(271,-16,q)
);
},
{
closed = 1;
nodes = (
(298,612,o),
(269,644,o),
(269,676,q),
(269,706,o),
(298,737,o),
(323,737,q),
(346,737,o),
(374,705,o),
(374,676,q),
(374,645,o),
(346,612,o),
(323,612,q)
);
},
{
closed = 1;
nodes = (
(370,572,o),
(434,632,o),
(434,676,q),
(434,718,o),
(370,777,o),
(323,777,q),
(274,777,o),
(209,718,o),
(209,676,q),
(209,632,o),
(274,572,o),
(323,572,q)
);
}
);
width = 602;
}
);
note = aring;
unicode = 229;
},
{
glyphname = b;
layers = (
{
layerId = m01;
shapes = (
{
closed = 1;
nodes = (
(406,-16,o),
(510,55,o),
(562,176,o),
(562,251,qs),
(562,325,o),
(510,445,o),
(406,516,o),
(331,516,qs),
(221,516,o),
(120,369,o),
(120,251,q),
(150,251,l),
(150,342,o),
(227,446,o),
(301,446,qs),
(375,446,o),
(452,342,o),
(452,251,qs),
(452,158,o),
(375,54,o),
(301,54,qs),
(227,54,o),
(150,158,o),
(150,251,q),
(120,251,l),
(120,131,o),
(221,-16,o),
(331,-16,qs)
);
},
{
closed = 1;
nodes = (
(150,0,l),
(150,800,l),
(60,800,l),
(60,0,l)
);
}
);
width = 602;
},
{
layerId = "AA4DCE21-7FE4-4F03-915F-CE2C7C2CC948";
shapes = (
{
closed = 1;
nodes = (
(406,-16,o),
(510,55,o),
(562,176,o),
(562,251,q),
(562,325,o),
(510,445,o),
(406,516,o),
(331,516,q),
(221,516,o),
(120,369,o),
(120,251,q),
(150,251,l),
(150,342,o),
(227,446,o),
(301,446,q),
(375,446,o),
(452,342,o),
(452,251,q),
(452,158,o),
(375,54,o),
(301,54,q),
(227,54,o),
(150,158,o),
(150,251,q),
(120,251,l),
(120,131,o),
(221,-16,o),
(331,-16,q)
);
},
{
closed = 1;
nodes = (
(150,0,l),
(150,800,l),
(60,800,l),
(60,0,l)
);
}
);
width = 602;
}
);
note = b;
unicode = 98;
},
{
glyphname = c;
layers = (
{
layerId = m01;
shapes = (
{
closed = 1;
nodes = (
(374,-16,o),
(495,70,o),
(522,141,q),
(413,141,l),
(395,97,o),
(338,54,o),
(291,54,qs),
(150,54,o),
(150,251,qs),
(150,344,o),
(219,446,o),
(291,446,qs),
(337,446,o),
(394,404,o),
(412,361,q),
(522,361,l),
(494,432,o),
(374,516,o),
(291,516,qs),
(215,516,o),
(101,445,o),
(40,324,o),
(40,251,qs),
(40,177,o),
(101,56,o),
(215,-16,o),
(291,-16,qs)
);
}
);
width = 562;
},
{
layerId = "AA4DCE21-7FE4-4F03-915F-CE2C7C2CC948";
shapes = (
{
closed = 1;
nodes = (
(374,-16,o),
(495,70,o),
(522,141,q),
(413,141,l),
(395,97,o),
(338,54,o),
(291,54,q),
(150,54,o),
(150,251,q),
(150,344,o),
(219,446,o),
(291,446,q),
(337,446,o),
(394,404,o),
(412,361,q),
(522,361,l),
(494,432,o),
(374,516,o),
(291,516,q),
(215,516,o),
(101,445,o),
(40,324,o),
(40,251,q),
(40,177,o),
(101,56,o),
(215,-16,o),
(291,-16,q)
);
}
);
width = 562;
}
);
note = c;
unicode = 99;
},
{
glyphname = d;
layers = (
{
layerId = m01;
shapes = (
{
closed = 1;
nodes = (
(542,0,l),
(542,800,l),
(452,800,l),
(452,0,l)
);
},
{
closed = 1;
nodes = (
(381,-16,o),
(482,131,o),
(482,251,q),
(452,251,l),
(452,158,o),
(375,54,o),
(301,54,qs),
(227,54,o),
(150,158,o),
(150,251,qs),
(150,342,o),
(227,446,o),
(301,446,qs),
(375,446,o),
(452,342,o),
(452,251,q),
(482,251,l),
(482,369,o),
(381,516,o),
(271,516,qs),
(196,516,o),
(92,445,o),
(40,325,o),
(40,251,qs),
(40,176,o),
(92,55,o),
(196,-16,o),
(271,-16,qs)
);
}
);
width = 602;
},
{
layerId = "AA4DCE21-7FE4-4F03-915F-CE2C7C2CC948";
shapes = (
{
closed = 1;
nodes = (
(542,0,l),
(542,800,l),
(452,800,l),
(452,0,l)
);
},
{
closed = 1;
nodes = (
(381,-16,o),
(482,131,o),
(482,251,q),
(452,251,l),
(452,158,o),
(375,54,o),
(301,54,q),
(227,54,o),
(150,158,o),
(150,251,q),
(150,342,o),
(227,446,o),
(301,446,q),
(375,446,o),
(452,342,o),
(452,251,q),
(482,251,l),
(482,369,o),
(381,516,o),
(271,516,q),
(196,516,o),
(92,445,o),
(40,325,o),
(40,251,q),
(40,176,o),
(92,55,o),
(196,-16,o),
(271,-16,q)
);
}
);
width = 602;
}
);
note = d;
unicode = 100;
},
{
glyphname = e;
layers = (
{
layerId = m01;
shapes = (
{
closed = 1;
nodes = (
(432,251,l),
(442,321,l),
(140,321,l),
(140,251,l)
);
},
{
closed = 1;
nodes = (
(374,-16,o),
(495,70,o),
(522,141,q),
(413,141,l),
(395,97,o),
(338,54,o),
(291,54,qs),
(150,54,o),
(150,251,qs),
(150,344,o),
(219,446,o),
(291,446,qs),
(363,446,o),
(432,344,o),
(432,251,q),
(542,251,l),
(542,324,o),
(481,445,o),
(367,516,o),
(291,516,qs),
(215,516,o),
(101,445,o),
(40,324,o),
(40,251,qs),
(40,177,o),
(101,56,o),
(215,-16,o),
(291,-16,qs)
);
}
);
width = 600;
},
{
layerId = "AA4DCE21-7FE4-4F03-915F-CE2C7C2CC948";
shapes = (
{
closed = 1;
nodes = (
(432,251,l),
(442,321,l),
(140,321,l),
(140,251,l)
);
},
{
closed = 1;
nodes = (
(374,-16,o),
(495,70,o),
(522,141,q),
(413,141,l),
(395,97,o),
(338,54,o),
(291,54,q),
(150,54,o),
(150,251,q),
(150,344,o),
(219,446,o),
(291,446,q),
(363,446,o),
(432,344,o),
(432,251,q),
(542,251,l),
(542,324,o),
(481,445,o),
(367,516,o),
(291,516,q),
(215,516,o),
(101,445,o),
(40,324,o),
(40,251,q),
(40,177,o),
(101,56,o),
(215,-16,o),
(291,-16,q)
);
}
);
width = 600;
}
);
note = e;
unicode = 101;
},
{
glyphname = f;
layers = (
{
layerId = m01;
shapes = (
{
closed = 1;
nodes = (
(250,430,l),
(250,500,l),
(150,500,l),
(140,465,l),
(150,430,l)
);
},
{
closed = 1;
nodes = (
(60,0,l),
(150,0,l),
(150,620,ls),
(150,678,o),
(159,725,o),
(200,746,o),
(250,746,q),
(250,816,l),
(162,816,o),
(79,760,o),
(60,682,o),
(60,620,qs)
);
}
);
width = 290;
},
{
layerId = "AA4DCE21-7FE4-4F03-915F-CE2C7C2CC948";
shapes = (
{
closed = 1;
nodes = (
(250,430,l),
(250,500,l),
(150,500,l),
(140,465,l),
(150,430,l)
);
},
{
closed = 1;
nodes = (
(60,0,l),
(150,0,l),
(150,620,l),
(150,678,o),
(159,725,o),
(200,746,o),
(250,746,q),
(250,816,l),
(162,816,o),
(79,760,o),
(60,682,o),
(60,620,q)
);
}
);
width = 290;
}
);
note = f;
unicode = 102;
},
{
glyphname = g;
layers = (
{
layerId = m01;
shapes = (
{
closed = 1;
nodes = (
(381,-16,o),
(482,131,o),
(482,251,q),
(452,251,l),
(452,158,o),
(375,54,o),
(301,54,qs),
(227,54,o),
(150,158,o),
(150,251,qs),
(150,342,o),
(227,446,o),
(301,446,qs),
(375,446,o),
(452,342,o),
(452,251,q),
(482,251,l),
(482,369,o),
(381,516,o),
(271,516,qs),
(196,516,o),
(92,445,o),
(40,325,o),
(40,251,qs),
(40,176,o),
(92,55,o),
(196,-16,o),
(271,-16,qs)
);
},
{
closed = 1;
nodes = (
(70,-101,l),
(70,-198,o),
(168,-316,o),
(296,-316,qs),
(410,-316,o),
(517,-222,o),
(542,-95,o),
(542,0,qs),
(542,500,l),
(452,500,l),
(452,0,ls),
(452,-72,o),
(436,-171,o),
(368,-246,o),
(297,-246,qs),
(222,-246,o),
(150,-164,o),
(150,-101,q)
);
}
);
width = 602;
},
{
layerId = "AA4DCE21-7FE4-4F03-915F-CE2C7C2CC948";
shapes = (
{
closed = 1;
nodes = (
(381,-16,o),
(482,131,o),
(482,251,q),
(452,251,l),
(452,158,o),
(375,54,o),
(301,54,q),
(227,54,o),
(150,158,o),
(150,251,q),
(150,342,o),
(227,446,o),
(301,446,q),
(375,446,o),
(452,342,o),
(452,251,q),
(482,251,l),
(482,369,o),
(381,516,o),
(271,516,q),
(196,516,o),
(92,445,o),
(40,325,o),
(40,251,q),
(40,176,o),
(92,55,o),
(196,-16,o),
(271,-16,q)
);
},
{
closed = 1;
nodes = (
(70,-101,l),
(70,-198,o),
(168,-316,o),
(296,-316,q),
(410,-316,o),
(517,-222,o),
(542,-95,o),
(542,0,q),
(542,500,l),
(452,500,l),
(452,0,l),
(452,-72,o),
(436,-171,o),
(368,-246,o),
(297,-246,q),
(222,-246,o),
(150,-164,o),
(150,-101,q)
);
}
);
width = 602;
}
);
note = g;
unicode = 103;
},
{
glyphname = h;
layers = (
{
layerId = m01;
shapes = (
{
closed = 1;
nodes = (
(402,0,l),
(492,0,l),
(492,251,ls),
(492,344,o),
(477,448,o),
(410,516,o),
(338,516,qs),
(223,516,o),
(120,370,o),
(120,251,q),
(150,251,l),
(150,347,o),
(213,446,o),
(291,446,qs),
(344,446,o),
(391,401,o),
(402,326,o),
(402,251,qs)
);
},
{
closed = 1;
nodes = (
(150,0,l),
(150,800,l),
(60,800,l),
(60,0,l)
);
}
);
width = 542;
},
{
layerId = "AA4DCE21-7FE4-4F03-915F-CE2C7C2CC948";
shapes = (
{
closed = 1;
nodes = (
(402,0,l),
(492,0,l),
(492,251,l),
(492,344,o),
(477,448,o),
(410,516,o),
(338,516,q),
(223,516,o),
(120,370,o),
(120,251,q),
(150,251,l),
(150,347,o),
(213,446,o),
(291,446,q),
(344,446,o),
(391,401,o),
(402,326,o),
(402,251,q)
);
},
{
closed = 1;
nodes = (
(150,0,l),
(150,800,l),
(60,800,l),
(60,0,l)
);
}
);
width = 542;
}
);
note = h;
unicode = 104;
},
{
glyphname = i;
layers = (
{
layerId = m01;
shapes = (
{
closed = 1;
nodes = (
(150,0,l),
(150,500,l),
(60,500,l),
(60,0,l)
);
},
{
closed = 1;
nodes = (
(129,590,o),
(160,622,o),
(160,646,qs),
(160,669,o),
(129,700,o),
(106,700,qs),
(82,700,o),
(50,669,o),
(50,646,qs),
(50,622,o),
(82,590,o),
(106,590,qs)
);
}
);
width = 210;
},
{
layerId = "AA4DCE21-7FE4-4F03-915F-CE2C7C2CC948";
shapes = (
{
closed = 1;
nodes = (
(150,0,l),
(150,500,l),
(60,500,l),
(60,0,l)
);
},
{
closed = 1;
nodes = (
(129,590,o),
(160,622,o),
(160,646,q),
(160,669,o),
(129,700,o),
(106,700,q),
(82,700,o),
(50,669,o),
(50,646,q),
(50,622,o),
(82,590,o),
(106,590,q)
);
}
);
width = 210;
}
);
note = i;
unicode = 105;
},
{
glyphname = j;
layers = (
{
layerId = m01;
shapes = (
{
closed = 1;
nodes = (
(150,-300,l),
(150,500,l),
(60,500,l),
(60,-300,l)
);
},
{
closed = 1;
nodes = (
(129,590,o),
(160,622,o),
(160,646,qs),
(160,669,o),
(129,700,o),
(106,700,qs),
(82,700,o),
(50,669,o),
(50,646,qs),
(50,622,o),
(82,590,o),
(106,590,qs)
);
}
);
width = 210;
},
{
layerId = "AA4DCE21-7FE4-4F03-915F-CE2C7C2CC948";
shapes = (
{
closed = 1;
nodes = (
(150,-300,l),
(150,500,l),
(60,500,l),
(60,-300,l)
);
},
{
closed = 1;
nodes = (
(129,590,o),
(160,622,o),
(160,646,q),
(160,669,o),
(129,700,o),
(106,700,q),
(82,700,o),
(50,669,o),
(50,646,q),
(50,622,o),
(82,590,o),
(106,590,q)
);
}
);
width = 210;
}
);
note = j;
unicode = 106;
},
{
glyphname = k;
layers = (
{
layerId = m01;
shapes = (
{
closed = 1;
nodes = (
(150,0,l),
(150,800,l),
(60,800,l),
(60,0,l)
);
},
{
closed = 1;
nodes = (
(150,200,l),
(416,500,l),
(306,500,l),
(70,200,l)
);
},
{
closed = 1;
nodes = (
(466,0,l),
(238,300,l),
(158,300,l),
(346,0,l)
);
}
);
width = 506;
},
{
layerId = "AA4DCE21-7FE4-4F03-915F-CE2C7C2CC948";
shapes = (
{
closed = 1;
nodes = (
(150,0,l),
(150,800,l),
(60,800,l),
(60,0,l)
);
},
{
closed = 1;
nodes = (
(150,200,l),
(416,500,l),
(306,500,l),
(70,200,l)
);
},
{
closed = 1;
nodes = (
(466,0,l),
(238,300,l),
(158,300,l),
(346,0,l)
);
}
);
width = 506;
}
);
note = k;
unicode = 107;
},
{
glyphname = l;
layers = (
{
layerId = m01;
shapes = (
{
closed = 1;
nodes = (
(150,0,l),
(150,800,l),
(60,800,l),
(60,0,l)
);
}
);
width = 210;
},
{
layerId = "AA4DCE21-7FE4-4F03-915F-CE2C7C2CC948";
shapes = (
{
closed = 1;
nodes = (
(150,0,l),
(150,800,l),
(60,800,l),
(60,0,l)
);
}
);
width = 210;
}
);
note = l;
unicode = 108;
},
{
glyphname = m;
layers = (
{
layerId = m01;
shapes = (
{
closed = 1;
nodes = (
(402,0,l),
(492,0,l),
(492,251,ls),
(492,344,o),
(477,448,o),
(410,516,o),
(338,516,qs),
(223,516,o),
(120,370,o),
(120,251,q),
(150,251,l),
(150,347,o),
(213,446,o),
(291,446,qs),
(344,446,o),
(391,401,o),
(402,326,o),
(402,251,qs)
);
},
{
closed = 1;
nodes = (
(744,0,l),
(834,0,l),
(834,251,ls),
(834,344,o),
(819,448,o),
(752,516,o),
(680,516,qs),
(565,516,o),
(462,370,o),
(462,251,q),
(492,251,l),
(492,347,o),
(555,446,o),
(633,446,qs),
(686,446,o),
(733,401,o),
(744,326,o),
(744,251,qs)
);
},
{
closed = 1;
nodes = (
(150,0,l),
(150,500,l),
(60,500,l),
(60,0,l)
);
}
);
width = 884;
},
{
layerId = "AA4DCE21-7FE4-4F03-915F-CE2C7C2CC948";
shapes = (
{
closed = 1;
nodes = (
(402,0,l),
(492,0,l),
(492,251,l),
(492,344,o),
(477,448,o),
(410,516,o),
(338,516,q),
(223,516,o),
(120,370,o),
(120,251,q),
(150,251,l),
(150,347,o),
(213,446,o),
(291,446,q),
(344,446,o),
(391,401,o),
(402,326,o),
(402,251,q)
);
},
{
closed = 1;
nodes = (
(744,0,l),
(834,0,l),
(834,251,l),
(834,344,o),
(819,448,o),
(752,516,o),
(680,516,q),
(565,516,o),
(462,370,o),
(462,251,q),
(492,251,l),
(492,347,o),
(555,446,o),
(633,446,q),
(686,446,o),
(733,401,o),
(744,326,o),
(744,251,q)
);
},
{
closed = 1;
nodes = (
(150,0,l),
(150,500,l),
(60,500,l),
(60,0,l)
);
}
);
width = 884;
}
);
note = m;
unicode = 109;
},
{
glyphname = n;
layers = (
{
layerId = m01;
shapes = (
{
closed = 1;
nodes = (
(402,0,l),
(492,0,l),
(492,251,ls),
(492,344,o),
(477,448,o),
(410,516,o),
(338,516,qs),
(223,516,o),
(120,370,o),
(120,251,q),
(150,251,l),
(150,347,o),
(213,446,o),
(291,446,qs),
(344,446,o),
(391,401,o),
(402,326,o),
(402,251,qs)
);
},
{
closed = 1;
nodes = (
(150,0,l),
(150,500,l),
(60,500,l),
(60,0,l)
);
}
);
width = 542;
},
{
layerId = "AA4DCE21-7FE4-4F03-915F-CE2C7C2CC948";
shapes = (
{
closed = 1;
nodes = (
(402,0,l),
(492,0,l),
(492,251,l),
(492,344,o),
(477,448,o),
(410,516,o),
(338,516,q),
(223,516,o),
(120,370,o),
(120,251,q),
(150,251,l),
(150,347,o),
(213,446,o),
(291,446,q),
(344,446,o),
(391,401,o),
(402,326,o),
(402,251,q)
);
},
{
closed = 1;
nodes = (
(150,0,l),
(150,500,l),
(60,500,l),
(60,0,l)
);
}
);
width = 542;
}
);
note = n;
unicode = 110;
},
{
glyphname = o;
layers = (
{
layerId = m01;
shapes = (
{
closed = 1;
nodes = (
(150,54,o),
(150,251,qs),
(150,344,o),
(219,446,o),
(291,446,qs),
(363,446,o),
(432,344,o),
(432,251,qs),
(432,54,o),
(291,54,qs)
);
},
{
closed = 1;
nodes = (
(367,-16,o),
(481,56,o),
(542,177,o),
(542,251,qs),
(542,324,o),
(481,445,o),
(367,516,o),
(291,516,qs),
(215,516,o),
(101,445,o),
(40,324,o),
(40,251,qs),
(40,177,o),
(101,56,o),
(215,-16,o),
(291,-16,qs)
);
}
);
width = 582;
},
{
layerId = "AA4DCE21-7FE4-4F03-915F-CE2C7C2CC948";
shapes = (
{
closed = 1;
nodes = (
(150,54,o),
(150,251,q),
(150,344,o),
(219,446,o),
(291,446,q),
(363,446,o),
(432,344,o),
(432,251,q),
(432,54,o),
(291,54,q)
);
},
{
closed = 1;
nodes = (
(367,-16,o),
(481,56,o),
(542,177,o),
(542,251,q),
(542,324,o),
(481,445,o),
(367,516,o),
(291,516,q),
(215,516,o),
(101,445,o),
(40,324,o),
(40,251,q),
(40,177,o),
(101,56,o),
(215,-16,o),
(291,-16,q)
);
}
);
width = 582;
}
);
note = o;
unicode = 111;
},
{
glyphname = odieresis;
layers = (
{
layerId = m01;
shapes = (
{
closed = 1;
nodes = (
(217,54,o),
(140,158,o),
(140,251,qs),
(140,342,o),
(217,446,o),
(291,446,qs),
(365,446,o),
(442,342,o),
(442,251,qs),
(442,158,o),
(365,54,o),
(291,54,qs)
);
},
{
closed = 1;
nodes = (
(367,-16,o),
(481,56,o),
(542,177,o),
(542,251,qs),
(542,324,o),
(481,445,o),
(367,516,o),
(291,516,qs),
(215,516,o),
(101,445,o),
(40,324,o),
(40,251,qs),
(40,177,o),
(101,56,o),
(215,-16,o),
(291,-16,qs)
);
},
{
closed = 1;
nodes = (
(220,590,o),
(251,622,o),
(251,646,qs),
(251,669,o),
(220,700,o),
(197,700,qs),
(173,700,o),
(141,669,o),
(141,646,qs),
(141,622,o),
(173,590,o),
(197,590,qs)
);
},
{
closed = 1;
nodes = (
(410,590,o),
(441,622,o),
(441,646,qs),
(441,669,o),
(410,700,o),
(387,700,qs),
(363,700,o),
(331,669,o),
(331,646,qs),
(331,622,o),
(363,590,o),
(387,590,qs)
);
}
);
width = 582;
},
{
layerId = "AA4DCE21-7FE4-4F03-915F-CE2C7C2CC948";
shapes = (
{
closed = 1;
nodes = (
(217,54,o),
(140,158,o),
(140,251,q),
(140,342,o),
(217,446,o),
(291,446,q),
(365,446,o),
(442,342,o),
(442,251,q),
(442,158,o),
(365,54,o),
(291,54,q)
);
},
{
closed = 1;
nodes = (
(367,-16,o),
(481,56,o),
(542,177,o),
(542,251,q),
(542,324,o),
(481,445,o),
(367,516,o),
(291,516,q),
(215,516,o),
(101,445,o),
(40,324,o),
(40,251,q),
(40,177,o),
(101,56,o),
(215,-16,o),
(291,-16,q)
);
},
{
closed = 1;
nodes = (
(220,590,o),
(251,622,o),
(251,646,q),
(251,669,o),
(220,700,o),
(197,700,q),
(173,700,o),
(141,669,o),
(141,646,q),
(141,622,o),
(173,590,o),
(197,590,q)
);
},
{
closed = 1;
nodes = (
(410,590,o),
(441,622,o),
(441,646,q),
(441,669,o),
(410,700,o),
(387,700,q),
(363,700,o),
(331,669,o),
(331,646,q),
(331,622,o),
(363,590,o),
(387,590,q)
);
}
);
width = 582;
}
);
note = odieresis;
unicode = 246;
},
{
glyphname = p;
layers = (
{
layerId = m01;
shapes = (
{
closed = 1;
nodes = (
(406,-16,o),
(510,55,o),
(562,176,o),
(562,251,qs),
(562,325,o),
(510,445,o),
(406,516,o),
(331,516,qs),
(221,516,o),
(120,369,o),
(120,251,q),
(150,251,l),
(150,342,o),
(227,446,o),
(301,446,qs),
(375,446,o),
(452,342,o),
(452,251,qs),
(452,158,o),
(375,54,o),
(301,54,qs),
(227,54,o),
(150,158,o),
(150,251,q),
(120,251,l),
(120,131,o),
(221,-16,o),
(331,-16,qs)
);
},
{
closed = 1;
nodes = (
(150,-300,l),
(150,500,l),
(60,500,l),
(60,-300,l)
);
}
);
width = 602;
},
{
layerId = "AA4DCE21-7FE4-4F03-915F-CE2C7C2CC948";
shapes = (
{
closed = 1;
nodes = (
(406,-16,o),
(510,55,o),
(562,176,o),
(562,251,q),
(562,325,o),
(510,445,o),
(406,516,o),
(331,516,q),
(221,516,o),
(120,369,o),
(120,251,q),
(150,251,l),
(150,342,o),
(227,446,o),
(301,446,q),
(375,446,o),
(452,342,o),
(452,251,q),
(452,158,o),
(375,54,o),
(301,54,q),
(227,54,o),
(150,158,o),
(150,251,q),
(120,251,l),
(120,131,o),
(221,-16,o),
(331,-16,q)
);
},
{
closed = 1;
nodes = (
(150,-300,l),
(150,500,l),
(60,500,l),
(60,-300,l)
);
}
);
width = 602;
}
);
note = p;
unicode = 112;
},
{
glyphname = q;
layers = (
{
layerId = m01;
shapes = (
{
closed = 1;
nodes = (
(542,-300,l),
(542,500,l),
(452,500,l),
(452,-300,l)
);
},
{
closed = 1;
nodes = (
(381,-16,o),
(482,131,o),
(482,251,q),
(452,251,l),
(452,158,o),
(375,54,o),
(301,54,qs),
(227,54,o),
(150,158,o),
(150,251,qs),
(150,342,o),
(227,446,o),
(301,446,qs),
(375,446,o),
(452,342,o),
(452,251,q),
(482,251,l),
(482,369,o),
(381,516,o),
(271,516,qs),
(196,516,o),
(92,445,o),
(40,325,o),
(40,251,qs),
(40,176,o),
(92,55,o),
(196,-16,o),
(271,-16,qs)
);
}
);
width = 602;
},
{
layerId = "AA4DCE21-7FE4-4F03-915F-CE2C7C2CC948";
shapes = (
{
closed = 1;
nodes = (
(542,-300,l),
(542,500,l),
(452,500,l),
(452,-300,l)
);
},
{
closed = 1;
nodes = (
(381,-16,o),
(482,131,o),
(482,251,q),
(452,251,l),
(452,158,o),
(375,54,o),
(301,54,q),
(227,54,o),
(150,158,o),
(150,251,q),
(150,342,o),
(227,446,o),
(301,446,q),
(375,446,o),
(452,342,o),
(452,251,q),
(482,251,l),
(482,369,o),
(381,516,o),
(271,516,q),
(196,516,o),
(92,445,o),
(40,325,o),
(40,251,q),
(40,176,o),
(92,55,o),
(196,-16,o),
(271,-16,q)
);
}
);
width = 602;
}
);
note = q;
unicode = 113;
},
{
glyphname = r;
layers = (
{
layerId = m01;
shapes = (
{
closed = 1;
nodes = (
(150,0,l),
(150,500,l),
(60,500,l),
(60,0,l)
);
},
{
closed = 1;
nodes = (
(150,241,l),
(150,315,o),
(185,399,o),
(266,436,o),
(338,436,q),
(338,516,l),
(223,516,o),
(120,370,o),
(120,251,q)
);
}
);
width = 378;
},
{
layerId = "AA4DCE21-7FE4-4F03-915F-CE2C7C2CC948";
shapes = (
{
closed = 1;
nodes = (
(150,0,l),
(150,500,l),
(60,500,l),
(60,0,l)
);
},
{
closed = 1;
nodes = (
(150,241,l),
(150,315,o),
(185,399,o),
(266,436,o),
(338,436,q),
(338,516,l),
(223,516,o),
(120,370,o),
(120,251,q)
);
}
);
width = 378;
}
);
note = r;
unicode = 114;
},
{
glyphname = s;
layers = (
{
layerId = m01;
shapes = (
{
closed = 1;
nodes = (
(297,-16,o),
(392,66,o),
(392,137,qs),
(392,188,o),
(343,255,o),
(277,290,o),
(230,307,q),
(230,307,l),
(174,327,o),
(130,356,o),
(130,384,qs),
(130,412,o),
(175,446,o),
(208,446,qs),
(246,446,o),
(292,400,o),
(292,364,q),
(362,364,l),
(362,431,o),
(276,516,o),
(207,516,qs),
(164,516,o),
(92,480,o),
(50,418,o),
(50,380,qs),
(50,341,o),
(94,288,o),
(152,258,o),
(195,242,qs),
(199,241,l),
(202,240,ls),
(241,226,o),
(279,206,o),
(302,172,o),
(302,143,qs),
(302,100,o),
(255,54,o),
(214,54,qs),
(165,54,o),
(110,117,o),
(110,172,q),
(40,172,l),
(40,83,o),
(133,-16,o),
(218,-16,qs)
);
}
);
width = 432;
},
{
layerId = "AA4DCE21-7FE4-4F03-915F-CE2C7C2CC948";
shapes = (
{
closed = 1;
nodes = (
(297,-16,o),
(392,66,o),
(392,137,q),
(392,188,o),
(343,255,o),
(277,290,o),
(230,307,q),
(230,307,l),
(174,327,o),
(130,356,o),
(130,384,q),
(130,412,o),
(175,446,o),
(208,446,q),
(246,446,o),
(292,400,o),
(292,364,q),
(362,364,l),
(362,431,o),
(276,516,o),
(207,516,q),
(164,516,o),
(92,480,o),
(50,418,o),
(50,380,q),
(50,341,o),
(94,288,o),
(152,258,o),
(195,242,q),
(199,241,l),
(202,240,l),
(241,226,o),
(279,206,o),
(302,172,o),
(302,143,q),
(302,100,o),
(255,54,o),
(214,54,q),
(165,54,o),
(110,117,o),
(110,172,q),
(40,172,l),
(40,83,o),
(133,-16,o),
(218,-16,q)
);
}
);
width = 432;
}
);
note = s;
unicode = 115;
},
{
glyphname = t;
layers = (
{
layerId = m01;
shapes = (
{
closed = 1;
nodes = (
(150,0,l),
(150,800,l),
(60,800,l),
(60,0,l)
);
},
{
closed = 1;
nodes = (
(250,430,l),
(250,500,l),
(150,500,l),
(140,465,l),
(150,430,l)
);
}
);
width = 290;
},
{
layerId = "AA4DCE21-7FE4-4F03-915F-CE2C7C2CC948";
shapes = (
{
closed = 1;
nodes = (
(150,0,l),
(150,800,l),
(60,800,l),
(60,0,l)
);
},
{
closed = 1;
nodes = (
(250,430,l),
(250,500,l),
(150,500,l),
(140,465,l),
(150,430,l)
);
}
);
width = 290;
}
);
note = t;
unicode = 116;
},
{
glyphname = u;
layers = (
{
layerId = m01;
shapes = (
{
closed = 1;
nodes = (
(482,0,l),
(482,500,l),
(392,500,l),
(392,0,l)
);
},
{
closed = 1;
nodes = (
(304,-16,o),
(391,53,o),
(422,169,o),
(422,251,q),
(392,251,l),
(392,183,o),
(374,100,o),
(318,54,o),
(265,54,qs),
(207,54,o),
(153,107,o),
(140,185,o),
(140,251,qs),
(140,500,l),
(50,500,l),
(50,251,ls),
(50,161,o),
(67,56,o),
(143,-16,o),
(224,-16,qs)
);
}
);
width = 542;
},
{
layerId = "AA4DCE21-7FE4-4F03-915F-CE2C7C2CC948";
shapes = (
{
closed = 1;
nodes = (
(482,0,l),
(482,500,l),
(392,500,l),
(392,0,l)
);
},
{
closed = 1;
nodes = (
(304,-16,o),
(391,53,o),
(422,169,o),
(422,251,q),
(392,251,l),
(392,183,o),
(374,100,o),
(318,54,o),
(265,54,q),
(207,54,o),
(153,107,o),
(140,185,o),
(140,251,q),
(140,500,l),
(50,500,l),
(50,251,l),
(50,161,o),
(67,56,o),
(143,-16,o),
(224,-16,q)
);
}
);
width = 542;
}
);
note = u;
unicode = 117;
},
{
glyphname = v;
layers = (
{
layerId = m01;
shapes = (
{
closed = 1;
nodes = (
(306,0,l),
(482,500,l),
(382,500,l),
(226,0,l)
);
},
{
closed = 1;
nodes = (
(296,0,l),
(140,500,l),
(40,500,l),
(216,0,l)
);
}
);
width = 522;
},
{
layerId = "AA4DCE21-7FE4-4F03-915F-CE2C7C2CC948";
shapes = (
{
closed = 1;
nodes = (
(306,0,l),
(482,500,l),
(382,500,l),
(226,0,l)
);
},
{
closed = 1;
nodes = (
(296,0,l),
(140,500,l),
(40,500,l),
(216,0,l)
);
}
);
width = 522;
}
);
note = v;
unicode = 118;
},
{
glyphname = w;
layers = (
{
layerId = m01;
shapes = (
{
closed = 1;
nodes = (
(296,0,l),
(422,500,l),
(352,500,l),
(216,0,l)
);
},
{
closed = 1;
nodes = (
(286,0,l),
(140,500,l),
(40,500,l),
(206,0,l)
);
},
{
closed = 1;
nodes = (
(568,0,l),
(734,500,l),
(634,500,l),
(488,0,l)
);
},
{
closed = 1;
nodes = (
(558,0,l),
(422,500,l),
(352,500,l),
(478,0,l)
);
}
);
width = 774;
},
{
layerId = "AA4DCE21-7FE4-4F03-915F-CE2C7C2CC948";
shapes = (
{
closed = 1;
nodes = (
(296,0,l),
(422,500,l),
(352,500,l),
(216,0,l)
);
},
{
closed = 1;
nodes = (
(286,0,l),
(140,500,l),
(40,500,l),
(206,0,l)
);
},
{
closed = 1;
nodes = (
(568,0,l),
(734,500,l),
(634,500,l),
(488,0,l)
);
},
{
closed = 1;
nodes = (
(558,0,l),
(422,500,l),
(352,500,l),
(478,0,l)
);
}
);
width = 774;
}
);
note = w;
unicode = 119;
},
{
glyphname = x;
layers = (
{
layerId = m01;
shapes = (
{
closed = 1;
nodes = (
(456,0,l),
(257,307,l),
(140,500,l),
(40,500,l),
(220,228,l),
(356,0,l)
);
},
{
closed = 1;
nodes = (
(130,0,l),
(266,228,l),
(446,500,l),
(346,500,l),
(229,307,l),
(30,0,l)
);
}
);
width = 486;
},
{
layerId = "AA4DCE21-7FE4-4F03-915F-CE2C7C2CC948";
shapes = (
{
closed = 1;
nodes = (
(456,0,l),
(257,307,l),
(140,500,l),
(40,500,l),
(220,228,l),
(356,0,l)
);
},
{
closed = 1;
nodes = (
(130,0,l),
(266,228,l),
(446,500,l),
(346,500,l),
(229,307,l),
(30,0,l)
);
}
);
width = 486;
}
);
note = x;
unicode = 120;
},
{
glyphname = y;
layers = (
{
layerId = m01;
shapes = (
{
closed = 1;
nodes = (
(306,0,l),
(140,500,l),
(40,500,l),
(226,0,l)
);
},
{
closed = 1;
nodes = (
(200,-300,l),
(306,0,l),
(482,500,l),
(382,500,l),
(226,0,l),
(100,-300,l)
);
}
);
width = 522;
},
{
layerId = "AA4DCE21-7FE4-4F03-915F-CE2C7C2CC948";
shapes = (
{
closed = 1;
nodes = (
(306,0,l),
(140,500,l),
(40,500,l),
(226,0,l)
);
},
{
closed = 1;
nodes = (
(200,-300,l),
(306,0,l),
(482,500,l),
(382,500,l),
(226,0,l),
(100,-300,l)
);
}
);
width = 522;
}
);
note = y;
unicode = 121;
},
{
glyphname = z;
layers = (
{
layerId = m01;
shapes = (
{
closed = 1;
nodes = (
(120,0,l),
(476,500,l),
(376,500,l),
(20,0,l)
);
},
{
closed = 1;
nodes = (
(376,420,l),
(376,500,l),
(40,500,l),
(40,420,l)
);
},
{
closed = 1;
nodes = (
(456,0,l),
(456,80,l),
(120,80,l),
(120,0,l)
);
}
);
width = 496;
},
{
layerId = "AA4DCE21-7FE4-4F03-915F-CE2C7C2CC948";
shapes = (
{
closed = 1;
nodes = (
(120,0,l),
(476,500,l),
(376,500,l),
(20,0,l)
);
},
{
closed = 1;
nodes = (
(376,420,l),
(376,500,l),
(40,500,l),
(40,420,l)
);
},
{
closed = 1;
nodes = (
(456,0,l),
(456,80,l),
(120,80,l),
(120,0,l)
);
}
);
width = 496;
}
);
note = z;
unicode = 122;
},
{
glyphname = a.init.001;
layers = (
{
layerId = m01;
shapes = (
{
closed = 1;
nodes = (
(381,-16,o),
(482,131,o),
(482,251,q),
(452,251,l),
(452,158,o),
(375,54,o),
(301,54,qs),
(227,54,o),
(150,158,o),
(150,251,qs),
(150,342,o),
(227,446,o),
(301,446,qs),
(375,446,o),
(452,342,o),
(452,251,q),
(482,251,l),
(482,369,o),
(381,516,o),
(271,516,qs),
(196,516,o),
(92,445,o),
(40,325,o),
(40,251,qs),
(40,176,o),
(92,55,o),
(196,-16,o),
(271,-16,qs)
);
},
{
closed = 1;
nodes = (
(497,241,l),
(542,251,l),
(542,500,l),
(452,500,l),
(452,251,l)
);
},
{
closed = 1;
nodes = (
(662,0,l),
(672,35,l),
(662,70,l),
(646,70,ls),
(598,70,o),
(552,121,o),
(542,193,o),
(542,251,q),
(452,251,l),
(452,171,o),
(472,67,o),
(544,0,o),
(616,0,qs)
);
}
);
width = 602;
},
{
layerId = "AA4DCE21-7FE4-4F03-915F-CE2C7C2CC948";
shapes = (
{
closed = 1;
nodes = (
(381,-16,o),
(482,131,o),
(482,251,q),
(452,251,l),
(452,158,o),
(375,54,o),
(301,54,q),
(227,54,o),
(150,158,o),
(150,251,q),
(150,342,o),
(227,446,o),
(301,446,q),
(375,446,o),
(452,342,o),
(452,251,q),
(482,251,l),
(482,369,o),
(381,516,o),
(271,516,q),
(196,516,o),
(92,445,o),
(40,325,o),
(40,251,q),
(40,176,o),
(92,55,o),
(196,-16,o),
(271,-16,q)
);
},
{
closed = 1;
nodes = (
(497,241,l),
(542,251,l),
(542,500,l),
(452,500,l),
(452,251,l)
);
},
{
closed = 1;
nodes = (
(662,0,l),
(672,35,l),
(662,70,l),
(646,70,l),
(598,70,o),
(552,121,o),
(542,193,o),
(542,251,q),
(452,251,l),
(452,171,o),
(472,67,o),
(544,0,o),
(616,0,q)
);
}
);
width = 602;
}
);
note = a.init.001;
},
{
glyphname = a.init.002;
layers = (
{
layerId = m01;
shapes = (
{
closed = 1;
nodes = (
(381,-16,o),
(482,131,o),
(482,251,q),
(452,251,l),
(452,158,o),
(375,54,o),
(301,54,qs),
(227,54,o),
(150,158,o),
(150,251,qs),
(150,342,o),
(227,446,o),
(301,446,qs),
(375,446,o),
(452,342,o),
(452,251,q),
(482,251,l),
(482,369,o),
(381,516,o),
(271,516,qs),
(196,516,o),
(92,445,o),
(40,325,o),
(40,251,qs),
(40,176,o),
(92,55,o),
(196,-16,o),
(271,-16,qs)
);
},
{
closed = 1;
nodes = (
(497,241,l),
(542,251,l),
(542,500,l),
(452,500,l),
(452,251,l)
);
},
{
closed = 1;
nodes = (
(645,-16,o),
(692,106,o),
(692,181,qs),
(692,251,l),
(642,251,l),
(642,54,o),
(590,54,qs),
(560,54,o),
(542,163,o),
(542,251,q),
(452,251,l),
(452,166,o),
(465,58,o),
(516,-16,o),
(570,-16,qs)
);
}
);
width = 602;
},
{
layerId = "AA4DCE21-7FE4-4F03-915F-CE2C7C2CC948";
shapes = (
{
closed = 1;
nodes = (
(381,-16,o),
(482,131,o),
(482,251,q),
(452,251,l),
(452,158,o),
(375,54,o),
(301,54,q),
(227,54,o),
(150,158,o),
(150,251,q),
(150,342,o),
(227,446,o),
(301,446,q),
(375,446,o),
(452,342,o),
(452,251,q),
(482,251,l),
(482,369,o),
(381,516,o),
(271,516,q),
(196,516,o),
(92,445,o),
(40,325,o),
(40,251,q),
(40,176,o),
(92,55,o),
(196,-16,o),
(271,-16,q)
);
},
{
closed = 1;
nodes = (
(497,241,l),
(542,251,l),
(542,500,l),
(452,500,l),
(452,251,l)
);
},
{
closed = 1;
nodes = (
(610,-16,o),
(651,-16,o),
(692,-16,q),
(692,54,l),
(642,54,l),
(616,54,o),
(590,54,q),
(560,54,o),
(542,163,o),
(542,251,q),
(452,251,l),
(452,166,o),
(465,58,o),
(516,-16,o),
(570,-16,q)
);
}
);
width = 602;
}
);
note = a.init.002;
},
{
glyphname = adieresis.init.001;
layers = (
{
layerId = m01;
shapes = (
{
closed = 1;
nodes = (
(381,-16,o),
(482,131,o),
(482,251,q),
(452,251,l),
(452,158,o),
(375,54,o),
(301,54,qs),
(227,54,o),
(150,158,o),
(150,251,qs),
(150,342,o),
(227,446,o),
(301,446,qs),
(375,446,o),
(452,342,o),
(452,251,q),
(482,251,l),
(482,369,o),
(381,516,o),
(271,516,qs),
(196,516,o),
(92,445,o),
(40,325,o),
(40,251,qs),
(40,176,o),
(92,55,o),
(196,-16,o),
(271,-16,qs)
);
},
{
closed = 1;
nodes = (
(249,590,o),
(280,622,o),
(280,646,qs),
(280,669,o),
(249,700,o),
(226,700,qs),
(202,700,o),
(170,669,o),
(170,646,qs),
(170,622,o),
(202,590,o),
(226,590,qs)
);
},
{
closed = 1;
nodes = (
(439,590,o),
(470,622,o),
(470,646,qs),
(470,669,o),
(439,700,o),
(416,700,qs),
(392,700,o),
(360,669,o),
(360,646,qs),
(360,622,o),
(392,590,o),
(416,590,qs)
);
},
{
closed = 1;
nodes = (
(497,241,l),
(542,251,l),
(542,500,l),
(452,500,l),
(452,251,l)
);
},
{
closed = 1;
nodes = (
(662,0,l),
(672,35,l),
(662,70,l),
(646,70,ls),
(598,70,o),
(552,121,o),
(542,193,o),
(542,251,q),
(452,251,l),
(452,171,o),
(472,67,o),
(544,0,o),
(616,0,qs)
);
}
);
width = 602;
},
{
layerId = "AA4DCE21-7FE4-4F03-915F-CE2C7C2CC948";
shapes = (
{
closed = 1;
nodes = (
(381,-16,o),
(482,131,o),
(482,251,q),
(452,251,l),
(452,158,o),
(375,54,o),
(301,54,q),
(227,54,o),
(150,158,o),
(150,251,q),
(150,342,o),
(227,446,o),
(301,446,q),
(375,446,o),
(452,342,o),
(452,251,q),
(482,251,l),
(482,369,o),
(381,516,o),
(271,516,q),
(196,516,o),
(92,445,o),
(40,325,o),
(40,251,q),
(40,176,o),
(92,55,o),
(196,-16,o),
(271,-16,q)
);
},
{
closed = 1;
nodes = (
(249,590,o),
(280,622,o),
(280,646,q),
(280,669,o),
(249,700,o),
(226,700,q),
(202,700,o),
(170,669,o),
(170,646,q),
(170,622,o),
(202,590,o),
(226,590,q)
);
},
{
closed = 1;
nodes = (
(439,590,o),
(470,622,o),
(470,646,q),
(470,669,o),
(439,700,o),
(416,700,q),
(392,700,o),
(360,669,o),
(360,646,q),
(360,622,o),
(392,590,o),
(416,590,q)
);
},
{
closed = 1;
nodes = (
(497,241,l),
(542,251,l),
(542,500,l),
(452,500,l),
(452,251,l)
);
},
{
closed = 1;
nodes = (
(662,0,l),
(672,35,l),
(662,70,l),
(646,70,l),
(598,70,o),
(552,121,o),
(542,193,o),
(542,251,q),
(452,251,l),
(452,171,o),
(472,67,o),
(544,0,o),
(616,0,q)
);
}
);
width = 602;
}
);
note = adieresis.init.001;
},
{
glyphname = adieresis.init.002;
layers = (
{
layerId = m01;
shapes = (
{
closed = 1;
nodes = (
(381,-16,o),
(482,131,o),
(482,251,q),
(452,251,l),
(452,158,o),
(375,54,o),
(301,54,qs),
(227,54,o),
(150,158,o),
(150,251,qs),
(150,342,o),
(227,446,o),
(301,446,qs),
(375,446,o),
(452,342,o),
(452,251,q),
(482,251,l),
(482,369,o),
(381,516,o),
(271,516,qs),
(196,516,o),
(92,445,o),
(40,325,o),
(40,251,qs),
(40,176,o),
(92,55,o),
(196,-16,o),
(271,-16,qs)
);
},
{
closed = 1;
nodes = (
(249,590,o),
(280,622,o),
(280,646,qs),
(280,669,o),
(249,700,o),
(226,700,qs),
(202,700,o),
(170,669,o),
(170,646,qs),
(170,622,o),
(202,590,o),
(226,590,qs)
);
},
{
closed = 1;
nodes = (
(439,590,o),
(470,622,o),
(470,646,qs),
(470,669,o),
(439,700,o),
(416,700,qs),
(392,700,o),
(360,669,o),
(360,646,qs),
(360,622,o),
(392,590,o),
(416,590,qs)
);
},
{
closed = 1;
nodes = (
(497,241,l),
(542,251,l),
(542,500,l),
(452,500,l),
(452,251,l)
);
},
{
closed = 1;
nodes = (
(645,-16,o),
(692,106,o),
(692,181,qs),
(692,251,l),
(642,251,l),
(642,54,o),
(590,54,qs),
(560,54,o),
(542,163,o),
(542,251,q),
(452,251,l),
(452,166,o),
(465,58,o),
(516,-16,o),
(570,-16,qs)
);
}
);
width = 602;
},
{
layerId = "AA4DCE21-7FE4-4F03-915F-CE2C7C2CC948";
shapes = (
{
closed = 1;
nodes = (
(381,-16,o),
(482,131,o),
(482,251,q),
(452,251,l),
(452,158,o),
(375,54,o),
(301,54,q),
(227,54,o),
(150,158,o),
(150,251,q),
(150,342,o),
(227,446,o),
(301,446,q),
(375,446,o),
(452,342,o),
(452,251,q),
(482,251,l),
(482,369,o),
(381,516,o),
(271,516,q),
(196,516,o),
(92,445,o),
(40,325,o),
(40,251,q),
(40,176,o),
(92,55,o),
(196,-16,o),
(271,-16,q)
);
},
{
closed = 1;
nodes = (
(249,590,o),
(280,622,o),
(280,646,q),
(280,669,o),
(249,700,o),
(226,700,q),
(202,700,o),
(170,669,o),
(170,646,q),
(170,622,o),
(202,590,o),
(226,590,q)
);
},
{
closed = 1;
nodes = (
(439,590,o),
(470,622,o),
(470,646,q),
(470,669,o),
(439,700,o),
(416,700,q),
(392,700,o),
(360,669,o),
(360,646,q),
(360,622,o),
(392,590,o),
(416,590,q)
);
},
{
closed = 1;
nodes = (
(497,241,l),
(542,251,l),
(542,500,l),
(452,500,l),
(452,251,l)
);
},
{
closed = 1;
nodes = (
(610,-16,o),
(651,-16,o),
(692,-16,q),
(692,54,l),
(642,54,l),
(616,54,o),
(590,54,q),
(560,54,o),
(542,163,o),
(542,251,q),
(452,251,l),
(452,166,o),
(465,58,o),
(516,-16,o),
(570,-16,q)
);
}
);
width = 602;
}
);
note = adieresis.init.002;
},
{
glyphname = adieresis.init.003;
layers = (
{
layerId = m01;
shapes = (
{
closed = 1;
nodes = (
(249,590,o),
(280,622,o),
(280,646,qs),
(280,669,o),
(249,700,o),
(226,700,qs),
(202,700,o),
(170,669,o),
(170,646,qs),
(170,622,o),
(202,590,o),
(226,590,qs)
);
},
{
closed = 1;
nodes = (
(439,590,o),
(470,622,o),
(470,646,qs),
(470,669,o),
(439,700,o),
(416,700,qs),
(392,700,o),
(360,669,o),
(360,646,qs),
(360,622,o),
(392,590,o),
(416,590,qs)
);
},
{
closed = 1;
nodes = (
(542,0,l),
(542,500,l),
(452,500,l),
(452,0,l)
);
},
{
closed = 1;
nodes = (
(381,-16,o),
(482,131,o),
(482,251,q),
(452,251,l),
(452,158,o),
(375,54,o),
(301,54,qs),
(227,54,o),
(150,158,o),
(150,251,qs),
(150,342,o),
(227,446,o),
(301,446,qs),
(375,446,o),
(452,342,o),
(452,251,q),
(482,251,l),
(482,369,o),
(381,516,o),
(271,516,qs),
(196,516,o),
(92,445,o),
(40,325,o),
(40,251,qs),
(40,176,o),
(92,55,o),
(196,-16,o),
(271,-16,qs)
);
},
{
closed = 1;
nodes = (
(477,20,l),
(542,0,l),
(542,83,o),
(595,240,o),
(646,347,qs),
(685,430,o),
(700,470,q),
(700,480,l),
(642,500,l),
(619,439,o),
(578,352,qs),
(534,258,o),
(487,135,o),
(477,70,q)
);
}
);
width = 602;
},
{
layerId = "AA4DCE21-7FE4-4F03-915F-CE2C7C2CC948";
shapes = (
{
closed = 1;
nodes = (
(249,590,o),
(280,622,o),
(280,646,q),
(280,669,o),
(249,700,o),
(226,700,q),
(202,700,o),
(170,669,o),
(170,646,q),
(170,622,o),
(202,590,o),
(226,590,q)
);
},
{
closed = 1;
nodes = (
(439,590,o),
(470,622,o),
(470,646,q),
(470,669,o),
(439,700,o),
(416,700,q),
(392,700,o),
(360,669,o),
(360,646,q),
(360,622,o),
(392,590,o),
(416,590,q)
);
},
{
closed = 1;
nodes = (
(542,0,l),
(542,500,l),
(452,500,l),
(452,0,l)
);
},
{
closed = 1;
nodes = (
(381,-16,o),
(482,131,o),
(482,251,q),
(452,251,l),
(452,158,o),
(375,54,o),
(301,54,q),
(227,54,o),
(150,158,o),
(150,251,q),
(150,342,o),
(227,446,o),
(301,446,q),
(375,446,o),
(452,342,o),
(452,251,q),
(482,251,l),
(482,369,o),
(381,516,o),
(271,516,q),
(196,516,o),
(92,445,o),
(40,325,o),
(40,251,q),
(40,176,o),
(92,55,o),
(196,-16,o),
(271,-16,q)
);
},
{
closed = 1;
nodes = (
(477,20,l),
(542,0,l),
(584,0,o),
(626,0,o),
(669,0,q),
(685,0,o),
(700,0,q),
(700,20,l),
(642,70,l),
(619,70,o),
(596,70,q),
(557,70,o),
(517,70,o),
(477,70,q)
);
}
);
width = 602;
}
);
note = adieresis.init.003;
},
{
glyphname = adieresis.init.004;
layers = (
{
layerId = m01;
shapes = (
{
closed = 1;
nodes = (
(249,590,o),
(280,622,o),
(280,646,qs),
(280,669,o),
(249,700,o),
(226,700,qs),
(202,700,o),
(170,669,o),
(170,646,qs),
(170,622,o),
(202,590,o),
(226,590,qs)
);
},
{
closed = 1;
nodes = (
(439,590,o),
(470,622,o),
(470,646,qs),
(470,669,o),
(439,700,o),
(416,700,qs),
(392,700,o),
(360,669,o),
(360,646,qs),
(360,622,o),
(392,590,o),
(416,590,qs)
);
},
{
closed = 1;
nodes = (
(542,0,l),
(542,500,l),
(452,500,l),
(452,0,l)
);
},
{
closed = 1;
nodes = (
(381,-16,o),
(482,131,o),
(482,251,q),
(452,251,l),
(452,158,o),
(375,54,o),
(301,54,qs),
(227,54,o),
(150,158,o),
(150,251,qs),
(150,342,o),
(227,446,o),
(301,446,qs),
(375,446,o),
(452,342,o),
(452,251,q),
(482,251,l),
(482,369,o),
(381,516,o),
(271,516,qs),
(196,516,o),
(92,445,o),
(40,325,o),
(40,251,qs),
(40,176,o),
(92,55,o),
(196,-16,o),
(271,-16,qs)
);
},
{
closed = 1;
nodes = (
(484,20,l),
(542,0,l),
(542,54,o),
(596,157,o),
(646,227,qs),
(688,289,o),
(700,310,q),
(700,360,l),
(652,380,l),
(652,350,o),
(615,282,o),
(576,228,qs),
(540,178,o),
(497,107,o),
(484,70,q)
);
}
);
width = 602;
},
{
layerId = "AA4DCE21-7FE4-4F03-915F-CE2C7C2CC948";
shapes = (
{
closed = 1;
nodes = (
(249,590,o),
(280,622,o),
(280,646,q),
(280,669,o),
(249,700,o),
(226,700,q),
(202,700,o),
(170,669,o),
(170,646,q),
(170,622,o),
(202,590,o),
(226,590,q)
);
},
{
closed = 1;
nodes = (
(439,590,o),
(470,622,o),
(470,646,q),
(470,669,o),
(439,700,o),
(416,700,q),
(392,700,o),
(360,669,o),
(360,646,q),
(360,622,o),
(392,590,o),
(416,590,q)
);
},
{
closed = 1;
nodes = (
(542,0,l),
(542,500,l),
(452,500,l),
(452,0,l)
);
},
{
closed = 1;
nodes = (
(381,-16,o),
(482,131,o),
(482,251,q),
(452,251,l),
(452,158,o),
(375,54,o),
(301,54,q),
(227,54,o),
(150,158,o),
(150,251,q),
(150,342,o),
(227,446,o),
(301,446,q),
(375,446,o),
(452,342,o),
(452,251,q),
(482,251,l),
(482,369,o),
(381,516,o),
(271,516,q),
(196,516,o),
(92,445,o),
(40,325,o),
(40,251,q),
(40,176,o),
(92,55,o),
(196,-16,o),
(271,-16,q)
);
},
{
closed = 1;
nodes = (
(484,20,l),
(542,0,l),
(583,0,o),
(625,0,o),
(667,0,q),
(684,0,o),
(700,0,q),
(700,50,l),
(652,70,l),
(621,70,o),
(591,70,o),
(559,70,q),
(534,70,o),
(510,70,o),
(484,70,q)
);
}
);
width = 602;
}
);
note = adieresis.init.004;
},
{
glyphname = adieresis.init.005;
layers = (
{
layerId = m01;
shapes = (
{
closed = 1;
nodes = (
(542,0,l),
(542,500,l),
(452,500,l),
(452,0,l)
);
},
{
closed = 1;
nodes = (
(381,-16,o),
(482,131,o),
(482,251,q),
(452,251,l),
(452,158,o),
(375,54,o),
(301,54,qs),
(227,54,o),
(150,158,o),
(150,251,qs),
(150,342,o),
(227,446,o),
(301,446,qs),
(375,446,o),
(452,342,o),
(452,251,q),
(482,251,l),
(482,369,o),
(381,516,o),
(271,516,qs),
(196,516,o),
(92,445,o),
(40,325,o),
(40,251,qs),
(40,176,o),
(92,55,o),
(196,-16,o),
(271,-16,qs)
);
},
{
closed = 1;
nodes = (
(662,620,l),
(672,660,l),
(662,700,l),
(211,700,ls),
(193,700,o),
(170,678,o),
(170,661,qs),
(170,643,o),
(193,620,o),
(211,620,qs)
);
}
);
width = 602;
},
{
layerId = "AA4DCE21-7FE4-4F03-915F-CE2C7C2CC948";
shapes = (
{
closed = 1;
nodes = (
(542,0,l),
(542,500,l),
(452,500,l),
(452,0,l)
);
},
{
closed = 1;
nodes = (
(381,-16,o),
(482,131,o),
(482,251,q),
(452,251,l),
(452,158,o),
(375,54,o),
(301,54,q),
(227,54,o),
(150,158,o),
(150,251,q),
(150,342,o),
(227,446,o),
(301,446,q),
(375,446,o),
(452,342,o),
(452,251,q),
(482,251,l),
(482,369,o),
(381,516,o),
(271,516,q),
(196,516,o),
(92,445,o),
(40,325,o),
(40,251,q),
(40,176,o),
(92,55,o),
(196,-16,o),
(271,-16,q)
);
},
{
closed = 1;
nodes = (
(662,620,l),
(672,660,l),
(662,700,l),
(211,700,l),
(193,700,o),
(170,678,o),
(170,661,q),
(170,643,o),
(193,620,o),
(211,620,q)
);
}
);
width = 602;
}
);
note = adieresis.init.005;
},
{
glyphname = adieresis.init.006;
layers = (
{
layerId = m01;
shapes = (
{
closed = 1;
nodes = (
(542,0,l),
(542,500,l),
(452,500,l),
(452,0,l)
);
},
{
closed = 1;
nodes = (
(381,-16,o),
(482,131,o),
(482,251,q),
(452,251,l),
(452,158,o),
(375,54,o),
(301,54,qs),
(227,54,o),
(150,158,o),
(150,251,qs),
(150,342,o),
(227,446,o),
(301,446,qs),
(375,446,o),
(452,342,o),
(452,251,q),
(482,251,l),
(482,369,o),
(381,516,o),
(271,516,qs),
(196,516,o),
(92,445,o),
(40,325,o),
(40,251,qs),
(40,176,o),
(92,55,o),
(196,-16,o),
(271,-16,qs)
);
},
{
closed = 1;
nodes = (
(602,620,l),
(612,660,l),
(602,700,l),
(211,700,ls),
(193,700,o),
(170,678,o),
(170,661,qs),
(170,643,o),
(193,620,o),
(211,620,qs)
);
}
);
width = 602;
},
{
layerId = "AA4DCE21-7FE4-4F03-915F-CE2C7C2CC948";
shapes = (
{
closed = 1;
nodes = (
(542,0,l),
(542,500,l),
(452,500,l),
(452,0,l)
);
},
{
closed = 1;
nodes = (
(381,-16,o),
(482,131,o),
(482,251,q),
(452,251,l),
(452,158,o),
(375,54,o),
(301,54,q),
(227,54,o),
(150,158,o),
(150,251,q),
(150,342,o),
(227,446,o),
(301,446,q),
(375,446,o),
(452,342,o),
(452,251,q),
(482,251,l),
(482,369,o),
(381,516,o),
(271,516,q),
(196,516,o),
(92,445,o),
(40,325,o),
(40,251,q),
(40,176,o),
(92,55,o),
(196,-16,o),
(271,-16,q)
);
},
{
closed = 1;
nodes = (
(602,620,l),
(612,660,l),
(602,700,l),
(211,700,l),
(193,700,o),
(170,678,o),
(170,661,q),
(170,643,o),
(193,620,o),
(211,620,q)
);
}
);
width = 602;
}
);
note = adieresis.init.006;
},
{
glyphname = aring.init.001;
layers = (
{
layerId = m01;
shapes = (
{
closed = 1;
nodes = (
(381,-16,o),
(482,131,o),
(482,251,q),
(452,251,l),
(452,158,o),
(375,54,o),
(301,54,qs),
(227,54,o),
(150,158,o),
(150,251,qs),
(150,342,o),
(227,446,o),
(301,446,qs),
(375,446,o),
(452,342,o),
(452,251,q),
(482,251,l),
(482,369,o),
(381,516,o),
(271,516,qs),
(196,516,o),
(92,445,o),
(40,325,o),
(40,251,qs),
(40,176,o),
(92,55,o),
(196,-16,o),
(271,-16,qs)
);
},
{
closed = 1;
nodes = (
(298,612,o),
(269,644,o),
(269,676,qs),
(269,706,o),
(298,737,o),
(323,737,qs),
(346,737,o),
(374,705,o),
(374,676,qs),
(374,645,o),
(346,612,o),
(323,612,qs)
);
},
{
closed = 1;
nodes = (
(370,572,o),
(434,632,o),
(434,676,qs),
(434,718,o),
(370,777,o),
(323,777,qs),
(274,777,o),
(209,718,o),
(209,676,qs),
(209,632,o),
(274,572,o),
(323,572,qs)
);
},
{
closed = 1;
nodes = (
(497,241,l),
(542,251,l),
(542,500,l),
(452,500,l),
(452,251,l)
);
},
{
closed = 1;
nodes = (
(662,0,l),
(672,35,l),
(662,70,l),
(646,70,ls),
(598,70,o),
(552,121,o),
(542,193,o),
(542,251,q),
(452,251,l),
(452,171,o),
(472,67,o),
(544,0,o),
(616,0,qs)
);
}
);
width = 602;
},
{
layerId = "AA4DCE21-7FE4-4F03-915F-CE2C7C2CC948";
shapes = (
{
closed = 1;
nodes = (
(381,-16,o),
(482,131,o),
(482,251,q),
(452,251,l),
(452,158,o),
(375,54,o),
(301,54,q),
(227,54,o),
(150,158,o),
(150,251,q),
(150,342,o),
(227,446,o),
(301,446,q),
(375,446,o),
(452,342,o),
(452,251,q),
(482,251,l),
(482,369,o),
(381,516,o),
(271,516,q),
(196,516,o),
(92,445,o),
(40,325,o),
(40,251,q),
(40,176,o),
(92,55,o),
(196,-16,o),
(271,-16,q)
);
},
{
closed = 1;
nodes = (
(298,612,o),
(269,644,o),
(269,676,q),
(269,706,o),
(298,737,o),
(323,737,q),
(346,737,o),
(374,705,o),
(374,676,q),
(374,645,o),
(346,612,o),
(323,612,q)
);
},
{
closed = 1;
nodes = (
(370,572,o),
(434,632,o),
(434,676,q),
(434,718,o),
(370,777,o),
(323,777,q),
(274,777,o),
(209,718,o),
(209,676,q),
(209,632,o),
(274,572,o),
(323,572,q)
);
},
{
closed = 1;
nodes = (
(497,241,l),
(542,251,l),
(542,500,l),
(452,500,l),
(452,251,l)
);
},
{
closed = 1;
nodes = (
(662,0,l),
(672,35,l),
(662,70,l),
(646,70,l),
(598,70,o),
(552,121,o),
(542,193,o),
(542,251,q),
(452,251,l),
(452,171,o),
(472,67,o),
(544,0,o),
(616,0,q)
);
}
);
width = 602;
}
);
note = aring.init.001;
},
{
glyphname = aring.init.002;
layers = (
{
layerId = m01;
shapes = (
{
closed = 1;
nodes = (
(381,-16,o),
(482,131,o),
(482,251,q),
(452,251,l),
(452,158,o),
(375,54,o),
(301,54,qs),
(227,54,o),
(150,158,o),
(150,251,qs),
(150,342,o),
(227,446,o),
(301,446,qs),
(375,446,o),
(452,342,o),
(452,251,q),
(482,251,l),
(482,369,o),
(381,516,o),
(271,516,qs),
(196,516,o),
(92,445,o),
(40,325,o),
(40,251,qs),
(40,176,o),
(92,55,o),
(196,-16,o),
(271,-16,qs)
);
},
{
closed = 1;
nodes = (
(298,612,o),
(269,644,o),
(269,676,qs),
(269,706,o),
(298,737,o),
(323,737,qs),
(346,737,o),
(374,705,o),
(374,676,qs),
(374,645,o),
(346,612,o),
(323,612,qs)
);
},
{
closed = 1;
nodes = (
(370,572,o),
(434,632,o),
(434,676,qs),
(434,718,o),
(370,777,o),
(323,777,qs),
(274,777,o),
(209,718,o),
(209,676,qs),
(209,632,o),
(274,572,o),
(323,572,qs)
);
},
{
closed = 1;
nodes = (
(497,241,l),
(542,251,l),
(542,500,l),
(452,500,l),
(452,251,l)
);
},
{
closed = 1;
nodes = (
(645,-16,o),
(692,106,o),
(692,181,qs),
(692,251,l),
(642,251,l),
(642,54,o),
(590,54,qs),
(560,54,o),
(542,163,o),
(542,251,q),
(452,251,l),
(452,166,o),
(465,58,o),
(516,-16,o),
(570,-16,qs)
);
}
);
width = 602;
},
{
layerId = "AA4DCE21-7FE4-4F03-915F-CE2C7C2CC948";
shapes = (
{
closed = 1;
nodes = (
(381,-16,o),
(482,131,o),
(482,251,q),
(452,251,l),
(452,158,o),
(375,54,o),
(301,54,q),
(227,54,o),
(150,158,o),
(150,251,q),
(150,342,o),
(227,446,o),
(301,446,q),
(375,446,o),
(452,342,o),
(452,251,q),
(482,251,l),
(482,369,o),
(381,516,o),
(271,516,q),
(196,516,o),
(92,445,o),
(40,325,o),
(40,251,q),
(40,176,o),
(92,55,o),
(196,-16,o),
(271,-16,q)
);
},
{
closed = 1;
nodes = (
(298,612,o),
(269,644,o),
(269,676,q),
(269,706,o),
(298,737,o),
(323,737,q),
(346,737,o),
(374,705,o),
(374,676,q),
(374,645,o),
(346,612,o),
(323,612,q)
);
},
{
closed = 1;
nodes = (
(370,572,o),
(434,632,o),
(434,676,q),
(434,718,o),
(370,777,o),
(323,777,q),
(274,777,o),
(209,718,o),
(209,676,q),
(209,632,o),
(274,572,o),
(323,572,q)
);
},
{
closed = 1;
nodes = (
(497,241,l),
(542,251,l),
(542,500,l),
(452,500,l),
(452,251,l)
);
},
{
closed = 1;
nodes = (
(610,-16,o),
(651,-16,o),
(692,-16,q),
(692,54,l),
(642,54,l),
(616,54,o),
(590,54,q),
(560,54,o),
(542,163,o),
(542,251,q),
(452,251,l),
(452,166,o),
(465,58,o),
(516,-16,o),
(570,-16,q)
);
}
);
width = 602;
}
);
note = aring.init.002;
},
{
glyphname = aring.init.003;
layers = (
{
layerId = m01;
shapes = (
{
closed = 1;
nodes = (
(298,612,o),
(269,644,o),
(269,676,qs),
(269,706,o),
(298,737,o),
(323,737,qs),
(346,737,o),
(374,705,o),
(374,676,qs),
(374,645,o),
(346,612,o),
(323,612,qs)
);
},
{
closed = 1;
nodes = (
(370,572,o),
(434,632,o),
(434,676,qs),
(434,718,o),
(370,777,o),
(323,777,qs),
(274,777,o),
(209,718,o),
(209,676,qs),
(209,632,o),
(274,572,o),
(323,572,qs)
);
},
{
closed = 1;
nodes = (
(542,0,l),
(542,500,l),
(452,500,l),
(452,0,l)
);
},
{
closed = 1;
nodes = (
(381,-16,o),
(482,131,o),
(482,251,q),
(452,251,l),
(452,158,o),
(375,54,o),
(301,54,qs),
(227,54,o),
(150,158,o),
(150,251,qs),
(150,342,o),
(227,446,o),
(301,446,qs),
(375,446,o),
(452,342,o),
(452,251,q),
(482,251,l),
(482,369,o),
(381,516,o),
(271,516,qs),
(196,516,o),
(92,445,o),
(40,325,o),
(40,251,qs),
(40,176,o),
(92,55,o),
(196,-16,o),
(271,-16,qs)
);
},
{
closed = 1;
nodes = (
(477,20,l),
(542,0,l),
(542,83,o),
(595,240,o),
(646,347,qs),
(685,430,o),
(700,470,q),
(700,480,l),
(642,500,l),
(619,439,o),
(578,352,qs),
(534,258,o),
(487,135,o),
(477,70,q)
);
}
);
width = 602;
},
{
layerId = "AA4DCE21-7FE4-4F03-915F-CE2C7C2CC948";
shapes = (
{
closed = 1;
nodes = (
(298,612,o),
(269,644,o),
(269,676,q),
(269,706,o),
(298,737,o),
(323,737,q),
(346,737,o),
(374,705,o),
(374,676,q),
(374,645,o),
(346,612,o),
(323,612,q)
);
},
{
closed = 1;
nodes = (
(370,572,o),
(434,632,o),
(434,676,q),
(434,718,o),
(370,777,o),
(323,777,q),
(274,777,o),
(209,718,o),
(209,676,q),
(209,632,o),
(274,572,o),
(323,572,q)
);
},
{
closed = 1;
nodes = (
(542,0,l),
(542,500,l),
(452,500,l),
(452,0,l)
);
},
{
closed = 1;
nodes = (
(381,-16,o),
(482,131,o),
(482,251,q),
(452,251,l),
(452,158,o),
(375,54,o),
(301,54,q),
(227,54,o),
(150,158,o),
(150,251,q),
(150,342,o),
(227,446,o),
(301,446,q),
(375,446,o),
(452,342,o),
(452,251,q),
(482,251,l),
(482,369,o),
(381,516,o),
(271,516,q),
(196,516,o),
(92,445,o),
(40,325,o),
(40,251,q),
(40,176,o),
(92,55,o),
(196,-16,o),
(271,-16,q)
);
},
{
closed = 1;
nodes = (
(477,20,l),
(542,0,l),
(584,0,o),
(626,0,o),
(669,0,q),
(685,0,o),
(700,0,q),
(700,20,l),
(642,70,l),
(619,70,o),
(596,70,q),
(557,70,o),
(517,70,o),
(477,70,q)
);
}
);
width = 602;
}
);
note = aring.init.003;
},
{
glyphname = aring.init.004;
layers = (
{
layerId = m01;
shapes = (
{
closed = 1;
nodes = (
(298,612,o),
(269,644,o),
(269,676,qs),
(269,706,o),
(298,737,o),
(323,737,qs),
(346,737,o),
(374,705,o),
(374,676,qs),
(374,645,o),
(346,612,o),
(323,612,qs)
);
},
{
closed = 1;
nodes = (
(370,572,o),
(434,632,o),
(434,676,qs),
(434,718,o),
(370,777,o),
(323,777,qs),
(274,777,o),
(209,718,o),
(209,676,qs),
(209,632,o),
(274,572,o),
(323,572,qs)
);
},
{
closed = 1;
nodes = (
(542,0,l),
(542,500,l),
(452,500,l),
(452,0,l)
);
},
{
closed = 1;
nodes = (
(381,-16,o),
(482,131,o),
(482,251,q),
(452,251,l),
(452,158,o),
(375,54,o),
(301,54,qs),
(227,54,o),
(150,158,o),
(150,251,qs),
(150,342,o),
(227,446,o),
(301,446,qs),
(375,446,o),
(452,342,o),
(452,251,q),
(482,251,l),
(482,369,o),
(381,516,o),
(271,516,qs),
(196,516,o),
(92,445,o),
(40,325,o),
(40,251,qs),
(40,176,o),
(92,55,o),
(196,-16,o),
(271,-16,qs)
);
},
{
closed = 1;
nodes = (
(484,20,l),
(542,0,l),
(542,54,o),
(596,157,o),
(646,227,qs),
(688,289,o),
(700,310,q),
(700,360,l),
(652,380,l),
(652,350,o),
(615,282,o),
(576,228,qs),
(540,178,o),
(497,107,o),
(484,70,q)
);
}
);
width = 602;
},
{
layerId = "AA4DCE21-7FE4-4F03-915F-CE2C7C2CC948";
shapes = (
{
closed = 1;
nodes = (
(298,612,o),
(269,644,o),
(269,676,q),
(269,706,o),
(298,737,o),
(323,737,q),
(346,737,o),
(374,705,o),
(374,676,q),
(374,645,o),
(346,612,o),
(323,612,q)
);
},
{
closed = 1;
nodes = (
(370,572,o),
(434,632,o),
(434,676,q),
(434,718,o),
(370,777,o),
(323,777,q),
(274,777,o),
(209,718,o),
(209,676,q),
(209,632,o),
(274,572,o),
(323,572,q)
);
},
{
closed = 1;
nodes = (
(542,0,l),
(542,500,l),
(452,500,l),
(452,0,l)
);
},
{
closed = 1;
nodes = (
(381,-16,o),
(482,131,o),
(482,251,q),
(452,251,l),
(452,158,o),
(375,54,o),
(301,54,q),
(227,54,o),
(150,158,o),
(150,251,q),
(150,342,o),
(227,446,o),
(301,446,q),
(375,446,o),
(452,342,o),
(452,251,q),
(482,251,l),
(482,369,o),
(381,516,o),
(271,516,q),
(196,516,o),
(92,445,o),
(40,325,o),
(40,251,q),
(40,176,o),
(92,55,o),
(196,-16,o),
(271,-16,q)
);
},
{
closed = 1;
nodes = (
(484,20,l),
(542,0,l),
(583,0,o),
(625,0,o),
(667,0,q),
(684,0,o),
(700,0,q),
(700,50,l),
(652,70,l),
(621,70,o),
(591,70,o),
(559,70,q),
(534,70,o),
(510,70,o),
(484,70,q)
);
}
);
width = 602;
}
);
note = aring.init.004;
},
{
glyphname = c.init.001;
layers = (
{
layerId = m01;
shapes = (
{
closed = 1;
nodes = (
(337,446,o),
(394,404,o),
(412,361,q),
(522,361,l),
(494,432,o),
(374,516,o),
(291,516,qs),
(215,516,o),
(101,445,o),
(40,324,o),
(40,251,qs),
(40,177,o),
(101,56,o),
(215,-16,o),
(291,-16,q),
(301,19,l),
(291,54,l),
(150,54,o),
(150,251,qs),
(150,344,o),
(219,446,o),
(291,446,qs)
);
},
{
closed = 1;
nodes = (
(291,-16,l),
(351,-16,o),
(449,-8,qs),
(553,0,o),
(622,0,q),
(632,35,l),
(622,70,l),
(535,70,o),
(411,60,qs),
(317,54,o),
(291,54,q)
);
}
);
width = 562;
},
{
layerId = "AA4DCE21-7FE4-4F03-915F-CE2C7C2CC948";
shapes = (
{
closed = 1;
nodes = (
(337,446,o),
(394,404,o),
(412,361,q),
(522,361,l),
(494,432,o),
(374,516,o),
(291,516,q),
(215,516,o),
(101,445,o),
(40,324,o),
(40,251,q),
(40,177,o),
(101,56,o),
(215,-16,o),
(291,-16,q),
(301,19,l),
(291,54,l),
(150,54,o),
(150,251,q),
(150,344,o),
(219,446,o),
(291,446,q)
);
},
{
closed = 1;
nodes = (
(291,-16,l),
(370,-16,o),
(449,-16,q),
(536,-16,o),
(622,-16,q),
(632,19,l),
(622,54,l),
(517,54,o),
(411,54,q),
(351,54,o),
(291,54,q)
);
}
);
width = 562;
}
);
note = c.init.001;
},
{
glyphname = c.init.002;
layers = (
{
layerId = m01;
shapes = (
{
closed = 1;
nodes = (
(337,446,o),
(394,404,o),
(412,361,q),
(522,361,l),
(494,432,o),
(374,516,o),
(291,516,qs),
(215,516,o),
(101,445,o),
(40,324,o),
(40,251,qs),
(40,175,o),
(109,55,o),
(258,-16,o),
(371,-16,q),
(381,19,l),
(371,54,l),
(284,54,o),
(187,101,o),
(150,186,o),
(150,251,qs),
(150,344,o),
(219,446,o),
(291,446,qs)
);
},
{
closed = 1;
nodes = (
(371,-16,l),
(457,-16,o),
(584,41,o),
(652,132,o),
(652,181,qs),
(652,251,l),
(602,251,l),
(602,150,o),
(495,54,o),
(371,54,q)
);
}
);
width = 562;
},
{
layerId = "AA4DCE21-7FE4-4F03-915F-CE2C7C2CC948";
shapes = (
{
closed = 1;
nodes = (
(337,446,o),
(394,404,o),
(412,361,q),
(522,361,l),
(494,432,o),
(374,516,o),
(291,516,q),
(215,516,o),
(101,445,o),
(40,324,o),
(40,251,q),
(40,175,o),
(109,55,o),
(258,-16,o),
(371,-16,q),
(381,19,l),
(371,54,l),
(284,54,o),
(187,101,o),
(150,186,o),
(150,251,q),
(150,344,o),
(219,446,o),
(291,446,q)
);
},
{
closed = 1;
nodes = (
(371,-16,l),
(441,-16,o),
(512,-16,o),
(582,-16,o),
(652,-16,q),
(652,54,l),
(602,54,l),
(526,54,o),
(450,54,o),
(371,54,q)
);
}
);
width = 562;
}
);
note = c.init.002;
},
{
glyphname = c.init.003;
layers = (
{
layerId = m01;
shapes = (
{
closed = 1;
nodes = (
(337,446,o),
(394,404,o),
(412,361,q),
(522,361,l),
(494,432,o),
(374,516,o),
(291,516,qs),
(215,516,o),
(101,445,o),
(40,324,o),
(40,251,qs),
(40,177,o),
(103,55,o),
(226,-16,o),
(311,-16,q),
(321,19,l),
(311,54,l),
(225,54,o),
(150,155,o),
(150,251,qs),
(150,344,o),
(219,446,o),
(291,446,qs)
);
},
{
closed = 1;
nodes = (
(311,-16,l),
(391,-16,o),
(518,51,o),
(563,113,qs),
(606,173,o),
(652,336,o),
(652,430,q),
(635,471,l),
(602,500,l),
(602,364,o),
(529,162,o),
(397,54,o),
(311,54,q)
);
}
);
width = 562;
},
{
layerId = "AA4DCE21-7FE4-4F03-915F-CE2C7C2CC948";
shapes = (
{
closed = 1;
nodes = (
(337,446,o),
(394,404,o),
(412,361,q),
(522,361,l),
(494,432,o),
(374,516,o),
(291,516,q),
(215,516,o),
(101,445,o),
(40,324,o),
(40,251,q),
(40,177,o),
(103,55,o),
(226,-16,o),
(311,-16,q),
(321,19,l),
(311,54,l),
(225,54,o),
(150,155,o),
(150,251,q),
(150,344,o),
(219,446,o),
(291,446,q)
);
},
{
closed = 1;
nodes = (
(311,-16,l),
(363,-16,o),
(446,-19,o),
(482,-21,q),
(518,-23,o),
(604,-26,o),
(652,-26,q),
(635,19,l),
(602,54,l),
(529,54,o),
(457,54,o),
(384,54,o),
(311,54,q)
);
}
);
width = 562;
}
);
note = c.init.003;
},
{
glyphname = c.init.004;
layers = (
{
layerId = m01;
shapes = (
{
closed = 1;
nodes = (
(337,446,o),
(394,404,o),
(412,361,q),
(522,361,l),
(494,432,o),
(374,516,o),
(291,516,qs),
(215,516,o),
(101,445,o),
(40,324,o),
(40,251,qs),
(40,178,o),
(101,56,o),
(215,-16,o),
(290,-16,q),
(303,18,l),
(297,54,l),
(150,54,o),
(150,251,qs),
(150,344,o),
(219,446,o),
(291,446,qs)
);
},
{
closed = 1;
nodes = (
(290,-16,l),
(379,-16,o),
(532,82,o),
(634,233,o),
(653,310,q),
(653,360,l),
(612,380,l),
(612,318,o),
(524,163,o),
(379,54,o),
(297,54,q)
);
}
);
width = 562;
},
{
layerId = "AA4DCE21-7FE4-4F03-915F-CE2C7C2CC948";
shapes = (
{
closed = 1;
nodes = (
(337,446,o),
(394,404,o),
(412,361,q),
(522,361,l),
(494,432,o),
(374,516,o),
(291,516,q),
(215,516,o),
(101,445,o),
(40,324,o),
(40,251,q),
(40,178,o),
(101,56,o),
(215,-16,o),
(290,-16,q),
(303,18,l),
(297,54,l),
(150,54,o),
(150,251,q),
(150,344,o),
(219,446,o),
(291,446,q)
);
},
{
closed = 1;
nodes = (
(290,-16,l),
(381,-16,o),
(472,-16,o),
(562,-16,o),
(653,-16,q),
(653,34,l),
(612,54,l),
(533,54,o),
(455,54,o),
(376,54,o),
(297,54,q)
);
}
);
width = 562;
}
);
note = c.init.004;
},
{
glyphname = d.init.001;
layers = (
{
layerId = m01;
shapes = (
{
closed = 1;
nodes = (
(381,-16,o),
(482,131,o),
(482,251,q),
(452,251,l),
(452,158,o),
(375,54,o),
(301,54,qs),
(227,54,o),
(150,158,o),
(150,251,qs),
(150,342,o),
(227,446,o),
(301,446,qs),
(375,446,o),
(452,342,o),
(452,251,q),
(482,251,l),
(482,369,o),
(381,516,o),
(271,516,qs),
(196,516,o),
(92,445,o),
(40,325,o),
(40,251,qs),
(40,176,o),
(92,55,o),
(196,-16,o),
(271,-16,qs)
);
},
{
closed = 1;
nodes = (
(497,241,l),
(542,251,l),
(542,800,l),
(452,800,l),
(452,251,l)
);
},
{
closed = 1;
nodes = (
(662,0,l),
(672,35,l),
(662,70,l),
(646,70,ls),
(598,70,o),
(552,121,o),
(542,193,o),
(542,251,q),
(452,251,l),
(452,171,o),
(472,67,o),
(544,0,o),
(616,0,qs)
);
}
);
width = 602;
},
{
layerId = "AA4DCE21-7FE4-4F03-915F-CE2C7C2CC948";
shapes = (
{
closed = 1;
nodes = (
(381,-16,o),
(482,131,o),
(482,251,q),
(452,251,l),
(452,158,o),
(375,54,o),
(301,54,q),
(227,54,o),
(150,158,o),
(150,251,q),
(150,342,o),
(227,446,o),
(301,446,q),
(375,446,o),
(452,342,o),
(452,251,q),
(482,251,l),
(482,369,o),
(381,516,o),
(271,516,q),
(196,516,o),
(92,445,o),
(40,325,o),
(40,251,q),
(40,176,o),
(92,55,o),
(196,-16,o),
(271,-16,q)
);
},
{
closed = 1;
nodes = (
(497,241,l),
(542,251,l),
(542,800,l),
(452,800,l),
(452,251,l)
);
},
{
closed = 1;
nodes = (
(662,0,l),
(672,35,l),
(662,70,l),
(646,70,l),
(598,70,o),
(552,121,o),
(542,193,o),
(542,251,q),
(452,251,l),
(452,171,o),
(472,67,o),
(544,0,o),
(616,0,q)
);
}
);
width = 602;
}
);
note = d.init.001;
},
{
glyphname = d.init.002;
layers = (
{
layerId = m01;
shapes = (
{
closed = 1;
nodes = (
(381,-16,o),
(482,131,o),
(482,251,q),
(452,251,l),
(452,158,o),
(375,54,o),
(301,54,qs),
(227,54,o),
(150,158,o),
(150,251,qs),
(150,342,o),
(227,446,o),
(301,446,qs),
(375,446,o),
(452,342,o),
(452,251,q),
(482,251,l),
(482,369,o),
(381,516,o),
(271,516,qs),
(196,516,o),
(92,445,o),
(40,325,o),
(40,251,qs),
(40,176,o),
(92,55,o),
(196,-16,o),
(271,-16,qs)
);
},
{
closed = 1;
nodes = (
(497,241,l),
(542,251,l),
(542,800,l),
(452,800,l),
(452,251,l)
);
},
{
closed = 1;
nodes = (
(645,-16,o),
(692,106,o),
(692,181,qs),
(692,251,l),
(642,251,l),
(642,54,o),
(590,54,qs),
(560,54,o),
(542,163,o),
(542,251,q),
(452,251,l),
(452,166,o),
(465,58,o),
(516,-16,o),
(570,-16,qs)
);
}
);
width = 602;
},
{
layerId = "AA4DCE21-7FE4-4F03-915F-CE2C7C2CC948";
shapes = (
{
closed = 1;
nodes = (
(381,-16,o),
(482,131,o),
(482,251,q),
(452,251,l),
(452,158,o),
(375,54,o),
(301,54,q),
(227,54,o),
(150,158,o),
(150,251,q),
(150,342,o),
(227,446,o),
(301,446,q),
(375,446,o),
(452,342,o),
(452,251,q),
(482,251,l),
(482,369,o),
(381,516,o),
(271,516,q),
(196,516,o),
(92,445,o),
(40,325,o),
(40,251,q),
(40,176,o),
(92,55,o),
(196,-16,o),
(271,-16,q)
);
},
{
closed = 1;
nodes = (
(497,241,l),
(542,251,l),
(542,800,l),
(452,800,l),
(452,251,l)
);
},
{
closed = 1;
nodes = (
(610,-16,o),
(651,-16,o),
(692,-16,q),
(692,54,l),
(642,54,l),
(616,54,o),
(590,54,q),
(560,54,o),
(542,163,o),
(542,251,q),
(452,251,l),
(452,166,o),
(465,58,o),
(516,-16,o),
(570,-16,q)
);
}
);
width = 602;
}
);
note = d.init.002;
},
{
glyphname = e.init.001;
layers = (
{
layerId = m01;
shapes = (
{
closed = 1;
nodes = (
(442,251,l),
(442,321,l),
(140,321,l),
(140,251,l)
);
},
{
closed = 1;
nodes = (
(363,446,o),
(432,344,o),
(432,251,q),
(512,251,l),
(512,367,o),
(402,516,o),
(291,516,qs),
(215,516,o),
(101,445,o),
(40,324,o),
(40,251,qs),
(40,177,o),
(101,56,o),
(215,-16,o),
(291,-16,q),
(301,19,l),
(291,54,l),
(150,54,o),
(150,251,qs),
(150,344,o),
(219,446,o),
(291,446,qs)
);
},
{
closed = 1;
nodes = (
(291,-16,l),
(351,-16,o),
(449,-8,qs),
(553,0,o),
(622,0,q),
(632,35,l),
(622,70,l),
(535,70,o),
(411,60,qs),
(317,54,o),
(291,54,q)
);
}
);
width = 562;
},
{
layerId = "AA4DCE21-7FE4-4F03-915F-CE2C7C2CC948";
shapes = (
{
closed = 1;
nodes = (
(442,251,l),
(442,321,l),
(140,321,l),
(140,251,l)
);
},
{
closed = 1;
nodes = (
(363,446,o),
(432,344,o),
(432,251,q),
(512,251,l),
(512,367,o),
(402,516,o),
(291,516,q),
(215,516,o),
(101,445,o),
(40,324,o),
(40,251,q),
(40,177,o),
(101,56,o),
(215,-16,o),
(291,-16,q),
(301,19,l),
(291,54,l),
(150,54,o),
(150,251,q),
(150,344,o),
(219,446,o),
(291,446,q)
);
},
{
closed = 1;
nodes = (
(291,-16,l),
(370,-16,o),
(449,-16,q),
(536,-16,o),
(622,-16,q),
(632,19,l),
(622,54,l),
(517,54,o),
(411,54,q),
(351,54,o),
(291,54,q)
);
}
);
width = 562;
}
);
note = e.init.001;
},
{
glyphname = e.init.002;
layers = (
{
layerId = m01;
shapes = (
{
closed = 1;
nodes = (
(442,251,l),
(442,321,l),
(140,321,l),
(140,251,l)
);
},
{
closed = 1;
nodes = (
(363,446,o),
(432,344,o),
(432,251,q),
(512,251,l),
(512,367,o),
(402,516,o),
(291,516,qs),
(215,516,o),
(101,445,o),
(40,324,o),
(40,251,qs),
(40,175,o),
(109,55,o),
(258,-16,o),
(371,-16,q),
(381,19,l),
(371,54,l),
(284,54,o),
(187,101,o),
(150,186,o),
(150,251,qs),
(150,344,o),
(219,446,o),
(291,446,qs)
);
},
{
closed = 1;
nodes = (
(371,-16,l),
(457,-16,o),
(584,41,o),
(652,132,o),
(652,181,qs),
(652,251,l),
(602,251,l),
(602,150,o),
(495,54,o),
(371,54,q)
);
}
);
width = 562;
},
{
layerId = "AA4DCE21-7FE4-4F03-915F-CE2C7C2CC948";
shapes = (
{
closed = 1;
nodes = (
(442,251,l),
(442,321,l),
(140,321,l),
(140,251,l)
);
},
{
closed = 1;
nodes = (
(363,446,o),
(432,344,o),
(432,251,q),
(512,251,l),
(512,367,o),
(402,516,o),
(291,516,q),
(215,516,o),
(101,445,o),
(40,324,o),
(40,251,q),
(40,175,o),
(109,55,o),
(258,-16,o),
(371,-16,q),
(381,19,l),
(371,54,l),
(284,54,o),
(187,101,o),
(150,186,o),
(150,251,q),
(150,344,o),
(219,446,o),
(291,446,q)
);
},
{
closed = 1;
nodes = (
(371,-16,l),
(441,-16,o),
(512,-16,o),
(582,-16,o),
(652,-16,q),
(652,54,l),
(602,54,l),
(526,54,o),
(450,54,o),
(371,54,q)
);
}
);
width = 562;
}
);
note = e.init.002;
},
{
glyphname = e.init.003;
layers = (
{
layerId = m01;
shapes = (
{
closed = 1;
nodes = (
(442,251,l),
(442,321,l),
(140,321,l),
(140,251,l)
);
},
{
closed = 1;
nodes = (
(363,446,o),
(432,344,o),
(432,251,q),
(512,251,l),
(512,367,o),
(402,516,o),
(291,516,qs),
(215,516,o),
(101,445,o),
(40,324,o),
(40,251,qs),
(40,177,o),
(103,55,o),
(226,-16,o),
(311,-16,q),
(321,19,l),
(311,54,l),
(225,54,o),
(150,155,o),
(150,251,qs),
(150,344,o),
(219,446,o),
(291,446,qs)
);
},
{
closed = 1;
nodes = (
(311,-16,l),
(391,-16,o),
(518,51,o),
(563,113,qs),
(606,173,o),
(652,336,o),
(652,430,q),
(635,471,l),
(602,500,l),
(602,364,o),
(529,162,o),
(397,54,o),
(311,54,q)
);
}
);
width = 562;
},
{
layerId = "AA4DCE21-7FE4-4F03-915F-CE2C7C2CC948";
shapes = (
{
closed = 1;
nodes = (
(442,251,l),
(442,321,l),
(140,321,l),
(140,251,l)
);
},
{
closed = 1;
nodes = (
(363,446,o),
(432,344,o),
(432,251,q),
(512,251,l),
(512,367,o),
(402,516,o),
(291,516,q),
(215,516,o),
(101,445,o),
(40,324,o),
(40,251,q),
(40,177,o),
(103,55,o),
(226,-16,o),
(311,-16,q),
(321,19,l),
(311,54,l),
(225,54,o),
(150,155,o),
(150,251,q),
(150,344,o),
(219,446,o),
(291,446,q)
);
},
{
closed = 1;
nodes = (
(311,-16,l),
(363,-16,o),
(446,-19,o),
(482,-21,q),
(518,-23,o),
(604,-26,o),
(652,-26,q),
(635,19,l),
(602,54,l),
(529,54,o),
(457,54,o),
(384,54,o),
(311,54,q)
);
}
);
width = 562;
}
);
note = e.init.003;
},
{
glyphname = e.init.004;
layers = (
{
layerId = m01;
shapes = (
{
closed = 1;
nodes = (
(442,251,l),
(442,321,l),
(140,321,l),
(140,251,l)
);
},
{
closed = 1;
nodes = (
(363,446,o),
(432,344,o),
(432,251,q),
(512,251,l),
(512,367,o),
(402,516,o),
(291,516,qs),
(215,516,o),
(101,445,o),
(40,324,o),
(40,251,qs),
(40,178,o),
(101,56,o),
(215,-16,o),
(290,-16,q),
(303,18,l),
(297,54,l),
(150,54,o),
(150,251,qs),
(150,344,o),
(219,446,o),
(291,446,qs)
);
},
{
closed = 1;
nodes = (
(290,-16,l),
(379,-16,o),
(532,82,o),
(634,233,o),
(653,310,q),
(653,360,l),
(612,380,l),
(612,318,o),
(524,163,o),
(379,54,o),
(297,54,q)
);
}
);
width = 562;
},
{
layerId = "AA4DCE21-7FE4-4F03-915F-CE2C7C2CC948";
shapes = (
{
closed = 1;
nodes = (
(442,251,l),
(442,321,l),
(140,321,l),
(140,251,l)
);
},
{
closed = 1;
nodes = (
(363,446,o),
(432,344,o),
(432,251,q),
(512,251,l),
(512,367,o),
(402,516,o),
(291,516,q),
(215,516,o),
(101,445,o),
(40,324,o),
(40,251,q),
(40,178,o),
(101,56,o),
(215,-16,o),
(290,-16,q),
(303,18,l),
(297,54,l),
(150,54,o),
(150,251,q),
(150,344,o),
(219,446,o),
(291,446,q)
);
},
{
closed = 1;
nodes = (
(290,-16,l),
(381,-16,o),
(472,-16,o),
(562,-16,o),
(653,-16,q),
(653,34,l),
(612,54,l),
(533,54,o),
(455,54,o),
(376,54,o),
(297,54,q)
);
}
);
width = 562;
}
);
note = e.init.004;
},
{
glyphname = f.init.001;
layers = (
{
layerId = m01;
shapes = (
{
closed = 1;
nodes = (
(60,0,l),
(150,0,l),
(150,620,ls),
(150,678,o),
(159,725,o),
(200,746,o),
(250,746,q),
(250,816,l),
(162,816,o),
(79,760,o),
(60,682,o),
(60,620,qs)
);
},
{
closed = 1;
nodes = (
(350,430,l),
(360,465,l),
(350,500,l),
(105,500,l),
(105,430,l)
);
}
);
width = 290;
},
{
layerId = "AA4DCE21-7FE4-4F03-915F-CE2C7C2CC948";
shapes = (
{
closed = 1;
nodes = (
(60,0,l),
(150,0,l),
(150,620,l),
(150,678,o),
(159,725,o),
(200,746,o),
(250,746,q),
(250,816,l),
(162,816,o),
(79,760,o),
(60,682,o),
(60,620,q)
);
},
{
closed = 1;
nodes = (
(350,430,l),
(360,465,l),
(350,500,l),
(105,500,l),
(105,430,l)
);
}
);
width = 290;
}
);
note = f.init.001;
},
{
glyphname = f.init.002;
layers = (
{
layerId = m01;
shapes = (
{
closed = 1;
nodes = (
(60,0,l),
(150,0,l),
(150,620,ls),
(150,678,o),
(159,725,o),
(200,746,o),
(250,746,q),
(250,816,l),
(162,816,o),
(79,760,o),
(60,682,o),
(60,620,qs)
);
},
{
closed = 1;
nodes = (
(105,430,l),
(197,430,o),
(343,438,qs),
(489,446,o),
(581,446,q),
(581,516,l),
(489,516,o),
(343,508,qs),
(197,500,o),
(105,500,q)
);
}
);
width = 290;
},
{
layerId = "AA4DCE21-7FE4-4F03-915F-CE2C7C2CC948";
shapes = (
{
closed = 1;
nodes = (
(60,0,l),
(150,0,l),
(150,620,l),
(150,678,o),
(159,725,o),
(200,746,o),
(250,746,q),
(250,816,l),
(162,816,o),
(79,760,o),
(60,682,o),
(60,620,q)
);
},
{
closed = 1;
nodes = (
(105,430,l),
(224,430,o),
(343,430,q),
(462,430,o),
(581,430,q),
(581,500,l),
(462,500,o),
(343,500,q),
(224,500,o),
(105,500,q)
);
}
);
width = 290;
}
);
note = f.init.002;
},
{
glyphname = f.init.003;
layers = (
{
layerId = m01;
shapes = (
{
closed = 1;
nodes = (
(60,0,l),
(150,0,l),
(150,620,ls),
(150,678,o),
(159,725,o),
(200,746,o),
(250,746,q),
(250,816,l),
(162,816,o),
(79,760,o),
(60,682,o),
(60,620,qs)
);
},
{
closed = 1;
nodes = (
(154,430,o),
(214,425,qs),
(242,423,o),
(304,420,o),
(330,420,qs),
(383,420,l),
(365,466,l),
(330,500,l),
(105,500,l),
(105,430,l)
);
}
);
width = 290;
},
{
layerId = "AA4DCE21-7FE4-4F03-915F-CE2C7C2CC948";
shapes = (
{
closed = 1;
nodes = (
(60,0,l),
(150,0,l),
(150,620,l),
(150,678,o),
(159,725,o),
(200,746,o),
(250,746,q),
(250,816,l),
(162,816,o),
(79,760,o),
(60,682,o),
(60,620,q)
);
},
{
closed = 1;
nodes = (
(154,430,o),
(214,425,q),
(242,423,o),
(304,420,o),
(330,420,q),
(383,420,l),
(365,466,l),
(330,500,l),
(105,500,l),
(105,430,l)
);
}
);
width = 290;
}
);
note = f.init.003;
},
{
glyphname = f.init.004;
layers = (
{
layerId = m01;
shapes = (
{
closed = 1;
nodes = (
(60,0,l),
(150,0,l),
(150,620,ls),
(150,678,o),
(159,725,o),
(200,746,o),
(250,746,q),
(250,816,l),
(162,816,o),
(79,760,o),
(60,682,o),
(60,620,qs)
);
},
{
closed = 1;
nodes = (
(194,430,o),
(300,439,qs),
(338,441,o),
(419,446,o),
(452,446,q),
(462,481,l),
(452,516,l),
(419,516,o),
(338,511,o),
(300,509,qs),
(194,500,o),
(105,500,q),
(95,465,l),
(105,430,l)
);
}
);
width = 290;
},
{
layerId = "AA4DCE21-7FE4-4F03-915F-CE2C7C2CC948";
shapes = (
{
closed = 1;
nodes = (
(60,0,l),
(150,0,l),
(150,620,l),
(150,678,o),
(159,725,o),
(200,746,o),
(250,746,q),
(250,816,l),
(162,816,o),
(79,760,o),
(60,682,o),
(60,620,q)
);
},
{
closed = 1;
nodes = (
(211,430,o),
(316,430,q),
(361,430,o),
(406,430,o),
(452,430,q),
(462,465,l),
(452,500,l),
(407,500,o),
(362,500,o),
(316,500,q),
(211,500,o),
(105,500,q),
(95,465,l),
(105,430,l)
);
}
);
width = 290;
}
);
note = f.init.004;
},
{
glyphname = f.init.005;
layers = (
{
layerId = m01;
shapes = (
{
closed = 1;
nodes = (
(60,0,l),
(150,0,l),
(150,620,ls),
(150,678,o),
(159,725,o),
(200,746,o),
(250,746,q),
(250,816,l),
(162,816,o),
(79,760,o),
(60,682,o),
(60,620,qs)
);
},
{
closed = 1;
nodes = (
(245,430,l),
(255,465,l),
(245,500,l),
(105,500,l),
(95,465,l),
(105,430,l)
);
}
);
width = 290;
},
{
layerId = "AA4DCE21-7FE4-4F03-915F-CE2C7C2CC948";
shapes = (
{
closed = 1;
nodes = (
(60,0,l),
(150,0,l),
(150,620,l),
(150,678,o),
(159,725,o),
(200,746,o),
(250,746,q),
(250,816,l),
(162,816,o),
(79,760,o),
(60,682,o),
(60,620,q)
);
},
{
closed = 1;
nodes = (
(245,430,l),
(255,465,l),
(245,500,l),
(105,500,l),
(95,465,l),
(105,430,l)
);
}
);
width = 290;
}
);
note = f.init.005;
},
{
glyphname = g.init.001;
layers = (
{
layerId = m01;
shapes = (
{
closed = 1;
nodes = (
(381,-16,o),
(482,131,o),
(482,251,q),
(452,251,l),
(452,158,o),
(375,54,o),
(301,54,qs),
(227,54,o),
(150,158,o),
(150,251,qs),
(150,342,o),
(227,446,o),
(301,446,qs),
(375,446,o),
(452,342,o),
(452,251,q),
(482,251,l),
(482,369,o),
(381,516,o),
(271,516,qs),
(196,516,o),
(92,445,o),
(40,325,o),
(40,251,qs),
(40,176,o),
(92,55,o),
(196,-16,o),
(271,-16,qs)
);
},
{
closed = 1;
nodes = (
(70,-101,l),
(70,-198,o),
(168,-316,o),
(296,-316,qs),
(410,-316,o),
(517,-222,o),
(542,-95,o),
(542,0,qs),
(542,500,l),
(452,500,l),
(452,0,ls),
(452,-72,o),
(436,-171,o),
(368,-246,o),
(297,-246,qs),
(222,-246,o),
(150,-164,o),
(150,-101,q)
);
},
{
closed = 1;
nodes = (
(475,314,l),
(537,314,l),
(544,368,o),
(600,430,o),
(662,430,q),
(672,465,l),
(662,500,l),
(521,500,o),
(475,384,q)
);
}
);
width = 602;
},
{
layerId = "AA4DCE21-7FE4-4F03-915F-CE2C7C2CC948";
shapes = (
{
closed = 1;
nodes = (
(381,-16,o),
(482,131,o),
(482,251,q),
(452,251,l),
(452,158,o),
(375,54,o),
(301,54,q),
(227,54,o),
(150,158,o),
(150,251,q),
(150,342,o),
(227,446,o),
(301,446,q),
(375,446,o),
(452,342,o),
(452,251,q),
(482,251,l),
(482,369,o),
(381,516,o),
(271,516,q),
(196,516,o),
(92,445,o),
(40,325,o),
(40,251,q),
(40,176,o),
(92,55,o),
(196,-16,o),
(271,-16,q)
);
},
{
closed = 1;
nodes = (
(70,-101,l),
(70,-198,o),
(168,-316,o),
(296,-316,q),
(410,-316,o),
(517,-222,o),
(542,-95,o),
(542,0,q),
(542,500,l),
(452,500,l),
(452,0,l),
(452,-72,o),
(436,-171,o),
(368,-246,o),
(297,-246,q),
(222,-246,o),
(150,-164,o),
(150,-101,q)
);
},
{
closed = 1;
nodes = (
(523,-116,l),
(537,-116,l),
(578,-116,o),
(620,-116,o),
(662,-116,q),
(672,-81,l),
(662,-46,l),
(569,-46,o),
(475,-46,q)
);
}
);
width = 602;
},
{
associatedMasterId = m01;
layerId = "96A883B1-6E3E-4EAC-BACC-1F99E52E8779";
name = "{0}";
shapes = (
{
closed = 1;
nodes = (
(381,-16,o),
(482,131,o),
(482,251,q),
(452,251,l),
(452,158,o),
(375,54,o),
(301,54,q),
(227,54,o),
(150,158,o),
(150,251,q),
(150,342,o),
(227,446,o),
(301,446,q),
(375,446,o),
(452,342,o),
(452,251,q),
(482,251,l),
(482,369,o),
(381,516,o),
(271,516,q),
(196,516,o),
(92,445,o),
(40,325,o),
(40,251,q),
(40,176,o),
(92,55,o),
(196,-16,o),
(271,-16,q)
);
},
{
closed = 1;
nodes = (
(70,-101,l),
(70,-198,o),
(168,-316,o),
(296,-316,q),
(410,-316,o),
(517,-222,o),
(542,-95,o),
(542,0,q),
(542,500,l),
(452,500,l),
(452,0,l),
(452,-72,o),
(436,-171,o),
(368,-246,o),
(297,-246,q),
(222,-246,o),
(150,-164,o),
(150,-101,q)
);
},
{
closed = 1;
nodes = (
(475,-116,l),
(537,-116,l),
(544,-62,o),
(600,0,o),
(662,0,q),
(672,35,l),
(662,70,l),
(521,70,o),
(475,-46,q)
);
}
);
width = 602;
}
);
note = g.init.001;
},
{
glyphname = g.init.002;
layers = (
{
layerId = m01;
shapes = (
{
closed = 1;
nodes = (
(381,-16,o),
(482,131,o),
(482,251,q),
(452,251,l),
(452,158,o),
(375,54,o),
(301,54,qs),
(227,54,o),
(150,158,o),
(150,251,qs),
(150,342,o),
(227,446,o),
(301,446,qs),
(375,446,o),
(452,342,o),
(452,251,q),
(482,251,l),
(482,369,o),
(381,516,o),
(271,516,qs),
(196,516,o),
(92,445,o),
(40,325,o),
(40,251,qs),
(40,176,o),
(92,55,o),
(196,-16,o),
(271,-16,qs)
);
},
{
closed = 1;
nodes = (
(70,-101,l),
(70,-198,o),
(168,-316,o),
(296,-316,qs),
(410,-316,o),
(517,-222,o),
(542,-95,o),
(542,0,qs),
(542,500,l),
(452,500,l),
(452,0,ls),
(452,-72,o),
(436,-171,o),
(368,-246,o),
(297,-246,qs),
(222,-246,o),
(150,-164,o),
(150,-101,q)
);
},
{
closed = 1;
nodes = (
(480,20,l),
(542,0,l),
(542,37,o),
(587,82,o),
(631,107,qs),
(665,128,o),
(701,159,o),
(705,181,q),
(705,231,l),
(642,251,l),
(642,212,o),
(590,159,o),
(543,129,qs),
(512,109,o),
(483,85,o),
(480,70,q)
);
}
);
width = 602;
},
{
layerId = "AA4DCE21-7FE4-4F03-915F-CE2C7C2CC948";
shapes = (
{
closed = 1;
nodes = (
(381,-16,o),
(482,131,o),
(482,251,q),
(452,251,l),
(452,158,o),
(375,54,o),
(301,54,q),
(227,54,o),
(150,158,o),
(150,251,q),
(150,342,o),
(227,446,o),
(301,446,q),
(375,446,o),
(452,342,o),
(452,251,q),
(482,251,l),
(482,369,o),
(381,516,o),
(271,516,q),
(196,516,o),
(92,445,o),
(40,325,o),
(40,251,q),
(40,176,o),
(92,55,o),
(196,-16,o),
(271,-16,q)
);
},
{
closed = 1;
nodes = (
(70,-101,l),
(70,-198,o),
(168,-316,o),
(296,-316,q),
(410,-316,o),
(517,-222,o),
(542,-95,o),
(542,0,q),
(542,500,l),
(452,500,l),
(452,0,l),
(452,-72,o),
(436,-171,o),
(368,-246,o),
(297,-246,q),
(222,-246,o),
(150,-164,o),
(150,-101,q)
);
},
{
closed = 1;
nodes = (
(480,20,l),
(542,0,l),
(573,0,o),
(604,0,o),
(636,0,q),
(659,0,o),
(682,0,o),
(705,0,q),
(705,50,l),
(642,70,l),
(608,70,o),
(573,70,o),
(538,70,q),
(519,70,o),
(500,70,o),
(480,70,q)
);
}
);
width = 602;
}
);
note = g.init.002;
},
{
glyphname = h.init.001;
layers = (
{
layerId = m01;
shapes = (
{
closed = 1;
nodes = (
(447,241,l),
(492,251,l),
(492,344,o),
(477,448,o),
(410,516,o),
(338,516,qs),
(223,516,o),
(120,370,o),
(120,251,q),
(150,251,l),
(150,347,o),
(213,446,o),
(291,446,qs),
(344,446,o),
(391,401,o),
(402,326,o),
(402,251,q)
);
},
{
closed = 1;
nodes = (
(150,0,l),
(150,800,l),
(60,800,l),
(60,0,l)
);
},
{
closed = 1;
nodes = (
(602,0,l),
(612,35,l),
(602,70,l),
(596,70,ls),
(548,70,o),
(502,121,o),
(492,193,o),
(492,251,q),
(402,251,l),
(402,165,o),
(418,67,o),
(489,0,o),
(566,0,qs)
);
}
);
width = 542;
},
{
layerId = "AA4DCE21-7FE4-4F03-915F-CE2C7C2CC948";
shapes = (
{
closed = 1;
nodes = (
(447,241,l),
(492,251,l),
(492,344,o),
(477,448,o),
(410,516,o),
(338,516,q),
(223,516,o),
(120,370,o),
(120,251,q),
(150,251,l),
(150,347,o),
(213,446,o),
(291,446,q),
(344,446,o),
(391,401,o),
(402,326,o),
(402,251,q)
);
},
{
closed = 1;
nodes = (
(150,0,l),
(150,800,l),
(60,800,l),
(60,0,l)
);
},
{
closed = 1;
nodes = (
(602,0,l),
(612,35,l),
(602,70,l),
(596,70,l),
(548,70,o),
(502,121,o),
(492,193,o),
(492,251,q),
(402,251,l),
(402,165,o),
(418,67,o),
(489,0,o),
(566,0,q)
);
}
);
width = 542;
}
);
note = h.init.001;
},
{
glyphname = h.init.002;
layers = (
{
layerId = m01;
shapes = (
{
closed = 1;
nodes = (
(447,241,l),
(492,251,l),
(492,344,o),
(477,448,o),
(410,516,o),
(338,516,qs),
(223,516,o),
(120,370,o),
(120,251,q),
(150,251,l),
(150,347,o),
(213,446,o),
(291,446,qs),
(344,446,o),
(391,401,o),
(402,326,o),
(402,251,q)
);
},
{
closed = 1;
nodes = (
(150,0,l),
(150,800,l),
(60,800,l),
(60,0,l)
);
},
{
closed = 1;
nodes = (
(569,-16,o),
(620,51,o),
(632,132,o),
(632,181,qs),
(632,251,l),
(582,251,l),
(582,159,o),
(567,54,o),
(537,54,qs),
(507,54,o),
(492,159,o),
(492,251,q),
(402,251,l),
(402,164,o),
(413,58,o),
(463,-16,o),
(517,-16,qs)
);
}
);
width = 542;
},
{
layerId = "AA4DCE21-7FE4-4F03-915F-CE2C7C2CC948";
shapes = (
{
closed = 1;
nodes = (
(447,241,l),
(492,251,l),
(492,344,o),
(477,448,o),
(410,516,o),
(338,516,q),
(223,516,o),
(120,370,o),
(120,251,q),
(150,251,l),
(150,347,o),
(213,446,o),
(291,446,q),
(344,446,o),
(391,401,o),
(402,326,o),
(402,251,q)
);
},
{
closed = 1;
nodes = (
(150,0,l),
(150,800,l),
(60,800,l),
(60,0,l)
);
},
{
closed = 1;
nodes = (
(546,-16,o),
(575,-16,o),
(603,-16,o),
(632,-16,q),
(632,54,l),
(582,54,l),
(567,54,o),
(552,54,o),
(537,54,q),
(507,54,o),
(492,159,o),
(492,251,q),
(402,251,l),
(402,164,o),
(413,58,o),
(463,-16,o),
(517,-16,q)
);
}
);
width = 542;
}
);
note = h.init.002;
},
{
glyphname = i.init.001;
layers = (
{
layerId = m01;
shapes = (
{
closed = 1;
nodes = (
(150,0,l),
(150,500,l),
(60,500,l),
(60,0,l)
);
},
{
closed = 1;
nodes = (
(129,590,o),
(160,622,o),
(160,646,qs),
(160,669,o),
(129,700,o),
(106,700,qs),
(82,700,o),
(50,669,o),
(50,646,qs),
(50,622,o),
(82,590,o),
(106,590,qs)
);
},
{
closed = 1;
nodes = (
(270,430,l),
(280,465,l),
(270,500,l),
(150,500,l),
(140,465,l),
(150,430,l)
);
}
);
width = 210;
},
{
layerId = "AA4DCE21-7FE4-4F03-915F-CE2C7C2CC948";
shapes = (
{
closed = 1;
nodes = (
(150,0,l),
(150,500,l),
(60,500,l),
(60,0,l)
);
},
{
closed = 1;
nodes = (
(129,590,o),
(160,622,o),
(160,646,q),
(160,669,o),
(129,700,o),
(106,700,q),
(82,700,o),
(50,669,o),
(50,646,q),
(50,622,o),
(82,590,o),
(106,590,q)
);
},
{
closed = 1;
nodes = (
(270,430,l),
(280,465,l),
(270,500,l),
(150,500,l),
(140,465,l),
(150,430,l)
);
}
);
width = 210;
}
);
note = i.init.001;
},
{
glyphname = i.init.002;
layers = (
{
layerId = m01;
shapes = (
{
closed = 1;
nodes = (
(150,0,l),
(150,500,l),
(60,500,l),
(60,0,l)
);
},
{
closed = 1;
nodes = (
(129,590,o),
(160,622,o),
(160,646,qs),
(160,669,o),
(129,700,o),
(106,700,qs),
(82,700,o),
(50,669,o),
(50,646,qs),
(50,622,o),
(82,590,o),
(106,590,qs)
);
},
{
closed = 1;
nodes = (
(210,430,o),
(328,438,qs),
(446,446,o),
(506,446,q),
(516,481,l),
(506,516,l),
(473,516,o),
(387,511,o),
(346,509,qs),
(236,500,o),
(150,500,q),
(140,465,l),
(150,430,l)
);
}
);
width = 210;
},
{
layerId = "AA4DCE21-7FE4-4F03-915F-CE2C7C2CC948";
shapes = (
{
closed = 1;
nodes = (
(150,0,l),
(150,500,l),
(60,500,l),
(60,0,l)
);
},
{
closed = 1;
nodes = (
(129,590,o),
(160,622,o),
(160,646,q),
(160,669,o),
(129,700,o),
(106,700,q),
(82,700,o),
(50,669,o),
(50,646,q),
(50,622,o),
(82,590,o),
(106,590,q)
);
},
{
closed = 1;
nodes = (
(239,430,o),
(328,430,q),
(417,430,o),
(506,430,q),
(516,465,l),
(506,500,l),
(453,500,o),
(400,500,o),
(346,500,q),
(248,500,o),
(150,500,q),
(140,465,l),
(150,430,l)
);
}
);
width = 210;
}
);
note = i.init.002;
},
{
glyphname = i.init.003;
layers = (
{
layerId = m01;
shapes = (
{
closed = 1;
nodes = (
(150,0,l),
(150,500,l),
(60,500,l),
(60,0,l)
);
},
{
closed = 1;
nodes = (
(129,590,o),
(160,622,o),
(160,646,qs),
(160,669,o),
(129,700,o),
(106,700,qs),
(82,700,o),
(50,669,o),
(50,646,qs),
(50,622,o),
(82,590,o),
(106,590,qs)
);
},
{
closed = 1;
nodes = (
(303,420,l),
(285,466,l),
(250,500,l),
(150,500,l),
(140,460,l),
(150,420,l)
);
}
);
width = 210;
},
{
layerId = "AA4DCE21-7FE4-4F03-915F-CE2C7C2CC948";
shapes = (
{
closed = 1;
nodes = (
(150,0,l),
(150,500,l),
(60,500,l),
(60,0,l)
);
},
{
closed = 1;
nodes = (
(129,590,o),
(160,622,o),
(160,646,q),
(160,669,o),
(129,700,o),
(106,700,q),
(82,700,o),
(50,669,o),
(50,646,q),
(50,622,o),
(82,590,o),
(106,590,q)
);
},
{
closed = 1;
nodes = (
(303,420,l),
(285,466,l),
(250,500,l),
(150,500,l),
(140,460,l),
(150,420,l)
);
}
);
width = 210;
}
);
note = i.init.003;
},
{
glyphname = i.init.005;
layers = (
{
layerId = m01;
shapes = (
{
closed = 1;
nodes = (
(150,0,l),
(150,500,l),
(60,500,l),
(60,0,l)
);
},
{
closed = 1;
nodes = (
(270,620,l),
(280,660,l),
(270,700,l),
(91,700,ls),
(73,700,o),
(50,678,o),
(50,661,qs),
(50,643,o),
(73,620,o),
(91,620,qs)
);
}
);
width = 210;
},
{
layerId = "AA4DCE21-7FE4-4F03-915F-CE2C7C2CC948";
shapes = (
{
closed = 1;
nodes = (
(150,0,l),
(150,500,l),
(60,500,l),
(60,0,l)
);
},
{
closed = 1;
nodes = (
(270,620,l),
(280,660,l),
(270,700,l),
(91,700,l),
(73,700,o),
(50,678,o),
(50,661,q),
(50,643,o),
(73,620,o),
(91,620,q)
);
}
);
width = 210;
}
);
note = i.init.005;
},
{
glyphname = i.init.006;
layers = (
{
layerId = m01;
shapes = (
{
closed = 1;
nodes = (
(150,0,l),
(150,500,l),
(60,500,l),
(60,0,l)
);
},
{
closed = 1;
nodes = (
(210,620,l),
(220,660,l),
(210,700,l),
(91,700,ls),
(73,700,o),
(50,678,o),
(50,661,qs),
(50,643,o),
(73,620,o),
(91,620,qs)
);
}
);
width = 210;
},
{
layerId = "AA4DCE21-7FE4-4F03-915F-CE2C7C2CC948";
shapes = (
{
closed = 1;
nodes = (
(150,0,l),
(150,500,l),
(60,500,l),
(60,0,l)
);
},
{
closed = 1;
nodes = (
(210,620,l),
(220,660,l),
(210,700,l),
(91,700,l),
(73,700,o),
(50,678,o),
(50,661,q),
(50,643,o),
(73,620,o),
(91,620,q)
);
}
);
width = 210;
}
);
note = i.init.006;
},
{
glyphname = j.init.005;
layers = (
{
layerId = m01;
shapes = (
{
closed = 1;
nodes = (
(150,-300,l),
(150,500,l),
(60,500,l),
(60,-300,l)
);
},
{
closed = 1;
nodes = (
(270,620,l),
(280,660,l),
(270,700,l),
(91,700,ls),
(73,700,o),
(50,678,o),
(50,661,qs),
(50,643,o),
(73,620,o),
(91,620,qs)
);
}
);
width = 210;
},
{
layerId = "AA4DCE21-7FE4-4F03-915F-CE2C7C2CC948";
shapes = (
{
closed = 1;
nodes = (
(150,-300,l),
(150,500,l),
(60,500,l),
(60,-300,l)
);
},
{
closed = 1;
nodes = (
(270,620,l),
(280,660,l),
(270,700,l),
(91,700,l),
(73,700,o),
(50,678,o),
(50,661,q),
(50,643,o),
(73,620,o),
(91,620,q)
);
}
);
width = 210;
}
);
note = j.init.005;
},
{
glyphname = j.init.006;
layers = (
{
layerId = m01;
shapes = (
{
closed = 1;
nodes = (
(150,-300,l),
(150,500,l),
(60,500,l),
(60,-300,l)
);
},
{
closed = 1;
nodes = (
(210,620,l),
(220,660,l),
(210,700,l),
(91,700,ls),
(73,700,o),
(50,678,o),
(50,661,qs),
(50,643,o),
(73,620,o),
(91,620,qs)
);
}
);
width = 210;
},
{
layerId = "AA4DCE21-7FE4-4F03-915F-CE2C7C2CC948";
shapes = (
{
closed = 1;
nodes = (
(150,-300,l),
(150,500,l),
(60,500,l),
(60,-300,l)
);
},
{
closed = 1;
nodes = (
(210,620,l),
(220,660,l),
(210,700,l),
(91,700,l),
(73,700,o),
(50,678,o),
(50,661,q),
(50,643,o),
(73,620,o),
(91,620,q)
);
}
);
width = 210;
}
);
note = j.init.006;
},
{
glyphname = k.init.001;
layers = (
{
layerId = m01;
shapes = (
{
closed = 1;
nodes = (
(150,0,l),
(150,800,l),
(60,800,l),
(60,0,l)
);
},
{
closed = 1;
nodes = (
(150,200,l),
(416,500,l),
(306,500,l),
(70,200,l)
);
},
{
closed = 1;
nodes = (
(566,0,l),
(576,35,l),
(566,70,l),
(550,70,ls),
(484,70,o),
(405,98,o),
(354,147,o),
(315,199,qs),
(238,300,l),
(158,300,l),
(247,158,ls),
(289,92,o),
(343,32,o),
(436,0,o),
(520,0,qs)
);
}
);
width = 506;
},
{
layerId = "AA4DCE21-7FE4-4F03-915F-CE2C7C2CC948";
shapes = (
{
closed = 1;
nodes = (
(150,0,l),
(150,800,l),
(60,800,l),
(60,0,l)
);
},
{
closed = 1;
nodes = (
(150,200,l),
(416,500,l),
(306,500,l),
(70,200,l)
);
},
{
closed = 1;
nodes = (
(566,0,l),
(576,35,l),
(566,70,l),
(550,70,l),
(484,70,o),
(405,98,o),
(354,147,o),
(315,199,q),
(238,300,l),
(158,300,l),
(247,158,l),
(289,92,o),
(343,32,o),
(436,0,o),
(520,0,q)
);
}
);
width = 506;
}
);
note = k.init.001;
},
{
glyphname = k.init.002;
layers = (
{
layerId = m01;
shapes = (
{
closed = 1;
nodes = (
(150,0,l),
(150,800,l),
(60,800,l),
(60,0,l)
);
},
{
closed = 1;
nodes = (
(150,200,l),
(416,500,l),
(306,500,l),
(70,200,l)
);
},
{
closed = 1;
nodes = (
(533,-16,o),
(591,88,o),
(595,181,qs),
(595,231,l),
(546,251,l),
(546,191,o),
(539,112,o),
(509,54,o),
(477,54,qs),
(442,54,o),
(374,121,o),
(315,199,qs),
(238,300,l),
(158,300,l),
(247,158,l),
(247,158,l),
(290,90,o),
(341,23,o),
(407,-16,o),
(454,-16,qs)
);
}
);
width = 506;
},
{
layerId = "AA4DCE21-7FE4-4F03-915F-CE2C7C2CC948";
shapes = (
{
closed = 1;
nodes = (
(150,0,l),
(150,800,l),
(60,800,l),
(60,0,l)
);
},
{
closed = 1;
nodes = (
(150,200,l),
(416,500,l),
(306,500,l),
(70,200,l)
);
},
{
closed = 1;
nodes = (
(501,-16,o),
(547,-16,o),
(595,-16,q),
(595,34,l),
(546,54,l),
(529,54,o),
(512,54,o),
(494,54,o),
(477,54,q),
(442,54,o),
(374,121,o),
(315,199,q),
(238,300,l),
(158,300,l),
(247,158,l),
(247,158,l),
(290,90,o),
(341,23,o),
(407,-16,o),
(454,-16,q)
);
}
);
width = 506;
}
);
note = k.init.002;
},
{
glyphname = k.init.003;
layers = (
{
layerId = m01;
shapes = (
{
closed = 1;
nodes = (
(150,0,l),
(150,800,l),
(60,800,l),
(60,0,l)
);
},
{
closed = 1;
nodes = (
(150,200,l),
(416,500,l),
(306,500,l),
(70,200,l)
);
},
{
closed = 1;
nodes = (
(466,0,l),
(238,300,l),
(158,300,l),
(346,0,l)
);
},
{
closed = 1;
nodes = (
(401,20,l),
(466,0,l),
(466,57,o),
(499,154,o),
(532,222,qs),
(567,296,o),
(603,403,o),
(604,470,qs),
(604,480,l),
(546,500,l),
(546,434,o),
(508,325,o),
(469,248,qs),
(440,191,o),
(408,113,o),
(401,70,q)
);
}
);
width = 506;
},
{
layerId = "AA4DCE21-7FE4-4F03-915F-CE2C7C2CC948";
shapes = (
{
closed = 1;
nodes = (
(150,0,l),
(150,800,l),
(60,800,l),
(60,0,l)
);
},
{
closed = 1;
nodes = (
(150,200,l),
(416,500,l),
(306,500,l),
(70,200,l)
);
},
{
closed = 1;
nodes = (
(466,0,l),
(238,300,l),
(158,300,l),
(346,0,l)
);
},
{
closed = 1;
nodes = (
(401,20,l),
(466,0,l),
(488,0,o),
(510,0,o),
(533,0,q),
(556,0,o),
(580,0,o),
(604,0,q),
(604,50,l),
(546,70,l),
(517,70,o),
(489,70,o),
(459,70,q),
(440,70,o),
(421,70,o),
(401,70,q)
);
}
);
width = 506;
}
);
note = k.init.003;
},
{
glyphname = k.init.004;
layers = (
{
layerId = m01;
shapes = (
{
closed = 1;
nodes = (
(150,0,l),
(150,800,l),
(60,800,l),
(60,0,l)
);
},
{
closed = 1;
nodes = (
(150,200,l),
(416,500,l),
(306,500,l),
(70,200,l)
);
},
{
closed = 1;
nodes = (
(466,0,l),
(238,300,l),
(158,300,l),
(346,0,l)
);
},
{
closed = 1;
nodes = (
(408,20,l),
(466,0,l),
(466,59,o),
(516,167,o),
(564,243,qs),
(604,310,l),
(604,360,l),
(556,380,l),
(556,349,o),
(523,281,o),
(487,222,qs),
(456,172,o),
(420,106,o),
(408,70,q)
);
}
);
width = 506;
},
{
layerId = "AA4DCE21-7FE4-4F03-915F-CE2C7C2CC948";
shapes = (
{
closed = 1;
nodes = (
(150,0,l),
(150,800,l),
(60,800,l),
(60,0,l)
);
},
{
closed = 1;
nodes = (
(150,200,l),
(416,500,l),
(306,500,l),
(70,200,l)
);
},
{
closed = 1;
nodes = (
(466,0,l),
(238,300,l),
(158,300,l),
(346,0,l)
);
},
{
closed = 1;
nodes = (
(408,20,l),
(466,0,l),
(505,0,o),
(544,0,o),
(584,0,q),
(604,0,l),
(604,50,l),
(556,70,l),
(528,70,o),
(499,70,o),
(470,70,q),
(450,70,o),
(429,70,o),
(408,70,q)
);
}
);
width = 506;
}
);
note = k.init.004;
},
{
glyphname = l.init.001;
layers = (
{
layerId = m01;
shapes = (
{
closed = 1;
nodes = (
(150,0,l),
(150,800,l),
(60,800,l),
(60,0,l)
);
},
{
closed = 1;
nodes = (
(270,549,l),
(280,584,l),
(270,619,l),
(254,619,ls),
(206,619,o),
(160,670,o),
(150,742,o),
(150,800,q),
(60,800,l),
(60,720,o),
(80,616,o),
(152,549,o),
(224,549,qs)
);
}
);
width = 210;
},
{
layerId = "AA4DCE21-7FE4-4F03-915F-CE2C7C2CC948";
shapes = (
{
closed = 1;
nodes = (
(150,0,l),
(150,800,l),
(60,800,l),
(60,251,l)
);
},
{
closed = 1;
nodes = (
(270,0,l),
(280,35,l),
(270,70,l),
(254,70,l),
(206,70,o),
(160,121,o),
(150,193,o),
(150,251,q),
(60,251,l),
(60,171,o),
(80,67,o),
(152,0,o),
(224,0,q)
);
}
);
width = 210;
},
{
associatedMasterId = m01;
layerId = "C5151000-C42F-42C8-93D2-C786128F8C69";
name = "{0}";
shapes = (
{
closed = 1;
nodes = (
(150,0,l),
(150,800,l),
(60,800,l),
(60,0,l)
);
},
{
closed = 1;
nodes = (
(270,0,l),
(280,35,l),
(270,70,l),
(254,70,l),
(206,70,o),
(160,121,o),
(150,193,o),
(150,251,q),
(60,251,l),
(60,171,o),
(80,67,o),
(152,0,o),
(224,0,q)
);
}
);
width = 210;
},
{
associatedMasterId = m01;
layerId = "45F52B0E-7DDD-408C-B7F0-440F81D50B63";
name = "{31}";
shapes = (
{
closed = 1;
nodes = (
(150,0,l),
(150,800,l),
(60,800,l),
(60,251,l)
);
},
{
closed = 1;
nodes = (
(270,0,l),
(280,35,l),
(270,70,l),
(254,70,l),
(206,70,o),
(160,121,o),
(150,193,o),
(150,251,q),
(60,251,l),
(60,171,o),
(80,67,o),
(152,0,o),
(224,0,q)
);
}
);
width = 210;
}
);
note = l.init.001;
},
{
glyphname = l.init.002;
layers = (
{
layerId = m01;
shapes = (
{
closed = 1;
nodes = (
(150,0,l),
(150,800,l),
(60,800,l),
(60,0,l)
);
},
{
closed = 1;
nodes = (
(218,730,o),
(284,793,o),
(300,869,o),
(300,911,qs),
(300,961,l),
(250,981,l),
(250,923,o),
(240,851,o),
(196,800,o),
(150,800,q),
(140,765,l),
(150,730,l)
);
}
);
width = 210;
},
{
layerId = "AA4DCE21-7FE4-4F03-915F-CE2C7C2CC948";
shapes = (
{
closed = 1;
nodes = (
(150,0,l),
(150,800,l),
(60,800,l),
(60,0,l)
);
},
{
closed = 1;
nodes = (
(176.417,-63,o),
(225,0,o),
(263,0,o),
(300,0,q),
(300,50,l),
(250,70,l),
(225,70,o),
(200,70,o),
(175,70,o),
(129,70,q),
(119,-28,l),
(150,0,l)
);
}
);
width = 210;
},
{
associatedMasterId = m01;
layerId = "940A342C-04D5-4B2B-81A8-4D8C2E8D08BF";
name = "{0}";
shapes = (
{
closed = 1;
nodes = (
(150,0,l),
(150,800,l),
(60,800,l),
(60,0,l)
);
},
{
closed = 1;
nodes = (
(218,0,o),
(284,63,o),
(300,139,o),
(300,181,q),
(300,231,l),
(250,251,l),
(250,193,o),
(240,121,o),
(196,70,o),
(150,70,q),
(140,35,l),
(150,0,l)
);
}
);
width = 210;
}
);
note = l.init.002;
},
{
glyphname = m.init.001;
layers = (
{
layerId = m01;
shapes = (
{
closed = 1;
nodes = (
(402,0,l),
(492,0,l),
(492,251,ls),
(492,344,o),
(477,448,o),
(410,516,o),
(338,516,qs),
(223,516,o),
(120,370,o),
(120,251,q),
(150,251,l),
(150,347,o),
(213,446,o),
(291,446,qs),
(344,446,o),
(391,401,o),
(402,326,o),
(402,251,qs)
);
},
{
closed = 1;
nodes = (
(150,0,l),
(150,500,l),
(60,500,l),
(60,0,l)
);
},
{
closed = 1;
nodes = (
(789,241,l),
(834,251,l),
(834,344,o),
(819,448,o),
(752,516,o),
(680,516,qs),
(565,516,o),
(462,370,o),
(462,251,q),
(492,251,l),
(492,347,o),
(555,446,o),
(633,446,qs),
(686,446,o),
(733,401,o),
(744,326,o),
(744,251,q)
);
},
{
closed = 1;
nodes = (
(944,0,l),
(954,35,l),
(944,70,l),
(938,70,ls),
(890,70,o),
(844,121,o),
(834,193,o),
(834,251,q),
(744,251,l),
(744,165,o),
(760,67,o),
(831,0,o),
(908,0,qs)
);
}
);
width = 884;
},
{
layerId = "AA4DCE21-7FE4-4F03-915F-CE2C7C2CC948";
shapes = (
{
closed = 1;
nodes = (
(402,0,l),
(492,0,l),
(492,251,l),
(492,344,o),
(477,448,o),
(410,516,o),
(338,516,q),
(223,516,o),
(120,370,o),
(120,251,q),
(150,251,l),
(150,347,o),
(213,446,o),
(291,446,q),
(344,446,o),
(391,401,o),
(402,326,o),
(402,251,q)
);
},
{
closed = 1;
nodes = (
(150,0,l),
(150,500,l),
(60,500,l),
(60,0,l)
);
},
{
closed = 1;
nodes = (
(789,241,l),
(834,251,l),
(834,344,o),
(819,448,o),
(752,516,o),
(680,516,q),
(565,516,o),
(462,370,o),
(462,251,q),
(492,251,l),
(492,347,o),
(555,446,o),
(633,446,q),
(686,446,o),
(733,401,o),
(744,326,o),
(744,251,q)
);
},
{
closed = 1;
nodes = (
(944,0,l),
(954,35,l),
(944,70,l),
(938,70,l),
(890,70,o),
(844,121,o),
(834,193,o),
(834,251,q),
(744,251,l),
(744,165,o),
(760,67,o),
(831,0,o),
(908,0,q)
);
}
);
width = 884;
}
);
note = m.init.001;
},
{
glyphname = m.init.002;
layers = (
{
layerId = m01;
shapes = (
{
closed = 1;
nodes = (
(402,0,l),
(492,0,l),
(492,251,ls),
(492,344,o),
(477,448,o),
(410,516,o),
(338,516,qs),
(223,516,o),
(120,370,o),
(120,251,q),
(150,251,l),
(150,347,o),
(213,446,o),
(291,446,qs),
(344,446,o),
(391,401,o),
(402,326,o),
(402,251,qs)
);
},
{
closed = 1;
nodes = (
(150,0,l),
(150,500,l),
(60,500,l),
(60,0,l)
);
},
{
closed = 1;
nodes = (
(789,241,l),
(834,251,l),
(834,344,o),
(819,448,o),
(752,516,o),
(680,516,qs),
(565,516,o),
(462,370,o),
(462,251,q),
(492,251,l),
(492,347,o),
(555,446,o),
(633,446,qs),
(686,446,o),
(733,401,o),
(744,326,o),
(744,251,q)
);
},
{
closed = 1;
nodes = (
(911,-16,o),
(962,51,o),
(974,132,o),
(974,181,qs),
(974,251,l),
(924,251,l),
(924,159,o),
(909,54,o),
(879,54,qs),
(849,54,o),
(834,159,o),
(834,251,q),
(744,251,l),
(744,164,o),
(755,58,o),
(805,-16,o),
(859,-16,qs)
);
}
);
width = 884;
},
{
layerId = "AA4DCE21-7FE4-4F03-915F-CE2C7C2CC948";
shapes = (
{
closed = 1;
nodes = (
(402,0,l),
(492,0,l),
(492,251,l),
(492,344,o),
(477,448,o),
(410,516,o),
(338,516,q),
(223,516,o),
(120,370,o),
(120,251,q),
(150,251,l),
(150,347,o),
(213,446,o),
(291,446,q),
(344,446,o),
(391,401,o),
(402,326,o),
(402,251,q)
);
},
{
closed = 1;
nodes = (
(150,0,l),
(150,500,l),
(60,500,l),
(60,0,l)
);
},
{
closed = 1;
nodes = (
(789,241,l),
(834,251,l),
(834,344,o),
(819,448,o),
(752,516,o),
(680,516,q),
(565,516,o),
(462,370,o),
(462,251,q),
(492,251,l),
(492,347,o),
(555,446,o),
(633,446,q),
(686,446,o),
(733,401,o),
(744,326,o),
(744,251,q)
);
},
{
closed = 1;
nodes = (
(888,-16,o),
(917,-16,o),
(945,-16,o),
(974,-16,q),
(974,54,l),
(924,54,l),
(909,54,o),
(894,54,o),
(879,54,q),
(849,54,o),
(834,159,o),
(834,251,q),
(744,251,l),
(744,164,o),
(755,58,o),
(805,-16,o),
(859,-16,q)
);
}
);
width = 884;
}
);
note = m.init.002;
},
{
glyphname = n.init.001;
layers = (
{
layerId = m01;
shapes = (
{
closed = 1;
nodes = (
(150,0,l),
(150,500,l),
(60,500,l),
(60,0,l)
);
},
{
closed = 1;
nodes = (
(447,241,l),
(492,251,l),
(492,344,o),
(477,448,o),
(410,516,o),
(338,516,qs),
(223,516,o),
(120,370,o),
(120,251,q),
(150,251,l),
(150,347,o),
(213,446,o),
(291,446,qs),
(344,446,o),
(391,401,o),
(402,326,o),
(402,251,q)
);
},
{
closed = 1;
nodes = (
(602,0,l),
(612,35,l),
(602,70,l),
(596,70,ls),
(548,70,o),
(502,121,o),
(492,193,o),
(492,251,q),
(402,251,l),
(402,165,o),
(418,67,o),
(489,0,o),
(566,0,qs)
);
}
);
width = 542;
},
{
layerId = "AA4DCE21-7FE4-4F03-915F-CE2C7C2CC948";
shapes = (
{
closed = 1;
nodes = (
(150,0,l),
(150,500,l),
(60,500,l),
(60,0,l)
);
},
{
closed = 1;
nodes = (
(447,241,l),
(492,251,l),
(492,344,o),
(477,448,o),
(410,516,o),
(338,516,q),
(223,516,o),
(120,370,o),
(120,251,q),
(150,251,l),
(150,347,o),
(213,446,o),
(291,446,q),
(344,446,o),
(391,401,o),
(402,326,o),
(402,251,q)
);
},
{
closed = 1;
nodes = (
(602,0,l),
(612,35,l),
(602,70,l),
(596,70,l),
(548,70,o),
(502,121,o),
(492,193,o),
(492,251,q),
(402,251,l),
(402,165,o),
(418,67,o),
(489,0,o),
(566,0,q)
);
}
);
width = 542;
}
);
note = n.init.001;
},
{
glyphname = n.init.002;
layers = (
{
layerId = m01;
shapes = (
{
closed = 1;
nodes = (
(150,0,l),
(150,500,l),
(60,500,l),
(60,0,l)
);
},
{
closed = 1;
nodes = (
(447,241,l),
(492,251,l),
(492,344,o),
(477,448,o),
(410,516,o),
(338,516,qs),
(223,516,o),
(120,370,o),
(120,251,q),
(150,251,l),
(150,347,o),
(213,446,o),
(291,446,qs),
(344,446,o),
(391,401,o),
(402,326,o),
(402,251,q)
);
},
{
closed = 1;
nodes = (
(569,-16,o),
(620,51,o),
(632,132,o),
(632,181,qs),
(632,251,l),
(582,251,l),
(582,159,o),
(567,54,o),
(537,54,qs),
(507,54,o),
(492,159,o),
(492,251,q),
(402,251,l),
(402,164,o),
(413,58,o),
(463,-16,o),
(517,-16,qs)
);
}
);
width = 542;
},
{
layerId = "AA4DCE21-7FE4-4F03-915F-CE2C7C2CC948";
shapes = (
{
closed = 1;
nodes = (
(150,0,l),
(150,500,l),
(60,500,l),
(60,0,l)
);
},
{
closed = 1;
nodes = (
(447,241,l),
(492,251,l),
(492,344,o),
(477,448,o),
(410,516,o),
(338,516,q),
(223,516,o),
(120,370,o),
(120,251,q),
(150,251,l),
(150,347,o),
(213,446,o),
(291,446,q),
(344,446,o),
(391,401,o),
(402,326,o),
(402,251,q)
);
},
{
closed = 1;
nodes = (
(546,-16,o),
(575,-16,o),
(603,-16,o),
(632,-16,q),
(632,54,l),
(582,54,l),
(567,54,o),
(552,54,o),
(537,54,q),
(507,54,o),
(492,159,o),
(492,251,q),
(402,251,l),
(402,164,o),
(413,58,o),
(463,-16,o),
(517,-16,q)
);
}
);
width = 542;
}
);
note = n.init.002;
},
{
glyphname = odieresis.init.005;
layers = (
{
layerId = m01;
shapes = (
{
closed = 1;
nodes = (
(217,54,o),
(140,158,o),
(140,251,qs),
(140,342,o),
(217,446,o),
(291,446,qs),
(365,446,o),
(442,342,o),
(442,251,qs),
(442,158,o),
(365,54,o),
(291,54,qs)
);
},
{
closed = 1;
nodes = (
(367,-16,o),
(481,56,o),
(542,177,o),
(542,251,qs),
(542,324,o),
(481,445,o),
(367,516,o),
(291,516,qs),
(215,516,o),
(101,445,o),
(40,324,o),
(40,251,qs),
(40,177,o),
(101,56,o),
(215,-16,o),
(291,-16,qs)
);
},
{
closed = 1;
nodes = (
(642,620,l),
(652,660,l),
(642,700,l),
(181,700,ls),
(163,700,o),
(140,678,o),
(140,661,qs),
(140,643,o),
(163,620,o),
(181,620,qs)
);
}
);
width = 582;
},
{
layerId = "AA4DCE21-7FE4-4F03-915F-CE2C7C2CC948";
shapes = (
{
closed = 1;
nodes = (
(217,54,o),
(140,158,o),
(140,251,q),
(140,342,o),
(217,446,o),
(291,446,q),
(365,446,o),
(442,342,o),
(442,251,q),
(442,158,o),
(365,54,o),
(291,54,q)
);
},
{
closed = 1;
nodes = (
(367,-16,o),
(481,56,o),
(542,177,o),
(542,251,q),
(542,324,o),
(481,445,o),
(367,516,o),
(291,516,q),
(215,516,o),
(101,445,o),
(40,324,o),
(40,251,q),
(40,177,o),
(101,56,o),
(215,-16,o),
(291,-16,q)
);
},
{
closed = 1;
nodes = (
(642,620,l),
(652,660,l),
(642,700,l),
(181,700,l),
(163,700,o),
(140,678,o),
(140,661,q),
(140,643,o),
(163,620,o),
(181,620,q)
);
}
);
width = 582;
}
);
note = odieresis.init.005;
},
{
glyphname = odieresis.init.006;
layers = (
{
layerId = m01;
shapes = (
{
closed = 1;
nodes = (
(217,54,o),
(140,158,o),
(140,251,qs),
(140,342,o),
(217,446,o),
(291,446,qs),
(365,446,o),
(442,342,o),
(442,251,qs),
(442,158,o),
(365,54,o),
(291,54,qs)
);
},
{
closed = 1;
nodes = (
(367,-16,o),
(481,56,o),
(542,177,o),
(542,251,qs),
(542,324,o),
(481,445,o),
(367,516,o),
(291,516,qs),
(215,516,o),
(101,445,o),
(40,324,o),
(40,251,qs),
(40,177,o),
(101,56,o),
(215,-16,o),
(291,-16,qs)
);
},
{
closed = 1;
nodes = (
(582,620,l),
(592,660,l),
(582,700,l),
(181,700,ls),
(163,700,o),
(140,678,o),
(140,661,qs),
(140,643,o),
(163,620,o),
(181,620,qs)
);
}
);
width = 582;
},
{
layerId = "AA4DCE21-7FE4-4F03-915F-CE2C7C2CC948";
shapes = (
{
closed = 1;
nodes = (
(217,54,o),
(140,158,o),
(140,251,q),
(140,342,o),
(217,446,o),
(291,446,q),
(365,446,o),
(442,342,o),
(442,251,q),
(442,158,o),
(365,54,o),
(291,54,q)
);
},
{
closed = 1;
nodes = (
(367,-16,o),
(481,56,o),
(542,177,o),
(542,251,q),
(542,324,o),
(481,445,o),
(367,516,o),
(291,516,q),
(215,516,o),
(101,445,o),
(40,324,o),
(40,251,q),
(40,177,o),
(101,56,o),
(215,-16,o),
(291,-16,q)
);
},
{
closed = 1;
nodes = (
(582,620,l),
(592,660,l),
(582,700,l),
(181,700,l),
(163,700,o),
(140,678,o),
(140,661,q),
(140,643,o),
(163,620,o),
(181,620,q)
);
}
);
width = 582;
}
);
note = odieresis.init.006;
},
{
glyphname = r.init.001;
layers = (
{
layerId = m01;
shapes = (
{
closed = 1;
nodes = (
(150,0,l),
(150,500,l),
(60,500,l),
(60,0,l)
);
},
{
closed = 1;
nodes = (
(438,420,l),
(448,460,l),
(438,500,l),
(341,500,ls),
(296,500,o),
(202,472,o),
(120,355,o),
(120,235,q),
(150,225,l),
(150,315,o),
(204,400,o),
(277,420,o),
(331,420,qs)
);
}
);
width = 378;
},
{
layerId = "AA4DCE21-7FE4-4F03-915F-CE2C7C2CC948";
shapes = (
{
closed = 1;
nodes = (
(150,0,l),
(150,500,l),
(60,500,l),
(60,0,l)
);
},
{
closed = 1;
nodes = (
(438,420,l),
(448,460,l),
(438,500,l),
(341,500,l),
(296,500,o),
(202,472,o),
(120,355,o),
(120,235,q),
(150,225,l),
(150,315,o),
(204,400,o),
(277,420,o),
(331,420,q)
);
}
);
width = 378;
}
);
note = r.init.001;
},
{
glyphname = r.init.002;
layers = (
{
layerId = m01;
shapes = (
{
closed = 1;
nodes = (
(150,0,l),
(150,500,l),
(60,500,l),
(60,0,l)
);
},
{
closed = 1;
nodes = (
(364,436,o),
(454,440,qs),
(570,446,o),
(669,446,q),
(669,516,l),
(341,516,ls),
(224,516,o),
(120,370,o),
(120,251,q),
(150,241,l),
(150,315,o),
(185,399,o),
(263,436,o),
(331,436,qs)
);
}
);
width = 378;
},
{
layerId = "AA4DCE21-7FE4-4F03-915F-CE2C7C2CC948";
shapes = (
{
closed = 1;
nodes = (
(150,0,l),
(150,500,l),
(60,500,l),
(60,0,l)
);
},
{
closed = 1;
nodes = (
(364,436,o),
(454,440,q),
(570,446,o),
(669,446,q),
(669,516,l),
(341,516,l),
(224,516,o),
(120,370,o),
(120,251,q),
(150,241,l),
(150,315,o),
(185,399,o),
(263,436,o),
(331,436,q)
);
}
);
width = 378;
}
);
note = r.init.002;
},
{
glyphname = r.init.003;
layers = (
{
layerId = m01;
shapes = (
{
closed = 1;
nodes = (
(150,0,l),
(150,500,l),
(60,500,l),
(60,0,l)
);
},
{
closed = 1;
nodes = (
(471,420,l),
(453,466,l),
(418,500,l),
(341,500,ls),
(296,500,o),
(202,472,o),
(120,355,o),
(120,235,q),
(150,225,l),
(150,315,o),
(204,400,o),
(277,420,o),
(331,420,qs)
);
}
);
width = 378;
},
{
layerId = "AA4DCE21-7FE4-4F03-915F-CE2C7C2CC948";
shapes = (
{
closed = 1;
nodes = (
(150,0,l),
(150,500,l),
(60,500,l),
(60,0,l)
);
},
{
closed = 1;
nodes = (
(471,420,l),
(453,466,l),
(418,500,l),
(341,500,l),
(296,500,o),
(202,472,o),
(120,355,o),
(120,235,q),
(150,225,l),
(150,315,o),
(204,400,o),
(277,420,o),
(331,420,q)
);
}
);
width = 378;
}
);
note = r.init.003;
},
{
glyphname = r.init.004;
layers = (
{
layerId = m01;
shapes = (
{
closed = 1;
nodes = (
(150,0,l),
(150,500,l),
(60,500,l),
(60,0,l)
);
},
{
closed = 1;
nodes = (
(386,436,o),
(451,441,qs),
(482,443,o),
(553,446,o),
(585,446,q),
(585,516,l),
(341,516,ls),
(224,516,o),
(120,370,o),
(120,251,q),
(150,241,l),
(150,315,o),
(185,399,o),
(263,436,o),
(331,436,qs)
);
}
);
width = 378;
},
{
layerId = "AA4DCE21-7FE4-4F03-915F-CE2C7C2CC948";
shapes = (
{
closed = 1;
nodes = (
(150,0,l),
(150,500,l),
(60,500,l),
(60,0,l)
);
},
{
closed = 1;
nodes = (
(386,436,o),
(451,441,q),
(482,443,o),
(553,446,o),
(585,446,q),
(585,516,l),
(341,516,l),
(224,516,o),
(120,370,o),
(120,251,q),
(150,241,l),
(150,315,o),
(185,399,o),
(263,436,o),
(331,436,q)
);
}
);
width = 378;
}
);
note = r.init.004;
},
{
glyphname = s.init.001;
layers = (
{
layerId = m01;
shapes = (
{
closed = 1;
nodes = (
(296,-16,o),
(392,66,o),
(392,137,qs),
(392,188,o),
(343,255,o),
(277,290,o),
(230,307,q),
(230,307,l),
(174,327,o),
(130,356,o),
(130,384,qs),
(130,412,o),
(175,446,o),
(208,446,qs),
(246,446,o),
(292,400,o),
(292,364,q),
(362,364,l),
(362,431,o),
(276,516,o),
(207,516,qs),
(164,516,o),
(92,480,o),
(50,418,o),
(50,380,qs),
(50,341,o),
(94,288,o),
(152,258,o),
(195,242,qs),
(199,241,l),
(202,240,ls),
(241,226,o),
(279,206,o),
(302,172,o),
(302,143,qs),
(302,100,o),
(254,54,o),
(211,54,qs),
(140,54,o),
(140,121,qs),
(140,170,o),
(213,207,o),
(294,207,q),
(263,268,l),
(166,268,o),
(60,184,o),
(60,115,qs),
(60,54,o),
(143,-16,o),
(216,-16,qs)
);
},
{
closed = 1;
nodes = (
(294,207,l),
(435,207,o),
(582,348,o),
(582,500,q),
(492,500,l),
(492,417,o),
(454,318,o),
(355,268,o),
(263,268,q)
);
}
);
width = 432;
},
{
layerId = "AA4DCE21-7FE4-4F03-915F-CE2C7C2CC948";
shapes = (
{
closed = 1;
nodes = (
(296,-16,o),
(392,66,o),
(392,137,q),
(392,188,o),
(343,255,o),
(277,290,o),
(230,307,q),
(230,307,l),
(174,327,o),
(130,356,o),
(130,384,q),
(130,412,o),
(175,446,o),
(208,446,q),
(246,446,o),
(292,400,o),
(292,364,q),
(362,364,l),
(362,431,o),
(276,516,o),
(207,516,q),
(164,516,o),
(92,480,o),
(50,418,o),
(50,380,q),
(50,341,o),
(94,288,o),
(152,258,o),
(195,242,q),
(199,241,l),
(202,240,l),
(241,226,o),
(279,206,o),
(302,172,o),
(302,143,q),
(302,100,o),
(254,54,o),
(211,54,q),
(140,54,o),
(140,121,q),
(140,170,o),
(213,207,o),
(294,207,q),
(263,268,l),
(166,268,o),
(60,184,o),
(60,115,q),
(60,54,o),
(143,-16,o),
(216,-16,q)
);
},
{
closed = 1;
nodes = (
(294,207,l),
(382,207,o),
(471,207,o),
(562,207,q),
(492,268,l),
(435,268,o),
(378,268,o),
(320,268,o),
(263,268,q)
);
}
);
width = 432;
},
{
associatedMasterId = m01;
layerId = "5BAAEA10-4020-42FC-B6A0-CCEEDA582537";
name = "{0}";
shapes = (
{
closed = 1;
nodes = (
(296,-16,o),
(392,66,o),
(392,137,q),
(392,188,o),
(343,255,o),
(277,290,o),
(230,307,q),
(230,307,l),
(174,327,o),
(130,356,o),
(130,384,q),
(130,412,o),
(175,446,o),
(208,446,q),
(246,446,o),
(292,400,o),
(292,364,q),
(362,364,l),
(362,431,o),
(276,516,o),
(207,516,q),
(164,516,o),
(92,480,o),
(50,418,o),
(50,380,q),
(50,341,o),
(94,288,o),
(152,258,o),
(195,242,q),
(199,241,l),
(202,240,l),
(241,226,o),
(279,206,o),
(302,172,o),
(302,143,q),
(302,100,o),
(254,54,o),
(211,54,q),
(140,54,o),
(140,121,q),
(140,170,o),
(213,207,o),
(294,207,q),
(263,268,l),
(166,268,o),
(60,184,o),
(60,115,q),
(60,54,o),
(143,-16,o),
(216,-16,q)
);
},
{
closed = 1;
nodes = (
(294,207,l),
(432,207,o),
(562,339,o),
(562,480,q),
(492,500,l),
(492,417,o),
(454,318,o),
(355,268,o),
(263,268,q)
);
}
);
width = 432;
}
);
note = s.init.001;
},
{
glyphname = s.init.002;
layers = (
{
layerId = m01;
shapes = (
{
closed = 1;
nodes = (
(273,220,l),
(329,220,o),
(425,275,o),
(492,330,qs),
(540,368,o),
(603,412,o),
(681,445,o),
(723,446,q),
(723,516,l),
(673,516,o),
(583,480,o),
(509,428,o),
(458,385,qs),
(394,332,o),
(309,280,o),
(263,280,q)
);
},
{
closed = 1;
nodes = (
(296,-16,o),
(392,66,o),
(392,137,qs),
(392,188,o),
(343,255,o),
(277,290,o),
(230,307,q),
(230,307,l),
(174,327,o),
(130,356,o),
(130,384,qs),
(130,412,o),
(175,446,o),
(208,446,qs),
(246,446,o),
(292,400,o),
(292,364,q),
(362,364,l),
(362,431,o),
(276,516,o),
(207,516,qs),
(164,516,o),
(92,480,o),
(50,418,o),
(50,380,qs),
(50,341,o),
(94,288,o),
(152,258,o),
(195,242,qs),
(199,241,l),
(202,240,ls),
(241,226,o),
(279,206,o),
(302,172,o),
(302,143,qs),
(302,100,o),
(254,54,o),
(211,54,qs),
(140,54,o),
(140,121,qs),
(140,170,o),
(213,207,o),
(294,207,q),
(263,268,l),
(166,268,o),
(60,184,o),
(60,115,qs),
(60,54,o),
(143,-16,o),
(216,-16,qs)
);
}
);
width = 432;
},
{
layerId = "AA4DCE21-7FE4-4F03-915F-CE2C7C2CC948";
shapes = (
{
closed = 1;
nodes = (
(273,220,l),
(345,220,o),
(418,220,o),
(492,220,q),
(550,220,o),
(608,220,o),
(665,220,o),
(723,220,q),
(723,280,l),
(657,280,o),
(591,280,o),
(524,280,o),
(458,280,q),
(394,280,o),
(329,280,o),
(263,280,q)
);
},
{
closed = 1;
nodes = (
(296,-16,o),
(392,66,o),
(392,137,q),
(392,188,o),
(343,255,o),
(277,290,o),
(230,307,q),
(230,307,l),
(174,327,o),
(130,356,o),
(130,384,q),
(130,412,o),
(175,446,o),
(208,446,q),
(246,446,o),
(292,400,o),
(292,364,q),
(362,364,l),
(362,431,o),
(276,516,o),
(207,516,q),
(164,516,o),
(92,480,o),
(50,418,o),
(50,380,q),
(50,341,o),
(94,288,o),
(152,258,o),
(195,242,q),
(199,241,l),
(202,240,l),
(241,226,o),
(279,206,o),
(302,172,o),
(302,143,q),
(302,100,o),
(254,54,o),
(211,54,q),
(140,54,o),
(140,121,q),
(140,170,o),
(213,207,o),
(294,207,q),
(263,268,l),
(166,268,o),
(60,184,o),
(60,115,q),
(60,54,o),
(143,-16,o),
(216,-16,q)
);
}
);
width = 432;
}
);
note = s.init.002;
},
{
glyphname = s.init.003;
layers = (
{
layerId = m01;
shapes = (
{
closed = 1;
nodes = (
(296,-16,o),
(392,66,o),
(392,137,qs),
(392,188,o),
(343,255,o),
(277,290,o),
(230,307,q),
(230,307,l),
(174,327,o),
(130,356,o),
(130,384,qs),
(130,412,o),
(175,446,o),
(208,446,qs),
(246,446,o),
(292,400,o),
(292,364,q),
(362,364,l),
(362,431,o),
(276,516,o),
(207,516,qs),
(164,516,o),
(92,480,o),
(50,418,o),
(50,380,qs),
(50,341,o),
(94,288,o),
(152,258,o),
(195,242,qs),
(199,241,l),
(202,240,ls),
(241,226,o),
(279,206,o),
(302,172,o),
(302,143,qs),
(302,100,o),
(254,54,o),
(211,54,qs),
(140,54,o),
(140,121,qs),
(140,170,o),
(213,207,o),
(294,207,q),
(263,268,l),
(166,268,o),
(60,184,o),
(60,115,qs),
(60,54,o),
(143,-16,o),
(216,-16,qs)
);
},
{
closed = 1;
nodes = (
(273,220,l),
(342,220,o),
(448,271,o),
(481,314,qs),
(501,340,o),
(522,400,o),
(522,430,q),
(505,471,l),
(472,500,l),
(472,280,o),
(263,280,q)
);
}
);
width = 432;
},
{
layerId = "AA4DCE21-7FE4-4F03-915F-CE2C7C2CC948";
shapes = (
{
closed = 1;
nodes = (
(296,-16,o),
(392,66,o),
(392,137,q),
(392,188,o),
(343,255,o),
(277,290,o),
(230,307,q),
(230,307,l),
(174,327,o),
(130,356,o),
(130,384,q),
(130,412,o),
(175,446,o),
(208,446,q),
(246,446,o),
(292,400,o),
(292,364,q),
(362,364,l),
(362,431,o),
(276,516,o),
(207,516,q),
(164,516,o),
(92,480,o),
(50,418,o),
(50,380,q),
(50,341,o),
(94,288,o),
(152,258,o),
(195,242,q),
(199,241,l),
(202,240,l),
(241,226,o),
(279,206,o),
(302,172,o),
(302,143,q),
(302,100,o),
(254,54,o),
(211,54,q),
(140,54,o),
(140,121,q),
(140,170,o),
(213,207,o),
(294,207,q),
(263,268,l),
(166,268,o),
(60,184,o),
(60,115,q),
(60,54,o),
(143,-16,o),
(216,-16,q)
);
},
{
closed = 1;
nodes = (
(273,220,l),
(337,220,o),
(415,213,o),
(451,207,q),
(468,204,o),
(503,200,o),
(522,200,q),
(505,245,l),
(472,280,l),
(368,280,o),
(263,280,q)
);
}
);
width = 432;
}
);
note = s.init.003;
},
{
glyphname = s.init.004;
layers = (
{
layerId = m01;
shapes = (
{
closed = 1;
nodes = (
(273,220,l),
(400,220,o),
(516,260,o),
(542,322,o),
(542,380,q),
(482,380,l),
(482,342,o),
(461,304,o),
(367,280,o),
(263,280,q)
);
},
{
closed = 1;
nodes = (
(296,-16,o),
(392,66,o),
(392,137,qs),
(392,188,o),
(343,255,o),
(277,290,o),
(230,307,q),
(230,307,l),
(174,327,o),
(130,356,o),
(130,384,qs),
(130,412,o),
(175,446,o),
(208,446,qs),
(246,446,o),
(292,400,o),
(292,364,q),
(362,364,l),
(362,431,o),
(276,516,o),
(207,516,qs),
(164,516,o),
(92,480,o),
(50,418,o),
(50,380,qs),
(50,341,o),
(94,288,o),
(152,258,o),
(195,242,qs),
(199,241,l),
(202,240,ls),
(241,226,o),
(279,206,o),
(302,172,o),
(302,143,qs),
(302,100,o),
(254,54,o),
(211,54,qs),
(140,54,o),
(140,121,qs),
(140,170,o),
(213,207,o),
(294,207,q),
(263,268,l),
(166,268,o),
(60,184,o),
(60,115,qs),
(60,54,o),
(143,-16,o),
(216,-16,qs)
);
}
);
width = 432;
},
{
layerId = "AA4DCE21-7FE4-4F03-915F-CE2C7C2CC948";
shapes = (
{
closed = 1;
nodes = (
(273,220,l),
(340,220,o),
(408,220,o),
(475,220,o),
(542,220,q),
(482,280,l),
(427,280,o),
(373,280,o),
(318,280,o),
(263,280,q)
);
},
{
closed = 1;
nodes = (
(296,-16,o),
(392,66,o),
(392,137,q),
(392,188,o),
(343,255,o),
(277,290,o),
(230,307,q),
(230,307,l),
(174,327,o),
(130,356,o),
(130,384,q),
(130,412,o),
(175,446,o),
(208,446,q),
(246,446,o),
(292,400,o),
(292,364,q),
(362,364,l),
(362,431,o),
(276,516,o),
(207,516,q),
(164,516,o),
(92,480,o),
(50,418,o),
(50,380,q),
(50,341,o),
(94,288,o),
(152,258,o),
(195,242,q),
(199,241,l),
(202,240,l),
(241,226,o),
(279,206,o),
(302,172,o),
(302,143,q),
(302,100,o),
(254,54,o),
(211,54,q),
(140,54,o),
(140,121,q),
(140,170,o),
(213,207,o),
(294,207,q),
(263,268,l),
(166,268,o),
(60,184,o),
(60,115,q),
(60,54,o),
(143,-16,o),
(216,-16,q)
);
}
);
width = 432;
}
);
note = s.init.004;
},
{
glyphname = t.init.001;
layers = (
{
layerId = m01;
shapes = (
{
closed = 1;
nodes = (
(150,0,l),
(150,800,l),
(60,800,l),
(60,0,l)
);
},
{
closed = 1;
nodes = (
(350,430,l),
(360,465,l),
(350,500,l),
(105,500,l),
(105,430,l)
);
}
);
width = 290;
},
{
layerId = "AA4DCE21-7FE4-4F03-915F-CE2C7C2CC948";
shapes = (
{
closed = 1;
nodes = (
(150,0,l),
(150,800,l),
(60,800,l),
(60,0,l)
);
},
{
closed = 1;
nodes = (
(350,430,l),
(360,465,l),
(350,500,l),
(105,500,l),
(105,430,l)
);
}
);
width = 290;
}
);
note = t.init.001;
},
{
glyphname = t.init.002;
layers = (
{
layerId = m01;
shapes = (
{
closed = 1;
nodes = (
(150,0,l),
(150,800,l),
(60,800,l),
(60,0,l)
);
},
{
closed = 1;
nodes = (
(105,430,l),
(197,430,o),
(343,438,qs),
(489,446,o),
(581,446,q),
(581,516,l),
(489,516,o),
(343,508,qs),
(197,500,o),
(105,500,q)
);
}
);
width = 290;
},
{
layerId = "AA4DCE21-7FE4-4F03-915F-CE2C7C2CC948";
shapes = (
{
closed = 1;
nodes = (
(150,0,l),
(150,800,l),
(60,800,l),
(60,0,l)
);
},
{
closed = 1;
nodes = (
(105,430,l),
(224,430,o),
(343,430,q),
(462,430,o),
(581,430,q),
(581,500,l),
(462,500,o),
(343,500,q),
(224,500,o),
(105,500,q)
);
}
);
width = 290;
}
);
note = t.init.002;
},
{
glyphname = t.init.003;
layers = (
{
layerId = m01;
shapes = (
{
closed = 1;
nodes = (
(150,0,l),
(150,800,l),
(60,800,l),
(60,0,l)
);
},
{
closed = 1;
nodes = (
(154,430,o),
(214,425,qs),
(242,423,o),
(304,420,o),
(330,420,qs),
(383,420,l),
(365,466,l),
(330,500,l),
(105,500,l),
(105,430,l)
);
}
);
width = 290;
},
{
layerId = "AA4DCE21-7FE4-4F03-915F-CE2C7C2CC948";
shapes = (
{
closed = 1;
nodes = (
(150,0,l),
(150,800,l),
(60,800,l),
(60,0,l)
);
},
{
closed = 1;
nodes = (
(154,430,o),
(214,425,q),
(242,423,o),
(304,420,o),
(330,420,q),
(383,420,l),
(365,466,l),
(330,500,l),
(105,500,l),
(105,430,l)
);
}
);
width = 290;
}
);
note = t.init.003;
},
{
glyphname = t.init.004;
layers = (
{
layerId = m01;
shapes = (
{
closed = 1;
nodes = (
(150,0,l),
(150,800,l),
(60,800,l),
(60,0,l)
);
},
{
closed = 1;
nodes = (
(194,430,o),
(300,439,qs),
(338,441,o),
(419,446,o),
(452,446,q),
(462,481,l),
(452,516,l),
(419,516,o),
(338,511,o),
(300,509,qs),
(194,500,o),
(105,500,q),
(95,465,l),
(105,430,l)
);
}
);
width = 290;
},
{
layerId = "AA4DCE21-7FE4-4F03-915F-CE2C7C2CC948";
shapes = (
{
closed = 1;
nodes = (
(150,0,l),
(150,800,l),
(60,800,l),
(60,0,l)
);
},
{
closed = 1;
nodes = (
(211,430,o),
(316,430,q),
(361,430,o),
(406,430,o),
(452,430,q),
(462,465,l),
(452,500,l),
(407,500,o),
(362,500,o),
(316,500,q),
(211,500,o),
(105,500,q),
(95,465,l),
(105,430,l)
);
}
);
width = 290;
}
);
note = t.init.004;
},
{
glyphname = t.init.005;
layers = (
{
layerId = m01;
shapes = (
{
closed = 1;
nodes = (
(150,0,l),
(150,800,l),
(60,800,l),
(60,0,l)
);
},
{
closed = 1;
nodes = (
(245,430,l),
(255,465,l),
(245,500,l),
(105,500,l),
(95,465,l),
(105,430,l)
);
}
);
width = 290;
},
{
layerId = "AA4DCE21-7FE4-4F03-915F-CE2C7C2CC948";
shapes = (
{
closed = 1;
nodes = (
(150,0,l),
(150,800,l),
(60,800,l),
(60,0,l)
);
},
{
closed = 1;
nodes = (
(245,430,l),
(255,465,l),
(245,500,l),
(105,500,l),
(95,465,l),
(105,430,l)
);
}
);
width = 290;
}
);
note = t.init.005;
},
{
glyphname = u.init.001;
layers = (
{
layerId = m01;
shapes = (
{
closed = 1;
nodes = (
(602,0,l),
(612,35,l),
(602,70,l),
(586,70,ls),
(538,70,o),
(492,121,o),
(482,193,o),
(482,251,q),
(392,251,l),
(392,171,o),
(412,67,o),
(484,0,o),
(556,0,qs)
);
},
{
closed = 1;
nodes = (
(304,-16,o),
(391,53,o),
(422,169,o),
(422,251,q),
(392,251,l),
(392,183,o),
(374,100,o),
(318,54,o),
(265,54,qs),
(207,54,o),
(153,107,o),
(140,185,o),
(140,251,qs),
(140,500,l),
(50,500,l),
(50,251,ls),
(50,161,o),
(67,56,o),
(143,-16,o),
(224,-16,qs)
);
},
{
closed = 1;
nodes = (
(437,241,l),
(482,251,l),
(482,500,l),
(392,500,l),
(392,251,l)
);
}
);
width = 542;
},
{
layerId = "AA4DCE21-7FE4-4F03-915F-CE2C7C2CC948";
shapes = (
{
closed = 1;
nodes = (
(602,0,l),
(612,35,l),
(602,70,l),
(586,70,l),
(538,70,o),
(492,121,o),
(482,193,o),
(482,251,q),
(392,251,l),
(392,171,o),
(412,67,o),
(484,0,o),
(556,0,q)
);
},
{
closed = 1;
nodes = (
(304,-16,o),
(391,53,o),
(422,169,o),
(422,251,q),
(392,251,l),
(392,183,o),
(374,100,o),
(318,54,o),
(265,54,q),
(207,54,o),
(153,107,o),
(140,185,o),
(140,251,q),
(140,500,l),
(50,500,l),
(50,251,l),
(50,161,o),
(67,56,o),
(143,-16,o),
(224,-16,q)
);
},
{
closed = 1;
nodes = (
(437,241,l),
(482,251,l),
(482,500,l),
(392,500,l),
(392,251,l)
);
}
);
width = 542;
}
);
note = u.init.001;
},
{
glyphname = u.init.002;
layers = (
{
layerId = m01;
shapes = (
{
closed = 1;
nodes = (
(304,-16,o),
(391,53,o),
(422,169,o),
(422,251,q),
(392,251,l),
(392,183,o),
(374,100,o),
(318,54,o),
(265,54,qs),
(207,54,o),
(153,107,o),
(140,185,o),
(140,251,qs),
(140,500,l),
(50,500,l),
(50,251,ls),
(50,161,o),
(67,56,o),
(143,-16,o),
(224,-16,qs)
);
},
{
closed = 1;
nodes = (
(437,241,l),
(482,251,l),
(482,500,l),
(392,500,l),
(392,251,l)
);
},
{
closed = 1;
nodes = (
(559,-16,o),
(610,51,o),
(622,132,o),
(622,181,qs),
(622,251,l),
(572,251,l),
(572,159,o),
(557,54,o),
(527,54,qs),
(497,54,o),
(482,159,o),
(482,251,q),
(392,251,l),
(392,164,o),
(403,58,o),
(453,-16,o),
(507,-16,qs)
);
}
);
width = 532;
},
{
layerId = "AA4DCE21-7FE4-4F03-915F-CE2C7C2CC948";
shapes = (
{
closed = 1;
nodes = (
(304,-16,o),
(391,53,o),
(422,169,o),
(422,251,q),
(392,251,l),
(392,183,o),
(374,100,o),
(318,54,o),
(265,54,q),
(207,54,o),
(153,107,o),
(140,185,o),
(140,251,q),
(140,500,l),
(50,500,l),
(50,251,l),
(50,161,o),
(67,56,o),
(143,-16,o),
(224,-16,q)
);
},
{
closed = 1;
nodes = (
(437,241,l),
(482,251,l),
(482,500,l),
(392,500,l),
(392,251,l)
);
},
{
closed = 1;
nodes = (
(536,-16,o),
(565,-16,o),
(593,-16,o),
(622,-16,q),
(622,54,l),
(572,54,l),
(557,54,o),
(542,54,o),
(527,54,q),
(497,54,o),
(482,159,o),
(482,251,q),
(392,251,l),
(392,164,o),
(403,58,o),
(453,-16,o),
(507,-16,q)
);
}
);
width = 532;
}
);
note = u.init.002;
},
{
glyphname = y.init.001;
layers = (
{
layerId = m01;
shapes = (
{
closed = 1;
nodes = (
(306,0,l),
(140,500,l),
(40,500,l),
(226,0,l)
);
},
{
closed = 1;
nodes = (
(200,-300,l),
(306,0,l),
(482,500,l),
(382,500,l),
(226,0,l),
(100,-300,l)
);
},
{
closed = 1;
nodes = (
(400,460,l),
(457,430,l),
(476,486,o),
(508,530,o),
(528,530,q),
(538,565,l),
(528,600,l),
(471,600,o),
(398,550,o),
(382,500,q)
);
}
);
width = 522;
},
{
layerId = "AA4DCE21-7FE4-4F03-915F-CE2C7C2CC948";
shapes = (
{
closed = 1;
nodes = (
(306,0,l),
(140,500,l),
(40,500,l),
(226,0,l)
);
},
{
closed = 1;
nodes = (
(200,-300,l),
(306,0,l),
(482,500,l),
(382,500,l),
(226,0,l),
(100,-300,l)
);
},
{
closed = 1;
nodes = (
(143,-270,l),
(200,-300,l),
(326,-300,o),
(452,-300,o),
(582,-300,q),
(592,-265,l),
(582,-230,l),
(437,-230,o),
(292,-230,o),
(143,-230,q)
);
}
);
width = 522;
},
{
associatedMasterId = m01;
layerId = "093579D8-373C-4A2A-B506-24DDA6889121";
name = "{0}";
shapes = (
{
closed = 1;
nodes = (
(306,0,l),
(140,500,l),
(40,500,l),
(226,0,l)
);
},
{
closed = 1;
nodes = (
(200,-300,l),
(306,0,l),
(482,500,l),
(382,500,l),
(226,0,l),
(100,-300,l)
);
},
{
closed = 1;
nodes = (
(143,-270,l),
(200,-300,l),
(258,-136,o),
(471,0,o),
(582,0,q),
(592,35,l),
(582,70,l),
(465,70,o),
(230,-65,o),
(143,-230,q)
);
}
);
width = 522;
}
);
note = y.init.001;
},
{
glyphname = y.init.002;
layers = (
{
layerId = m01;
shapes = (
{
closed = 1;
nodes = (
(306,0,l),
(140,500,l),
(40,500,l),
(226,0,l)
);
},
{
closed = 1;
nodes = (
(200,-300,l),
(306,0,l),
(482,500,l),
(382,500,l),
(226,0,l),
(100,-300,l)
);
},
{
closed = 1;
nodes = (
(411,450,l),
(457,430,l),
(478,489,o),
(519,576,o),
(552,632,o),
(573,661,qs),
(599,699,o),
(619,744,o),
(619,781,qs),
(619,831,l),
(562,851,l),
(562,826,o),
(541,773,o),
(510,722,o),
(483,684,qs),
(444,627,o),
(397,546,o),
(382,500,q)
);
}
);
width = 522;
},
{
layerId = "AA4DCE21-7FE4-4F03-915F-CE2C7C2CC948";
shapes = (
{
closed = 1;
nodes = (
(306,0,l),
(140,500,l),
(40,500,l),
(226,0,l)
);
},
{
closed = 1;
nodes = (
(200,-300,l),
(306,0,l),
(482,500,l),
(382,500,l),
(226,0,l),
(100,-300,l)
);
},
{
closed = 1;
nodes = (
(154,-280,l),
(200,-300,l),
(259,-300,o),
(317,-300,o),
(376,-300,o),
(434,-300,q),
(495,-300,o),
(556,-300,o),
(619,-300,q),
(619,-250,l),
(562,-230,l),
(510,-230,o),
(458,-230,o),
(405,-230,o),
(353,-230,q),
(287,-230,o),
(222,-230,o),
(154,-230,q)
);
}
);
width = 522;
},
{
associatedMasterId = m01;
layerId = "34ACD74D-3EB9-4DF9-B013-2E72B6BE719B";
name = "{0}";
shapes = (
{
closed = 1;
nodes = (
(306,0,l),
(140,500,l),
(40,500,l),
(226,0,l)
);
},
{
closed = 1;
nodes = (
(200,-300,l),
(306,0,l),
(482,500,l),
(382,500,l),
(226,0,l),
(100,-300,l)
);
},
{
closed = 1;
nodes = (
(154,-280,l),
(200,-300,l),
(223,-235,o),
(302,-128,o),
(387,-50,o),
(452,2,q),
(523,58,o),
(600,135,o),
(619,181,q),
(619,231,l),
(562,251,l),
(562,217,o),
(527,157,o),
(471,105,o),
(420,65,q),
(332,-5,o),
(206,-135,o),
(154,-230,q)
);
}
);
width = 522;
}
);
note = y.init.002;
},
{
glyphname = y.init.003;
layers = (
{
layerId = m01;
shapes = (
{
closed = 1;
nodes = (
(306,0,l),
(140,500,l),
(40,500,l),
(226,0,l)
);
},
{
closed = 1;
nodes = (
(200,-300,l),
(306,0,l),
(482,500,l),
(382,500,l),
(226,0,l),
(100,-300,l)
);
},
{
closed = 1;
nodes = (
(382,450,l),
(457,430,l),
(492,528,o),
(545,648,o),
(577,712,qs),
(603,764,o),
(622,819,o),
(622,860,qs),
(622,910,l),
(562,930,l),
(562,897,o),
(548,845,o),
(527,803,o),
(505,768,qs),
(469,711,o),
(411,593,o),
(382,500,q)
);
}
);
width = 522;
},
{
layerId = "AA4DCE21-7FE4-4F03-915F-CE2C7C2CC948";
shapes = (
{
closed = 1;
nodes = (
(306,0,l),
(140,500,l),
(40,500,l),
(226,0,l)
);
},
{
closed = 1;
nodes = (
(200,-300,l),
(306,0,l),
(482,500,l),
(382,500,l),
(226,0,l),
(100,-300,l)
);
},
{
closed = 1;
nodes = (
(151,-280,l),
(200,-300,l),
(266,-300,o),
(333,-300,o),
(401,-300,q),
(474,-300,o),
(547,-300,o),
(622,-300,q),
(622,-250,l),
(562,-230,l),
(503,-230,o),
(444,-230,o),
(385,-230,o),
(326,-230,q),
(268,-230,o),
(211,-230,o),
(151,-230,q)
);
}
);
width = 522;
},
{
associatedMasterId = m01;
layerId = "5BE30284-7D73-4AAB-84D2-62D7D3D05F00";
name = "{0}";
shapes = (
{
closed = 1;
nodes = (
(306,0,l),
(140,500,l),
(40,500,l),
(226,0,l)
);
},
{
closed = 1;
nodes = (
(200,-300,l),
(306,0,l),
(482,500,l),
(382,500,l),
(226,0,l),
(100,-300,l)
);
},
{
closed = 1;
nodes = (
(257,20,l),
(306,0,l),
(325,54,o),
(399,146,o),
(464,212,q),
(531,279,o),
(606,374,o),
(622,430,q),
(622,480,l),
(562,500,l),
(562,461,o),
(520,380,o),
(459,307,o),
(405,250,q),
(354,197,o),
(283,113,o),
(257,70,q)
);
}
);
width = 522;
}
);
note = y.init.003;
},
{
glyphname = y.init.004;
layers = (
{
layerId = m01;
shapes = (
{
closed = 1;
nodes = (
(306,0,l),
(140,500,l),
(40,500,l),
(226,0,l)
);
},
{
closed = 1;
nodes = (
(200,-300,l),
(306,0,l),
(482,500,l),
(382,500,l),
(226,0,l),
(100,-300,l)
);
},
{
closed = 1;
nodes = (
(382,450,l),
(457,430,l),
(491,524,o),
(545,621,o),
(578,663,qs),
(595,685,o),
(617,718,o),
(627,740,q),
(627,790,l),
(572,810,l),
(572,798,o),
(559,773,o),
(534,742,o),
(519,726,qs),
(471,671,o),
(404,572,o),
(382,500,q)
);
}
);
width = 522;
},
{
layerId = "AA4DCE21-7FE4-4F03-915F-CE2C7C2CC948";
shapes = (
{
closed = 1;
nodes = (
(306,0,l),
(140,500,l),
(40,500,l),
(226,0,l)
);
},
{
closed = 1;
nodes = (
(200,-300,l),
(306,0,l),
(482,500,l),
(382,500,l),
(226,0,l),
(100,-300,l)
);
},
{
closed = 1;
nodes = (
(155,-280,l),
(200,-300,l),
(287,-300,o),
(375,-300,o),
(465,-300,q),
(518,-300,o),
(572,-300,o),
(627,-300,q),
(627,-250,l),
(572,-230,l),
(521,-230,o),
(470,-230,o),
(419,-230,o),
(368,-230,q),
(298,-230,o),
(227,-230,o),
(155,-230,q)
);
}
);
width = 522;
},
{
associatedMasterId = m01;
layerId = "A0638EA9-0AF0-46BD-883C-D3677D56D004";
name = "{0}";
shapes = (
{
closed = 1;
nodes = (
(306,0,l),
(140,500,l),
(40,500,l),
(226,0,l)
);
},
{
closed = 1;
nodes = (
(200,-300,l),
(306,0,l),
(482,500,l),
(382,500,l),
(226,0,l),
(100,-300,l)
);
},
{
closed = 1;
nodes = (
(261,20,l),
(306,0,l),
(325,51,o),
(406,124,o),
(476,169,q),
(539,210,o),
(609,269,o),
(627,310,q),
(627,360,l),
(572,380,l),
(572,345,o),
(533,287,o),
(473,240,o),
(423,208,q),
(361,166,o),
(288,108,o),
(261,70,q)
);
}
);
width = 522;
}
);
note = y.init.004;
},
{
glyphname = z.init.001;
layers = (
{
layerId = m01;
shapes = (
{
closed = 1;
nodes = (
(120,0,l),
(476,500,l),
(376,500,l),
(20,0,l)
);
},
{
closed = 1;
nodes = (
(376,420,l),
(376,500,l),
(40,500,l),
(40,420,l)
);
},
{
closed = 1;
nodes = (
(556,0,l),
(566,40,l),
(556,80,l),
(120,80,l),
(120,0,l)
);
}
);
width = 496;
},
{
layerId = "AA4DCE21-7FE4-4F03-915F-CE2C7C2CC948";
shapes = (
{
closed = 1;
nodes = (
(120,0,l),
(476,500,l),
(376,500,l),
(20,0,l)
);
},
{
closed = 1;
nodes = (
(376,420,l),
(376,500,l),
(40,500,l),
(40,420,l)
);
},
{
closed = 1;
nodes = (
(556,0,l),
(566,40,l),
(556,80,l),
(120,80,l),
(120,0,l)
);
}
);
width = 496;
}
);
note = z.init.001;
},
{
glyphname = z.init.002;
layers = (
{
layerId = m01;
shapes = (
{
closed = 1;
nodes = (
(120,0,l),
(476,500,l),
(376,500,l),
(20,0,l)
);
},
{
closed = 1;
nodes = (
(376,420,l),
(376,500,l),
(40,500,l),
(40,420,l)
);
},
{
closed = 1;
nodes = (
(396,0,ls),
(447,0,o),
(516,18,o),
(574,97,o),
(583,181,q),
(583,231,l),
(536,251,l),
(536,172,o),
(494,97,o),
(438,80,o),
(396,80,qs),
(120,80,l),
(120,0,l)
);
}
);
width = 496;
},
{
layerId = "AA4DCE21-7FE4-4F03-915F-CE2C7C2CC948";
shapes = (
{
closed = 1;
nodes = (
(120,0,l),
(476,500,l),
(376,500,l),
(20,0,l)
);
},
{
closed = 1;
nodes = (
(376,420,l),
(376,500,l),
(40,500,l),
(40,420,l)
);
},
{
closed = 1;
nodes = (
(396,0,l),
(443,0,o),
(490,0,o),
(536,0,o),
(583,0,q),
(583,50,l),
(536,80,l),
(501,80,o),
(466,80,o),
(431,80,o),
(396,80,q),
(120,80,l),
(120,0,l)
);
}
);
width = 496;
}
);
note = z.init.002;
},
{
glyphname = z.init.003;
layers = (
{
layerId = m01;
shapes = (
{
closed = 1;
nodes = (
(120,0,l),
(476,500,l),
(376,500,l),
(20,0,l)
);
},
{
closed = 1;
nodes = (
(376,420,l),
(376,500,l),
(40,500,l),
(40,420,l)
);
},
{
closed = 1;
nodes = (
(190,0,ls),
(375,0,o),
(586,212,o),
(586,430,q),
(569,471,l),
(536,500,l),
(536,338,o),
(446,153,o),
(289,80,o),
(177,80,qs),
(120,80,l),
(120,0,l)
);
}
);
width = 496;
},
{
layerId = "AA4DCE21-7FE4-4F03-915F-CE2C7C2CC948";
shapes = (
{
closed = 1;
nodes = (
(120,0,l),
(476,500,l),
(376,500,l),
(20,0,l)
);
},
{
closed = 1;
nodes = (
(376,420,l),
(376,500,l),
(40,500,l),
(40,420,l)
);
},
{
closed = 1;
nodes = (
(190,0,l),
(321,0,o),
(451,0,o),
(586,0,q),
(569,45,l),
(536,80,l),
(446,80,o),
(357,80,o),
(267,80,o),
(177,80,q),
(120,80,l),
(120,0,l)
);
}
);
width = 496;
}
);
note = z.init.003;
},
{
glyphname = z.init.004;
layers = (
{
layerId = m01;
shapes = (
{
closed = 1;
nodes = (
(120,0,l),
(476,500,l),
(376,500,l),
(20,0,l)
);
},
{
closed = 1;
nodes = (
(376,420,l),
(376,500,l),
(40,500,l),
(40,420,l)
);
},
{
closed = 1;
nodes = (
(190,0,ls),
(277,0,o),
(439,89,o),
(556,228,o),
(581,300,q),
(581,360,l),
(546,380,l),
(546,318,o),
(447,177,o),
(278,80,o),
(177,80,qs),
(120,80,l),
(120,0,l)
);
}
);
width = 496;
},
{
layerId = "AA4DCE21-7FE4-4F03-915F-CE2C7C2CC948";
shapes = (
{
closed = 1;
nodes = (
(120,0,l),
(476,500,l),
(376,500,l),
(20,0,l)
);
},
{
closed = 1;
nodes = (
(376,420,l),
(376,500,l),
(40,500,l),
(40,420,l)
);
},
{
closed = 1;
nodes = (
(190,0,l),
(288,0,o),
(386,0,o),
(483,0,o),
(581,0,q),
(581,60,l),
(546,80,l),
(454,80,o),
(362,80,o),
(269,80,o),
(177,80,q),
(120,80,l),
(120,0,l)
);
}
);
width = 496;
}
);
note = z.init.004;
},
{
glyphname = adieresis.medi.101;
layers = (
{
layerId = m01;
shapes = (
{
closed = 1;
nodes = (
(381,-16,o),
(482,131,o),
(482,251,q),
(452,251,l),
(452,158,o),
(375,54,o),
(301,54,qs),
(227,54,o),
(150,158,o),
(150,251,qs),
(150,342,o),
(227,446,o),
(301,446,qs),
(375,446,o),
(452,342,o),
(452,251,q),
(482,251,l),
(482,369,o),
(381,516,o),
(271,516,qs),
(196,516,o),
(92,445,o),
(40,325,o),
(40,251,qs),
(40,176,o),
(92,55,o),
(196,-16,o),
(271,-16,qs)
);
},
{
closed = 1;
nodes = (
(497,241,l),
(542,251,l),
(542,500,l),
(452,500,l),
(452,251,l)
);
},
{
closed = 1;
nodes = (
(662,0,l),
(672,35,l),
(662,70,l),
(646,70,ls),
(598,70,o),
(552,121,o),
(542,193,o),
(542,251,q),
(452,251,l),
(452,171,o),
(472,67,o),
(544,0,o),
(616,0,qs)
);
},
{
closed = 1;
nodes = (
(411,620,ls),
(429,620,o),
(452,643,o),
(452,661,qs),
(452,678,o),
(429,700,o),
(411,700,qs),
(0,700,l),
(0,620,l)
);
}
);
width = 602;
},
{
layerId = "AA4DCE21-7FE4-4F03-915F-CE2C7C2CC948";
shapes = (
{
closed = 1;
nodes = (
(381,-16,o),
(482,131,o),
(482,251,q),
(452,251,l),
(452,158,o),
(375,54,o),
(301,54,q),
(227,54,o),
(150,158,o),
(150,251,q),
(150,342,o),
(227,446,o),
(301,446,q),
(375,446,o),
(452,342,o),
(452,251,q),
(482,251,l),
(482,369,o),
(381,516,o),
(271,516,q),
(196,516,o),
(92,445,o),
(40,325,o),
(40,251,q),
(40,176,o),
(92,55,o),
(196,-16,o),
(271,-16,q)
);
},
{
closed = 1;
nodes = (
(497,241,l),
(542,251,l),
(542,500,l),
(452,500,l),
(452,251,l)
);
},
{
closed = 1;
nodes = (
(662,0,l),
(672,35,l),
(662,70,l),
(646,70,l),
(598,70,o),
(552,121,o),
(542,193,o),
(542,251,q),
(452,251,l),
(452,171,o),
(472,67,o),
(544,0,o),
(616,0,q)
);
},
{
closed = 1;
nodes = (
(411,620,l),
(429,620,o),
(452,643,o),
(452,661,q),
(452,678,o),
(429,700,o),
(411,700,q),
(0,700,l),
(0,620,l)
);
}
);
width = 602;
}
);
note = adieresis.medi.101;
},
{
glyphname = adieresis.medi.102;
layers = (
{
layerId = m01;
shapes = (
{
closed = 1;
nodes = (
(381,-16,o),
(482,131,o),
(482,251,q),
(452,251,l),
(452,158,o),
(375,54,o),
(301,54,qs),
(227,54,o),
(150,158,o),
(150,251,qs),
(150,342,o),
(227,446,o),
(301,446,qs),
(375,446,o),
(452,342,o),
(452,251,q),
(482,251,l),
(482,369,o),
(381,516,o),
(271,516,qs),
(196,516,o),
(92,445,o),
(40,325,o),
(40,251,qs),
(40,176,o),
(92,55,o),
(196,-16,o),
(271,-16,qs)
);
},
{
closed = 1;
nodes = (
(497,241,l),
(542,251,l),
(542,500,l),
(452,500,l),
(452,251,l)
);
},
{
closed = 1;
nodes = (
(645,-16,o),
(692,106,o),
(692,181,qs),
(692,251,l),
(642,251,l),
(642,54,o),
(590,54,qs),
(560,54,o),
(542,163,o),
(542,251,q),
(452,251,l),
(452,166,o),
(465,58,o),
(516,-16,o),
(570,-16,qs)
);
},
{
closed = 1;
nodes = (
(411,620,ls),
(429,620,o),
(452,643,o),
(452,661,qs),
(452,678,o),
(429,700,o),
(411,700,qs),
(0,700,l),
(0,620,l)
);
}
);
width = 602;
},
{
layerId = "AA4DCE21-7FE4-4F03-915F-CE2C7C2CC948";
shapes = (
{
closed = 1;
nodes = (
(381,-16,o),
(482,131,o),
(482,251,q),
(452,251,l),
(452,158,o),
(375,54,o),
(301,54,q),
(227,54,o),
(150,158,o),
(150,251,q),
(150,342,o),
(227,446,o),
(301,446,q),
(375,446,o),
(452,342,o),
(452,251,q),
(482,251,l),
(482,369,o),
(381,516,o),
(271,516,q),
(196,516,o),
(92,445,o),
(40,325,o),
(40,251,q),
(40,176,o),
(92,55,o),
(196,-16,o),
(271,-16,q)
);
},
{
closed = 1;
nodes = (
(497,241,l),
(542,251,l),
(542,500,l),
(452,500,l),
(452,251,l)
);
},
{
closed = 1;
nodes = (
(610,-16,o),
(651,-16,o),
(692,-16,q),
(692,54,l),
(642,54,l),
(616,54,o),
(590,54,q),
(560,54,o),
(542,163,o),
(542,251,q),
(452,251,l),
(452,166,o),
(465,58,o),
(516,-16,o),
(570,-16,q)
);
},
{
closed = 1;
nodes = (
(411,620,l),
(429,620,o),
(452,643,o),
(452,661,q),
(452,678,o),
(429,700,o),
(411,700,q),
(0,700,l),
(0,620,l)
);
}
);
width = 602;
}
);
note = adieresis.medi.102;
},
{
glyphname = adieresis.medi.103;
layers = (
{
layerId = m01;
shapes = (
{
closed = 1;
nodes = (
(477,20,l),
(542,0,l),
(542,83,o),
(595,240,o),
(646,347,qs),
(685,430,o),
(700,470,q),
(700,480,l),
(642,500,l),
(619,439,o),
(578,352,qs),
(534,258,o),
(487,135,o),
(477,70,q)
);
},
{
closed = 1;
nodes = (
(411,620,ls),
(429,620,o),
(452,643,o),
(452,661,qs),
(452,678,o),
(429,700,o),
(411,700,qs),
(0,700,l),
(0,620,l)
);
},
{
closed = 1;
nodes = (
(542,0,l),
(542,500,l),
(452,500,l),
(452,0,l)
);
},
{
closed = 1;
nodes = (
(381,-16,o),
(482,131,o),
(482,251,q),
(452,251,l),
(452,158,o),
(375,54,o),
(301,54,qs),
(227,54,o),
(150,158,o),
(150,251,qs),
(150,342,o),
(227,446,o),
(301,446,qs),
(375,446,o),
(452,342,o),
(452,251,q),
(482,251,l),
(482,369,o),
(381,516,o),
(271,516,qs),
(196,516,o),
(92,445,o),
(40,325,o),
(40,251,qs),
(40,176,o),
(92,55,o),
(196,-16,o),
(271,-16,qs)
);
}
);
width = 602;
},
{
layerId = "AA4DCE21-7FE4-4F03-915F-CE2C7C2CC948";
shapes = (
{
closed = 1;
nodes = (
(477,20,l),
(542,0,l),
(584,0,o),
(626,0,o),
(669,0,q),
(685,0,o),
(700,0,q),
(700,20,l),
(642,70,l),
(619,70,o),
(596,70,q),
(557,70,o),
(517,70,o),
(477,70,q)
);
},
{
closed = 1;
nodes = (
(411,620,l),
(429,620,o),
(452,643,o),
(452,661,q),
(452,678,o),
(429,700,o),
(411,700,q),
(0,700,l),
(0,620,l)
);
},
{
closed = 1;
nodes = (
(542,0,l),
(542,500,l),
(452,500,l),
(452,0,l)
);
},
{
closed = 1;
nodes = (
(381,-16,o),
(482,131,o),
(482,251,q),
(452,251,l),
(452,158,o),
(375,54,o),
(301,54,q),
(227,54,o),
(150,158,o),
(150,251,q),
(150,342,o),
(227,446,o),
(301,446,q),
(375,446,o),
(452,342,o),
(452,251,q),
(482,251,l),
(482,369,o),
(381,516,o),
(271,516,q),
(196,516,o),
(92,445,o),
(40,325,o),
(40,251,q),
(40,176,o),
(92,55,o),
(196,-16,o),
(271,-16,q)
);
}
);
width = 602;
}
);
note = adieresis.medi.103;
},
{
glyphname = adieresis.medi.104;
layers = (
{
layerId = m01;
shapes = (
{
closed = 1;
nodes = (
(542,0,l),
(542,500,l),
(452,500,l),
(452,0,l)
);
},
{
closed = 1;
nodes = (
(381,-16,o),
(482,131,o),
(482,251,q),
(452,251,l),
(452,158,o),
(375,54,o),
(301,54,qs),
(227,54,o),
(150,158,o),
(150,251,qs),
(150,342,o),
(227,446,o),
(301,446,qs),
(375,446,o),
(452,342,o),
(452,251,q),
(482,251,l),
(482,369,o),
(381,516,o),
(271,516,qs),
(196,516,o),
(92,445,o),
(40,325,o),
(40,251,qs),
(40,176,o),
(92,55,o),
(196,-16,o),
(271,-16,qs)
);
},
{
closed = 1;
nodes = (
(484,20,l),
(542,0,l),
(542,54,o),
(596,157,o),
(646,227,qs),
(688,289,o),
(700,310,q),
(700,360,l),
(652,380,l),
(652,350,o),
(615,282,o),
(576,228,qs),
(540,178,o),
(497,107,o),
(484,70,q)
);
},
{
closed = 1;
nodes = (
(411,620,ls),
(429,620,o),
(452,643,o),
(452,661,qs),
(452,678,o),
(429,700,o),
(411,700,qs),
(0,700,l),
(0,620,l)
);
}
);
width = 602;
},
{
layerId = "AA4DCE21-7FE4-4F03-915F-CE2C7C2CC948";
shapes = (
{
closed = 1;
nodes = (
(542,0,l),
(542,500,l),
(452,500,l),
(452,0,l)
);
},
{
closed = 1;
nodes = (
(381,-16,o),
(482,131,o),
(482,251,q),
(452,251,l),
(452,158,o),
(375,54,o),
(301,54,q),
(227,54,o),
(150,158,o),
(150,251,q),
(150,342,o),
(227,446,o),
(301,446,q),
(375,446,o),
(452,342,o),
(452,251,q),
(482,251,l),
(482,369,o),
(381,516,o),
(271,516,q),
(196,516,o),
(92,445,o),
(40,325,o),
(40,251,q),
(40,176,o),
(92,55,o),
(196,-16,o),
(271,-16,q)
);
},
{
closed = 1;
nodes = (
(484,20,l),
(542,0,l),
(583,0,o),
(625,0,o),
(667,0,q),
(684,0,o),
(700,0,q),
(700,50,l),
(652,70,l),
(621,70,o),
(591,70,o),
(559,70,q),
(534,70,o),
(510,70,o),
(484,70,q)
);
},
{
closed = 1;
nodes = (
(411,620,l),
(429,620,o),
(452,643,o),
(452,661,q),
(452,678,o),
(429,700,o),
(411,700,q),
(0,700,l),
(0,620,l)
);
}
);
width = 602;
}
);
note = adieresis.medi.104;
},
{
glyphname = adieresis.medi.105;
layers = (
{
layerId = m01;
shapes = (
{
closed = 1;
nodes = (
(662,620,l),
(672,661,l),
(662,700,l),
(0,700,l),
(0,620,l)
);
},
{
closed = 1;
nodes = (
(542,0,l),
(542,500,l),
(452,500,l),
(452,0,l)
);
},
{
closed = 1;
nodes = (
(381,-16,o),
(482,131,o),
(482,251,q),
(452,251,l),
(452,158,o),
(375,54,o),
(301,54,qs),
(227,54,o),
(150,158,o),
(150,251,qs),
(150,342,o),
(227,446,o),
(301,446,qs),
(375,446,o),
(452,342,o),
(452,251,q),
(482,251,l),
(482,369,o),
(381,516,o),
(271,516,qs),
(196,516,o),
(92,445,o),
(40,325,o),
(40,251,qs),
(40,176,o),
(92,55,o),
(196,-16,o),
(271,-16,qs)
);
}
);
width = 602;
},
{
layerId = "AA4DCE21-7FE4-4F03-915F-CE2C7C2CC948";
shapes = (
{
closed = 1;
nodes = (
(662,620,l),
(672,661,l),
(662,700,l),
(0,700,l),
(0,620,l)
);
},
{
closed = 1;
nodes = (
(542,0,l),
(542,500,l),
(452,500,l),
(452,0,l)
);
},
{
closed = 1;
nodes = (
(381,-16,o),
(482,131,o),
(482,251,q),
(452,251,l),
(452,158,o),
(375,54,o),
(301,54,q),
(227,54,o),
(150,158,o),
(150,251,q),
(150,342,o),
(227,446,o),
(301,446,q),
(375,446,o),
(452,342,o),
(452,251,q),
(482,251,l),
(482,369,o),
(381,516,o),
(271,516,q),
(196,516,o),
(92,445,o),
(40,325,o),
(40,251,q),
(40,176,o),
(92,55,o),
(196,-16,o),
(271,-16,q)
);
}
);
width = 602;
}
);
note = adieresis.medi.105;
},
{
glyphname = adieresis.medi.106;
layers = (
{
layerId = m01;
shapes = (
{
closed = 1;
nodes = (
(602,620,l),
(612,661,l),
(602,700,l),
(0,700,l),
(0,620,l)
);
},
{
closed = 1;
nodes = (
(542,0,l),
(542,500,l),
(452,500,l),
(452,0,l)
);
},
{
closed = 1;
nodes = (
(381,-16,o),
(482,131,o),
(482,251,q),
(452,251,l),
(452,158,o),
(375,54,o),
(301,54,qs),
(227,54,o),
(150,158,o),
(150,251,qs),
(150,342,o),
(227,446,o),
(301,446,qs),
(375,446,o),
(452,342,o),
(452,251,q),
(482,251,l),
(482,369,o),
(381,516,o),
(271,516,qs),
(196,516,o),
(92,445,o),
(40,325,o),
(40,251,qs),
(40,176,o),
(92,55,o),
(196,-16,o),
(271,-16,qs)
);
}
);
width = 602;
},
{
layerId = "AA4DCE21-7FE4-4F03-915F-CE2C7C2CC948";
shapes = (
{
closed = 1;
nodes = (
(602,620,l),
(612,661,l),
(602,700,l),
(0,700,l),
(0,620,l)
);
},
{
closed = 1;
nodes = (
(542,0,l),
(542,500,l),
(452,500,l),
(452,0,l)
);
},
{
closed = 1;
nodes = (
(381,-16,o),
(482,131,o),
(482,251,q),
(452,251,l),
(452,158,o),
(375,54,o),
(301,54,q),
(227,54,o),
(150,158,o),
(150,251,q),
(150,342,o),
(227,446,o),
(301,446,q),
(375,446,o),
(452,342,o),
(452,251,q),
(482,251,l),
(482,369,o),
(381,516,o),
(271,516,q),
(196,516,o),
(92,445,o),
(40,325,o),
(40,251,q),
(40,176,o),
(92,55,o),
(196,-16,o),
(271,-16,q)
);
}
);
width = 602;
}
);
note = adieresis.medi.106;
},
{
glyphname = f.medi.104;
layers = (
{
layerId = m01;
shapes = (
{
closed = 1;
nodes = (
(60,0,l),
(150,0,l),
(150,620,ls),
(150,678,o),
(159,725,o),
(200,746,o),
(250,746,q),
(250,816,l),
(162,816,o),
(79,760,o),
(60,682,o),
(60,620,qs)
);
},
{
closed = 1;
nodes = (
(239,430,o),
(345,439,qs),
(383,441,o),
(464,446,o),
(497,446,q),
(507,481,l),
(497,516,l),
(464,516,o),
(383,511,o),
(345,509,qs),
(239,500,o),
(150,500,q),
(140,465,l),
(150,430,l)
);
},
{
closed = 1;
nodes = (
(60,430,l),
(70,465,l),
(60,500,l),
(0,500,l),
(0,430,l)
);
}
);
width = 290;
},
{
layerId = "AA4DCE21-7FE4-4F03-915F-CE2C7C2CC948";
shapes = (
{
closed = 1;
nodes = (
(60,0,l),
(150,0,l),
(150,620,l),
(150,678,o),
(159,725,o),
(200,746,o),
(250,746,q),
(250,816,l),
(162,816,o),
(79,760,o),
(60,682,o),
(60,620,q)
);
},
{
closed = 1;
nodes = (
(256,430,o),
(361,430,q),
(406,430,o),
(451,430,o),
(497,430,q),
(507,465,l),
(497,500,l),
(452,500,o),
(407,500,o),
(361,500,q),
(256,500,o),
(150,500,q),
(140,465,l),
(150,430,l)
);
},
{
closed = 1;
nodes = (
(60,430,l),
(70,465,l),
(60,500,l),
(0,500,l),
(0,430,l)
);
}
);
width = 290;
}
);
note = f.medi.104;
},
{
glyphname = f.medi.105;
layers = (
{
layerId = m01;
shapes = (
{
closed = 1;
nodes = (
(60,0,l),
(150,0,l),
(150,620,ls),
(150,678,o),
(159,725,o),
(200,746,o),
(250,746,q),
(250,816,l),
(162,816,o),
(79,760,o),
(60,682,o),
(60,620,qs)
);
},
{
closed = 1;
nodes = (
(290,430,l),
(300,465,l),
(290,500,l),
(150,500,l),
(140,465,l),
(150,430,l)
);
},
{
closed = 1;
nodes = (
(60,430,l),
(70,465,l),
(60,500,l),
(0,500,l),
(0,430,l)
);
}
);
width = 290;
},
{
layerId = "AA4DCE21-7FE4-4F03-915F-CE2C7C2CC948";
shapes = (
{
closed = 1;
nodes = (
(60,0,l),
(150,0,l),
(150,620,l),
(150,678,o),
(159,725,o),
(200,746,o),
(250,746,q),
(250,816,l),
(162,816,o),
(79,760,o),
(60,682,o),
(60,620,q)
);
},
{
closed = 1;
nodes = (
(290,430,l),
(300,465,l),
(290,500,l),
(150,500,l),
(140,465,l),
(150,430,l)
);
},
{
closed = 1;
nodes = (
(60,430,l),
(70,465,l),
(60,500,l),
(0,500,l),
(0,430,l)
);
}
);
width = 290;
}
);
note = f.medi.105;
},
{
glyphname = i.medi.101;
layers = (
{
layerId = m01;
shapes = (
{
closed = 1;
nodes = (
(150,0,l),
(150,500,l),
(60,500,l),
(60,0,l)
);
},
{
closed = 1;
nodes = (
(270,430,l),
(280,465,l),
(270,500,l),
(150,500,l),
(140,465,l),
(150,430,l)
);
},
{
closed = 1;
nodes = (
(119,620,ls),
(137,620,o),
(160,643,o),
(160,661,qs),
(160,678,o),
(137,700,o),
(119,700,qs),
(0,700,l),
(0,620,l)
);
}
);
width = 210;
},
{
layerId = "AA4DCE21-7FE4-4F03-915F-CE2C7C2CC948";
shapes = (
{
closed = 1;
nodes = (
(150,0,l),
(150,500,l),
(60,500,l),
(60,0,l)
);
},
{
closed = 1;
nodes = (
(270,430,l),
(280,465,l),
(270,500,l),
(150,500,l),
(140,465,l),
(150,430,l)
);
},
{
closed = 1;
nodes = (
(119,620,l),
(137,620,o),
(160,643,o),
(160,661,q),
(160,678,o),
(137,700,o),
(119,700,q),
(0,700,l),
(0,620,l)
);
}
);
width = 210;
}
);
note = i.medi.101;
},
{
glyphname = i.medi.102;
layers = (
{
layerId = m01;
shapes = (
{
closed = 1;
nodes = (
(150,0,l),
(150,500,l),
(60,500,l),
(60,0,l)
);
},
{
closed = 1;
nodes = (
(210,430,o),
(328,438,qs),
(446,446,o),
(506,446,q),
(516,481,l),
(506,516,l),
(473,516,o),
(387,511,o),
(346,509,qs),
(236,500,o),
(150,500,q),
(140,465,l),
(150,430,l)
);
},
{
closed = 1;
nodes = (
(119,620,ls),
(137,620,o),
(160,643,o),
(160,661,qs),
(160,678,o),
(137,700,o),
(119,700,qs),
(0,700,l),
(0,620,l)
);
}
);
width = 210;
},
{
layerId = "AA4DCE21-7FE4-4F03-915F-CE2C7C2CC948";
shapes = (
{
closed = 1;
nodes = (
(150,0,l),
(150,500,l),
(60,500,l),
(60,0,l)
);
},
{
closed = 1;
nodes = (
(239,430,o),
(328,430,q),
(417,430,o),
(506,430,q),
(516,465,l),
(506,500,l),
(453,500,o),
(400,500,o),
(346,500,q),
(248,500,o),
(150,500,q),
(140,465,l),
(150,430,l)
);
},
{
closed = 1;
nodes = (
(119,620,l),
(137,620,o),
(160,643,o),
(160,661,q),
(160,678,o),
(137,700,o),
(119,700,q),
(0,700,l),
(0,620,l)
);
}
);
width = 210;
}
);
note = i.medi.102;
},
{
glyphname = i.medi.103;
layers = (
{
layerId = m01;
shapes = (
{
closed = 1;
nodes = (
(150,0,l),
(150,500,l),
(60,500,l),
(60,0,l)
);
},
{
closed = 1;
nodes = (
(303,420,l),
(285,466,l),
(250,500,l),
(150,500,l),
(140,460,l),
(150,420,l)
);
},
{
closed = 1;
nodes = (
(119,620,ls),
(137,620,o),
(160,643,o),
(160,661,qs),
(160,678,o),
(137,700,o),
(119,700,qs),
(0,700,l),
(0,620,l)
);
}
);
width = 210;
},
{
layerId = "AA4DCE21-7FE4-4F03-915F-CE2C7C2CC948";
shapes = (
{
closed = 1;
nodes = (
(150,0,l),
(150,500,l),
(60,500,l),
(60,0,l)
);
},
{
closed = 1;
nodes = (
(303,420,l),
(285,466,l),
(250,500,l),
(150,500,l),
(140,460,l),
(150,420,l)
);
},
{
closed = 1;
nodes = (
(119,620,l),
(137,620,o),
(160,643,o),
(160,661,q),
(160,678,o),
(137,700,o),
(119,700,q),
(0,700,l),
(0,620,l)
);
}
);
width = 210;
}
);
note = i.medi.103;
},
{
glyphname = i.medi.104;
layers = (
{
layerId = m01;
shapes = (
{
closed = 1;
nodes = (
(150,0,l),
(150,500,l),
(60,500,l),
(60,0,l)
);
},
{
closed = 1;
nodes = (
(92,20,l),
(150,0,l),
(150,54,o),
(204,157,o),
(254,227,qs),
(296,289,o),
(308,310,q),
(308,360,l),
(260,380,l),
(260,350,o),
(223,282,o),
(184,228,qs),
(148,178,o),
(105,107,o),
(92,70,q)
);
},
{
closed = 1;
nodes = (
(119,620,ls),
(137,620,o),
(160,643,o),
(160,661,qs),
(160,678,o),
(137,700,o),
(119,700,qs),
(0,700,l),
(0,620,l)
);
}
);
width = 210;
},
{
layerId = "AA4DCE21-7FE4-4F03-915F-CE2C7C2CC948";
shapes = (
{
closed = 1;
nodes = (
(150,0,l),
(150,500,l),
(60,500,l),
(60,0,l)
);
},
{
closed = 1;
nodes = (
(92,20,l),
(150,0,l),
(191,0,o),
(233,0,o),
(275,0,q),
(292,0,o),
(308,0,q),
(308,50,l),
(260,70,l),
(229,70,o),
(199,70,o),
(167,70,q),
(142,70,o),
(118,70,o),
(92,70,q)
);
},
{
closed = 1;
nodes = (
(119,620,l),
(137,620,o),
(160,643,o),
(160,661,q),
(160,678,o),
(137,700,o),
(119,700,q),
(0,700,l),
(0,620,l)
);
}
);
width = 210;
}
);
note = i.medi.104;
},
{
glyphname = i.medi.105;
layers = (
{
layerId = m01;
shapes = (
{
closed = 1;
nodes = (
(150,0,l),
(150,500,l),
(60,500,l),
(60,0,l)
);
},
{
closed = 1;
nodes = (
(270,620,l),
(280,660,l),
(270,700,l),
(0,700,l),
(0,620,l)
);
}
);
width = 210;
},
{
layerId = "AA4DCE21-7FE4-4F03-915F-CE2C7C2CC948";
shapes = (
{
closed = 1;
nodes = (
(150,0,l),
(150,500,l),
(60,500,l),
(60,0,l)
);
},
{
closed = 1;
nodes = (
(270,620,l),
(280,660,l),
(270,700,l),
(0,700,l),
(0,620,l)
);
}
);
width = 210;
}
);
note = i.medi.105;
},
{
glyphname = i.medi.106;
layers = (
{
layerId = m01;
shapes = (
{
closed = 1;
nodes = (
(150,0,l),
(150,500,l),
(60,500,l),
(60,0,l)
);
},
{
closed = 1;
nodes = (
(210,620,l),
(220,660,l),
(210,700,l),
(0,700,l),
(0,620,l)
);
}
);
width = 210;
},
{
layerId = "AA4DCE21-7FE4-4F03-915F-CE2C7C2CC948";
shapes = (
{
closed = 1;
nodes = (
(150,0,l),
(150,500,l),
(60,500,l),
(60,0,l)
);
},
{
closed = 1;
nodes = (
(210,620,l),
(220,660,l),
(210,700,l),
(0,700,l),
(0,620,l)
);
}
);
width = 210;
}
);
note = i.medi.106;
},
{
glyphname = j.medi.101;
layers = (
{
layerId = m01;
shapes = (
{
closed = 1;
nodes = (
(150,-300,l),
(150,500,l),
(60,500,l),
(60,-300,l)
);
},
{
closed = 1;
nodes = (
(65,-181,l),
(150,-181,l),
(150,-123,o),
(162,-51,o),
(214,0,o),
(270,0,q),
(280,35,l),
(270,70,l),
(92,70,o),
(65,-111,q)
);
},
{
closed = 1;
nodes = (
(119,620,ls),
(137,620,o),
(160,643,o),
(160,661,qs),
(160,678,o),
(137,700,o),
(119,700,qs),
(0,700,l),
(0,620,l)
);
}
);
width = 210;
},
{
layerId = "AA4DCE21-7FE4-4F03-915F-CE2C7C2CC948";
shapes = (
{
closed = 1;
nodes = (
(150,-300,l),
(150,500,l),
(60,500,l),
(60,-300,l)
);
},
{
closed = 1;
nodes = (
(141,-300,l),
(150,-300,l),
(180,-300,o),
(210,-300,o),
(240,-300,o),
(270,-300,q),
(280,-265,l),
(270,-230,l),
(168,-230,o),
(65,-230,q)
);
},
{
closed = 1;
nodes = (
(119,620,l),
(137,620,o),
(160,643,o),
(160,661,q),
(160,678,o),
(137,700,o),
(119,700,q),
(0,700,l),
(0,620,l)
);
}
);
width = 210;
}
);
note = j.medi.101;
},
{
glyphname = j.medi.102;
layers = (
{
layerId = m01;
shapes = (
{
closed = 1;
nodes = (
(150,-300,l),
(150,500,l),
(60,500,l),
(60,-300,l)
);
},
{
closed = 1;
nodes = (
(88,-280,l),
(150,-300,l),
(150,-244,o),
(190,-128,o),
(230,-44,qs),
(265,31,o),
(304,129,o),
(313,181,q),
(313,231,l),
(250,251,l),
(250,182,o),
(205,51,o),
(161,-43,qs),
(131,-106,o),
(97,-189,o),
(88,-230,q)
);
},
{
closed = 1;
nodes = (
(119,620,ls),
(137,620,o),
(160,643,o),
(160,661,qs),
(160,678,o),
(137,700,o),
(119,700,qs),
(0,700,l),
(0,620,l)
);
}
);
width = 210;
},
{
layerId = "AA4DCE21-7FE4-4F03-915F-CE2C7C2CC948";
shapes = (
{
closed = 1;
nodes = (
(150,-300,l),
(150,500,l),
(60,500,l),
(60,-300,l)
);
},
{
closed = 1;
nodes = (
(88,-280,l),
(150,-300,l),
(181,-300,o),
(211,-300,o),
(243,-300,q),
(266,-300,o),
(289,-300,o),
(313,-300,q),
(313,-250,l),
(250,-230,l),
(216,-230,o),
(181,-230,o),
(146,-230,q),
(127,-230,o),
(108,-230,o),
(88,-230,q)
);
},
{
closed = 1;
nodes = (
(119,620,l),
(137,620,o),
(160,643,o),
(160,661,q),
(160,678,o),
(137,700,o),
(119,700,q),
(0,700,l),
(0,620,l)
);
}
);
width = 210;
}
);
note = j.medi.102;
},
{
glyphname = j.medi.103;
layers = (
{
layerId = m01;
shapes = (
{
closed = 1;
nodes = (
(150,-300,l),
(150,500,l),
(60,500,l),
(60,-300,l)
);
},
{
closed = 1;
nodes = (
(85,20,l),
(150,0,l),
(150,83,o),
(203,240,o),
(254,347,qs),
(293,430,o),
(308,470,q),
(308,480,l),
(250,500,l),
(227,439,o),
(186,352,qs),
(142,258,o),
(95,135,o),
(85,70,q)
);
},
{
closed = 1;
nodes = (
(119,620,ls),
(137,620,o),
(160,643,o),
(160,661,qs),
(160,678,o),
(137,700,o),
(119,700,qs),
(0,700,l),
(0,620,l)
);
}
);
width = 210;
},
{
layerId = "AA4DCE21-7FE4-4F03-915F-CE2C7C2CC948";
shapes = (
{
closed = 1;
nodes = (
(150,-300,l),
(150,500,l),
(60,500,l),
(60,-300,l)
);
},
{
closed = 1;
nodes = (
(85,-280,l),
(150,-300,l),
(192,-300,o),
(234,-300,o),
(277,-300,q),
(293,-300,o),
(308,-300,q),
(308,-280,l),
(250,-230,l),
(227,-230,o),
(204,-230,q),
(165,-230,o),
(125,-230,o),
(85,-230,q)
);
},
{
closed = 1;
nodes = (
(119,620,l),
(137,620,o),
(160,643,o),
(160,661,q),
(160,678,o),
(137,700,o),
(119,700,q),
(0,700,l),
(0,620,l)
);
}
);
width = 210;
}
);
note = j.medi.103;
},
{
glyphname = j.medi.104;
layers = (
{
layerId = m01;
shapes = (
{
closed = 1;
nodes = (
(150,-300,l),
(150,500,l),
(60,500,l),
(60,-300,l)
);
},
{
closed = 1;
nodes = (
(92,20,l),
(150,0,l),
(150,54,o),
(204,157,o),
(254,227,qs),
(296,289,o),
(308,310,q),
(308,360,l),
(260,380,l),
(260,350,o),
(223,282,o),
(184,228,qs),
(148,178,o),
(105,107,o),
(92,70,q)
);
},
{
closed = 1;
nodes = (
(119,620,ls),
(137,620,o),
(160,643,o),
(160,661,qs),
(160,678,o),
(137,700,o),
(119,700,qs),
(0,700,l),
(0,620,l)
);
}
);
width = 210;
},
{
layerId = "AA4DCE21-7FE4-4F03-915F-CE2C7C2CC948";
shapes = (
{
closed = 1;
nodes = (
(150,-300,l),
(150,500,l),
(60,500,l),
(60,-300,l)
);
},
{
closed = 1;
nodes = (
(92,-280,l),
(150,-300,l),
(191,-300,o),
(233,-300,o),
(275,-300,q),
(292,-300,o),
(308,-300,q),
(308,-250,l),
(260,-230,l),
(229,-230,o),
(199,-230,o),
(167,-230,q),
(142,-230,o),
(118,-230,o),
(92,-230,q)
);
},
{
closed = 1;
nodes = (
(119,620,l),
(137,620,o),
(160,643,o),
(160,661,q),
(160,678,o),
(137,700,o),
(119,700,q),
(0,700,l),
(0,620,l)
);
}
);
width = 210;
}
);
note = j.medi.104;
},
{
glyphname = j.medi.105;
layers = (
{
layerId = m01;
shapes = (
{
closed = 1;
nodes = (
(150,-300,l),
(150,500,l),
(60,500,l),
(60,-300,l)
);
},
{
closed = 1;
nodes = (
(270,620,l),
(280,660,l),
(270,700,l),
(0,700,l),
(0,620,l)
);
}
);
width = 210;
},
{
layerId = "AA4DCE21-7FE4-4F03-915F-CE2C7C2CC948";
shapes = (
{
closed = 1;
nodes = (
(150,-300,l),
(150,500,l),
(60,500,l),
(60,-300,l)
);
},
{
closed = 1;
nodes = (
(270,620,l),
(280,660,l),
(270,700,l),
(0,700,l),
(0,620,l)
);
}
);
width = 210;
}
);
note = j.medi.105;
},
{
glyphname = j.medi.106;
layers = (
{
layerId = m01;
shapes = (
{
closed = 1;
nodes = (
(150,-300,l),
(150,500,l),
(60,500,l),
(60,-300,l)
);
},
{
closed = 1;
nodes = (
(210,620,l),
(220,660,l),
(210,700,l),
(0,700,l),
(0,620,l)
);
}
);
width = 210;
},
{
layerId = "AA4DCE21-7FE4-4F03-915F-CE2C7C2CC948";
shapes = (
{
closed = 1;
nodes = (
(150,-300,l),
(150,500,l),
(60,500,l),
(60,-300,l)
);
},
{
closed = 1;
nodes = (
(210,620,l),
(220,660,l),
(210,700,l),
(0,700,l),
(0,620,l)
);
}
);
width = 210;
}
);
note = j.medi.106;
},
{
glyphname = odieresis.medi.101;
layers = (
{
layerId = m01;
shapes = (
{
closed = 1;
nodes = (
(217,54,o),
(140,158,o),
(140,251,qs),
(140,342,o),
(217,446,o),
(291,446,qs),
(365,446,o),
(442,342,o),
(442,251,qs),
(442,158,o),
(365,54,o),
(291,54,qs)
);
},
{
closed = 1;
nodes = (
(367,-16,o),
(481,56,o),
(542,177,o),
(542,251,qs),
(542,324,o),
(481,445,o),
(367,516,o),
(291,516,qs),
(215,516,o),
(101,445,o),
(40,324,o),
(40,251,qs),
(40,177,o),
(101,56,o),
(215,-16,o),
(291,-16,qs)
);
},
{
closed = 1;
nodes = (
(291,446,l),
(403,446,o),
(514,446,qs),
(578,446,o),
(642,446,q),
(652,481,l),
(642,516,l),
(575,516,o),
(507,516,qs),
(399,516,o),
(291,516,q)
);
},
{
closed = 1;
nodes = (
(382,620,ls),
(400,620,o),
(423,643,o),
(423,661,qs),
(423,678,o),
(400,700,o),
(382,700,qs),
(0,700,l),
(0,620,l)
);
}
);
width = 582;
},
{
layerId = "AA4DCE21-7FE4-4F03-915F-CE2C7C2CC948";
shapes = (
{
closed = 1;
nodes = (
(217,54,o),
(140,158,o),
(140,251,q),
(140,342,o),
(217,446,o),
(291,446,q),
(365,446,o),
(442,342,o),
(442,251,q),
(442,158,o),
(365,54,o),
(291,54,q)
);
},
{
closed = 1;
nodes = (
(367,-16,o),
(481,56,o),
(542,177,o),
(542,251,q),
(542,324,o),
(481,445,o),
(367,516,o),
(291,516,q),
(215,516,o),
(101,445,o),
(40,324,o),
(40,251,q),
(40,177,o),
(101,56,o),
(215,-16,o),
(291,-16,q)
);
},
{
closed = 1;
nodes = (
(291,446,l),
(390,446,o),
(514,436,q),
(610,430,o),
(642,430,q),
(652,465,l),
(642,500,l),
(623,500,o),
(507,506,q),
(359,516,o),
(291,516,q)
);
},
{
closed = 1;
nodes = (
(382,620,l),
(400,620,o),
(423,643,o),
(423,661,q),
(423,678,o),
(400,700,o),
(382,700,q),
(0,700,l),
(0,620,l)
);
}
);
width = 582;
},
{
associatedMasterId = m01;
layerId = "D31E5E84-B88E-4D5D-BFEA-088F0B3C5DC4";
name = "{0}";
shapes = (
{
closed = 1;
nodes = (
(217,54,o),
(140,158,o),
(140,251,q),
(140,342,o),
(217,446,o),
(291,446,q),
(365,446,o),
(442,342,o),
(442,251,q),
(442,158,o),
(365,54,o),
(291,54,q)
);
},
{
closed = 1;
nodes = (
(367,-16,o),
(481,56,o),
(542,177,o),
(542,251,q),
(542,324,o),
(481,445,o),
(367,516,o),
(291,516,q),
(215,516,o),
(101,445,o),
(40,324,o),
(40,251,q),
(40,177,o),
(101,56,o),
(215,-16,o),
(291,-16,q)
);
},
{
closed = 1;
nodes = (
(291,446,l),
(390,446,o),
(514,436,q),
(610,430,o),
(642,430,q),
(652,465,l),
(642,500,l),
(623,500,o),
(507,506,q),
(359,516,o),
(291,516,q)
);
},
{
closed = 1;
nodes = (
(382,620,l),
(400,620,o),
(423,643,o),
(423,661,q),
(423,678,o),
(400,700,o),
(382,700,q),
(0,700,l),
(0,620,l)
);
}
);
width = 582;
}
);
note = odieresis.medi.101;
},
{
glyphname = odieresis.medi.102;
layers = (
{
layerId = m01;
shapes = (
{
closed = 1;
nodes = (
(217,54,o),
(140,158,o),
(140,251,qs),
(140,342,o),
(217,446,o),
(291,446,qs),
(365,446,o),
(442,342,o),
(442,251,qs),
(442,158,o),
(365,54,o),
(291,54,qs)
);
},
{
closed = 1;
nodes = (
(367,-16,o),
(481,56,o),
(542,177,o),
(542,251,qs),
(542,324,o),
(481,445,o),
(367,516,o),
(291,516,qs),
(215,516,o),
(101,445,o),
(40,324,o),
(40,251,qs),
(40,177,o),
(101,56,o),
(215,-16,o),
(291,-16,qs)
);
},
{
closed = 1;
nodes = (
(634,446,o),
(686,446,qs),
(780,446,o),
(873,446,q),
(873,516,l),
(797,516,o),
(720,516,qs),
(651,516,o),
(582,516,qs),
(513,516,o),
(444,516,qs),
(368,516,o),
(291,516,q),
(291,446,l),
(385,446,o),
(478,446,qs),
(530,446,o),
(582,446,qs)
);
},
{
closed = 1;
nodes = (
(382,620,ls),
(400,620,o),
(423,643,o),
(423,661,qs),
(423,678,o),
(400,700,o),
(382,700,qs),
(0,700,l),
(0,620,l)
);
}
);
width = 582;
},
{
layerId = "AA4DCE21-7FE4-4F03-915F-CE2C7C2CC948";
shapes = (
{
closed = 1;
nodes = (
(217,54,o),
(140,158,o),
(140,251,q),
(140,342,o),
(217,446,o),
(291,446,q),
(365,446,o),
(442,342,o),
(442,251,q),
(442,158,o),
(365,54,o),
(291,54,q)
);
},
{
closed = 1;
nodes = (
(367,-16,o),
(481,56,o),
(542,177,o),
(542,251,q),
(542,324,o),
(481,445,o),
(367,516,o),
(291,516,q),
(215,516,o),
(101,445,o),
(40,324,o),
(40,251,q),
(40,177,o),
(101,56,o),
(215,-16,o),
(291,-16,q)
);
},
{
closed = 1;
nodes = (
(616,430,o),
(686,436,q),
(778,446,o),
(873,446,q),
(873,516,l),
(820,516,o),
(720,508,q),
(624,500,o),
(582,500,q),
(540,500,o),
(444,508,q),
(344,516,o),
(291,516,q),
(291,446,l),
(386,446,o),
(478,436,q),
(548,430,o),
(582,430,q)
);
},
{
closed = 1;
nodes = (
(382,620,l),
(400,620,o),
(423,643,o),
(423,661,q),
(423,678,o),
(400,700,o),
(382,700,q),
(0,700,l),
(0,620,l)
);
}
);
width = 582;
},
{
associatedMasterId = m01;
layerId = "1A6073E4-4CD1-4CBD-9554-824FB36900CF";
name = "{0}";
shapes = (
{
closed = 1;
nodes = (
(217,54,o),
(140,158,o),
(140,251,q),
(140,342,o),
(217,446,o),
(291,446,q),
(365,446,o),
(442,342,o),
(442,251,q),
(442,158,o),
(365,54,o),
(291,54,q)
);
},
{
closed = 1;
nodes = (
(367,-16,o),
(481,56,o),
(542,177,o),
(542,251,q),
(542,324,o),
(481,445,o),
(367,516,o),
(291,516,q),
(215,516,o),
(101,445,o),
(40,324,o),
(40,251,q),
(40,177,o),
(101,56,o),
(215,-16,o),
(291,-16,q)
);
},
{
closed = 1;
nodes = (
(616,430,o),
(686,436,q),
(778,446,o),
(873,446,q),
(873,516,l),
(820,516,o),
(720,508,q),
(624,500,o),
(582,500,q),
(540,500,o),
(444,508,q),
(344,516,o),
(291,516,q),
(291,446,l),
(386,446,o),
(478,436,q),
(548,430,o),
(582,430,q)
);
},
{
closed = 1;
nodes = (
(382,620,l),
(400,620,o),
(423,643,o),
(423,661,q),
(423,678,o),
(400,700,o),
(382,700,q),
(0,700,l),
(0,620,l)
);
}
);
width = 582;
}
);
note = odieresis.medi.102;
},
{
glyphname = odieresis.medi.103;
layers = (
{
layerId = m01;
shapes = (
{
closed = 1;
nodes = (
(217,54,o),
(140,158,o),
(140,251,qs),
(140,342,o),
(217,446,o),
(291,446,qs),
(365,446,o),
(442,342,o),
(442,251,qs),
(442,158,o),
(365,54,o),
(291,54,qs)
);
},
{
closed = 1;
nodes = (
(367,-16,o),
(481,56,o),
(542,177,o),
(542,251,qs),
(542,324,o),
(481,445,o),
(367,516,o),
(291,516,qs),
(215,516,o),
(101,445,o),
(40,324,o),
(40,251,qs),
(40,177,o),
(101,56,o),
(215,-16,o),
(291,-16,qs)
);
},
{
closed = 1;
nodes = (
(291,446,l),
(343,446,o),
(433,443,o),
(470,441,qs),
(504,439,o),
(578,436,o),
(622,436,qs),
(675,436,l),
(657,482,l),
(622,516,l),
(544,516,o),
(465,516,qs),
(378,516,o),
(291,516,q)
);
},
{
closed = 1;
nodes = (
(382,620,ls),
(400,620,o),
(423,643,o),
(423,661,qs),
(423,678,o),
(400,700,o),
(382,700,qs),
(0,700,l),
(0,620,l)
);
}
);
width = 582;
},
{
layerId = "AA4DCE21-7FE4-4F03-915F-CE2C7C2CC948";
shapes = (
{
closed = 1;
nodes = (
(217,54,o),
(140,158,o),
(140,251,q),
(140,342,o),
(217,446,o),
(291,446,q),
(365,446,o),
(442,342,o),
(442,251,q),
(442,158,o),
(365,54,o),
(291,54,q)
);
},
{
closed = 1;
nodes = (
(367,-16,o),
(481,56,o),
(542,177,o),
(542,251,q),
(542,324,o),
(481,445,o),
(367,516,o),
(291,516,q),
(215,516,o),
(101,445,o),
(40,324,o),
(40,251,q),
(40,177,o),
(101,56,o),
(215,-16,o),
(291,-16,q)
);
},
{
closed = 1;
nodes = (
(291,446,l),
(345,446,o),
(423,439,o),
(470,432,q),
(516,426,o),
(580,420,o),
(622,420,q),
(675,420,l),
(657,466,l),
(622,500,l),
(579,500,o),
(465,508,q),
(343,516,o),
(291,516,q)
);
},
{
closed = 1;
nodes = (
(382,620,l),
(400,620,o),
(423,643,o),
(423,661,q),
(423,678,o),
(400,700,o),
(382,700,q),
(0,700,l),
(0,620,l)
);
}
);
width = 582;
},
{
associatedMasterId = m01;
layerId = "8189D7F2-2F9E-4C34-98DB-D5AA13073316";
name = "{0}";
shapes = (
{
closed = 1;
nodes = (
(217,54,o),
(140,158,o),
(140,251,q),
(140,342,o),
(217,446,o),
(291,446,q),
(365,446,o),
(442,342,o),
(442,251,q),
(442,158,o),
(365,54,o),
(291,54,q)
);
},
{
closed = 1;
nodes = (
(367,-16,o),
(481,56,o),
(542,177,o),
(542,251,q),
(542,324,o),
(481,445,o),
(367,516,o),
(291,516,q),
(215,516,o),
(101,445,o),
(40,324,o),
(40,251,q),
(40,177,o),
(101,56,o),
(215,-16,o),
(291,-16,q)
);
},
{
closed = 1;
nodes = (
(291,446,l),
(345,446,o),
(423,439,o),
(470,432,q),
(516,426,o),
(580,420,o),
(622,420,q),
(675,420,l),
(657,466,l),
(622,500,l),
(579,500,o),
(465,508,q),
(343,516,o),
(291,516,q)
);
},
{
closed = 1;
nodes = (
(382,620,l),
(400,620,o),
(423,643,o),
(423,661,q),
(423,678,o),
(400,700,o),
(382,700,q),
(0,700,l),
(0,620,l)
);
}
);
width = 582;
}
);
note = odieresis.medi.103;
},
{
glyphname = odieresis.medi.104;
layers = (
{
layerId = m01;
shapes = (
{
closed = 1;
nodes = (
(217,54,o),
(140,158,o),
(140,251,qs),
(140,342,o),
(217,446,o),
(291,446,qs),
(365,446,o),
(442,342,o),
(442,251,qs),
(442,158,o),
(365,54,o),
(291,54,qs)
);
},
{
closed = 1;
nodes = (
(367,-16,o),
(481,56,o),
(542,177,o),
(542,251,qs),
(542,324,o),
(481,445,o),
(367,516,o),
(291,516,qs),
(215,516,o),
(101,445,o),
(40,324,o),
(40,251,qs),
(40,177,o),
(101,56,o),
(215,-16,o),
(291,-16,qs)
);
},
{
closed = 1;
nodes = (
(291,446,l),
(354,446,o),
(416,446,qs),
(478,446,o),
(540,446,qs),
(603,446,o),
(665,446,qs),
(727,446,o),
(789,446,q),
(799,481,l),
(789,516,l),
(727,516,o),
(665,516,qs),
(603,516,o),
(540,516,qs),
(478,516,o),
(416,516,qs),
(354,516,o),
(291,516,q)
);
},
{
closed = 1;
nodes = (
(382,620,ls),
(400,620,o),
(423,643,o),
(423,661,qs),
(423,678,o),
(400,700,o),
(382,700,qs),
(0,700,l),
(0,620,l)
);
}
);
width = 578;
},
{
layerId = "AA4DCE21-7FE4-4F03-915F-CE2C7C2CC948";
shapes = (
{
closed = 1;
nodes = (
(217,54,o),
(140,158,o),
(140,251,q),
(140,342,o),
(217,446,o),
(291,446,q),
(365,446,o),
(442,342,o),
(442,251,q),
(442,158,o),
(365,54,o),
(291,54,q)
);
},
{
closed = 1;
nodes = (
(367,-16,o),
(481,56,o),
(542,177,o),
(542,251,q),
(542,324,o),
(481,445,o),
(367,516,o),
(291,516,q),
(215,516,o),
(101,445,o),
(40,324,o),
(40,251,q),
(40,177,o),
(101,56,o),
(215,-16,o),
(291,-16,q)
);
},
{
closed = 1;
nodes = (
(291,446,l),
(332,446,o),
(416,438,q),
(498,430,o),
(540,430,q),
(581,430,o),
(665,438,q),
(747,446,o),
(789,446,q),
(799,481,l),
(789,516,l),
(747,516,o),
(665,508,q),
(581,500,o),
(540,500,q),
(498,500,o),
(416,508,q),
(332,516,o),
(291,516,q)
);
},
{
closed = 1;
nodes = (
(382,620,l),
(400,620,o),
(423,643,o),
(423,661,q),
(423,678,o),
(400,700,o),
(382,700,q),
(0,700,l),
(0,620,l)
);
}
);
width = 578;
},
{
associatedMasterId = m01;
layerId = "F245D7C5-B170-4545-A7B7-32CFBB5013BF";
name = "{0}";
shapes = (
{
closed = 1;
nodes = (
(217,54,o),
(140,158,o),
(140,251,q),
(140,342,o),
(217,446,o),
(291,446,q),
(365,446,o),
(442,342,o),
(442,251,q),
(442,158,o),
(365,54,o),
(291,54,q)
);
},
{
closed = 1;
nodes = (
(367,-16,o),
(481,56,o),
(542,177,o),
(542,251,q),
(542,324,o),
(481,445,o),
(367,516,o),
(291,516,q),
(215,516,o),
(101,445,o),
(40,324,o),
(40,251,q),
(40,177,o),
(101,56,o),
(215,-16,o),
(291,-16,q)
);
},
{
closed = 1;
nodes = (
(291,446,l),
(332,446,o),
(416,438,q),
(498,430,o),
(540,430,q),
(581,430,o),
(665,438,q),
(747,446,o),
(789,446,q),
(799,481,l),
(789,516,l),
(747,516,o),
(665,508,q),
(581,500,o),
(540,500,q),
(498,500,o),
(416,508,q),
(332,516,o),
(291,516,q)
);
},
{
closed = 1;
nodes = (
(382,620,l),
(400,620,o),
(423,643,o),
(423,661,q),
(423,678,o),
(400,700,o),
(382,700,q),
(0,700,l),
(0,620,l)
);
}
);
width = 578;
}
);
note = odieresis.medi.104;
},
{
glyphname = odieresis.medi.105;
layers = (
{
layerId = m01;
shapes = (
{
closed = 1;
nodes = (
(217,54,o),
(140,158,o),
(140,251,qs),
(140,342,o),
(217,446,o),
(291,446,qs),
(365,446,o),
(442,342,o),
(442,251,qs),
(442,158,o),
(365,54,o),
(291,54,qs)
);
},
{
closed = 1;
nodes = (
(367,-16,o),
(481,56,o),
(542,177,o),
(542,251,qs),
(542,324,o),
(481,445,o),
(367,516,o),
(291,516,qs),
(215,516,o),
(101,445,o),
(40,324,o),
(40,251,qs),
(40,177,o),
(101,56,o),
(215,-16,o),
(291,-16,qs)
);
},
{
closed = 1;
nodes = (
(642,620,l),
(652,661,l),
(642,700,l),
(0,700,l),
(0,620,l)
);
}
);
width = 582;
},
{
layerId = "AA4DCE21-7FE4-4F03-915F-CE2C7C2CC948";
shapes = (
{
closed = 1;
nodes = (
(217,54,o),
(140,158,o),
(140,251,q),
(140,342,o),
(217,446,o),
(291,446,q),
(365,446,o),
(442,342,o),
(442,251,q),
(442,158,o),
(365,54,o),
(291,54,q)
);
},
{
closed = 1;
nodes = (
(367,-16,o),
(481,56,o),
(542,177,o),
(542,251,q),
(542,324,o),
(481,445,o),
(367,516,o),
(291,516,q),
(215,516,o),
(101,445,o),
(40,324,o),
(40,251,q),
(40,177,o),
(101,56,o),
(215,-16,o),
(291,-16,q)
);
},
{
closed = 1;
nodes = (
(642,620,l),
(652,661,l),
(642,700,l),
(0,700,l),
(0,620,l)
);
}
);
width = 582;
}
);
note = odieresis.medi.105;
},
{
glyphname = odieresis.medi.106;
layers = (
{
layerId = m01;
shapes = (
{
closed = 1;
nodes = (
(217,54,o),
(140,158,o),
(140,251,qs),
(140,342,o),
(217,446,o),
(291,446,qs),
(365,446,o),
(442,342,o),
(442,251,qs),
(442,158,o),
(365,54,o),
(291,54,qs)
);
},
{
closed = 1;
nodes = (
(367,-16,o),
(481,56,o),
(542,177,o),
(542,251,qs),
(542,324,o),
(481,445,o),
(367,516,o),
(291,516,qs),
(215,516,o),
(101,445,o),
(40,324,o),
(40,251,qs),
(40,177,o),
(101,56,o),
(215,-16,o),
(291,-16,qs)
);
},
{
closed = 1;
nodes = (
(582,620,l),
(592,661,l),
(582,700,l),
(0,700,l),
(0,620,l)
);
}
);
width = 582;
},
{
layerId = "AA4DCE21-7FE4-4F03-915F-CE2C7C2CC948";
shapes = (
{
closed = 1;
nodes = (
(217,54,o),
(140,158,o),
(140,251,q),
(140,342,o),
(217,446,o),
(291,446,q),
(365,446,o),
(442,342,o),
(442,251,q),
(442,158,o),
(365,54,o),
(291,54,q)
);
},
{
closed = 1;
nodes = (
(367,-16,o),
(481,56,o),
(542,177,o),
(542,251,q),
(542,324,o),
(481,445,o),
(367,516,o),
(291,516,q),
(215,516,o),
(101,445,o),
(40,324,o),
(40,251,q),
(40,177,o),
(101,56,o),
(215,-16,o),
(291,-16,q)
);
},
{
closed = 1;
nodes = (
(582,620,l),
(592,661,l),
(582,700,l),
(0,700,l),
(0,620,l)
);
}
);
width = 582;
}
);
note = odieresis.medi.106;
},
{
glyphname = adieresis.fina.100;
layers = (
{
layerId = m01;
shapes = (
{
closed = 1;
nodes = (
(411,620,ls),
(429,620,o),
(452,643,o),
(452,661,qs),
(452,678,o),
(429,700,o),
(411,700,qs),
(0,700,l),
(0,620,l)
);
},
{
closed = 1;
nodes = (
(542,0,l),
(542,500,l),
(452,500,l),
(452,0,l)
);
},
{
closed = 1;
nodes = (
(381,-16,o),
(482,131,o),
(482,251,q),
(452,251,l),
(452,158,o),
(375,54,o),
(301,54,qs),
(227,54,o),
(150,158,o),
(150,251,qs),
(150,342,o),
(227,446,o),
(301,446,qs),
(375,446,o),
(452,342,o),
(452,251,q),
(482,251,l),
(482,369,o),
(381,516,o),
(271,516,qs),
(196,516,o),
(92,445,o),
(40,325,o),
(40,251,qs),
(40,176,o),
(92,55,o),
(196,-16,o),
(271,-16,qs)
);
}
);
width = 602;
},
{
layerId = "AA4DCE21-7FE4-4F03-915F-CE2C7C2CC948";
shapes = (
{
closed = 1;
nodes = (
(411,620,l),
(429,620,o),
(452,643,o),
(452,661,q),
(452,678,o),
(429,700,o),
(411,700,q),
(0,700,l),
(0,620,l)
);
},
{
closed = 1;
nodes = (
(542,0,l),
(542,500,l),
(452,500,l),
(452,0,l)
);
},
{
closed = 1;
nodes = (
(381,-16,o),
(482,131,o),
(482,251,q),
(452,251,l),
(452,158,o),
(375,54,o),
(301,54,q),
(227,54,o),
(150,158,o),
(150,251,q),
(150,342,o),
(227,446,o),
(301,446,q),
(375,446,o),
(452,342,o),
(452,251,q),
(482,251,l),
(482,369,o),
(381,516,o),
(271,516,q),
(196,516,o),
(92,445,o),
(40,325,o),
(40,251,q),
(40,176,o),
(92,55,o),
(196,-16,o),
(271,-16,q)
);
}
);
width = 602;
}
);
note = adieresis.fina.100;
},
{
glyphname = i.fina.100;
layers = (
{
layerId = m01;
shapes = (
{
closed = 1;
nodes = (
(150,0,l),
(150,500,l),
(60,500,l),
(60,0,l)
);
},
{
closed = 1;
nodes = (
(119,620,ls),
(137,620,o),
(160,643,o),
(160,661,qs),
(160,678,o),
(137,700,o),
(119,700,qs),
(0,700,l),
(0,620,l)
);
}
);
width = 210;
},
{
layerId = "AA4DCE21-7FE4-4F03-915F-CE2C7C2CC948";
shapes = (
{
closed = 1;
nodes = (
(150,0,l),
(150,500,l),
(60,500,l),
(60,0,l)
);
},
{
closed = 1;
nodes = (
(119,620,l),
(137,620,o),
(160,643,o),
(160,661,q),
(160,678,o),
(137,700,o),
(119,700,q),
(0,700,l),
(0,620,l)
);
}
);
width = 210;
}
);
note = i.fina.100;
},
{
glyphname = j.fina.100;
layers = (
{
layerId = m01;
shapes = (
{
closed = 1;
nodes = (
(150,-300,l),
(150,500,l),
(60,500,l),
(60,-300,l)
);
},
{
closed = 1;
nodes = (
(119,620,ls),
(137,620,o),
(160,643,o),
(160,661,qs),
(160,678,o),
(137,700,o),
(119,700,qs),
(0,700,l),
(0,620,l)
);
}
);
width = 210;
},
{
layerId = "AA4DCE21-7FE4-4F03-915F-CE2C7C2CC948";
shapes = (
{
closed = 1;
nodes = (
(150,-300,l),
(150,500,l),
(60,500,l),
(60,-300,l)
);
},
{
closed = 1;
nodes = (
(119,620,l),
(137,620,o),
(160,643,o),
(160,661,q),
(160,678,o),
(137,700,o),
(119,700,q),
(0,700,l),
(0,620,l)
);
}
);
width = 210;
}
);
note = j.fina.100;
},
{
glyphname = odieresis.fina.100;
layers = (
{
layerId = m01;
shapes = (
{
closed = 1;
nodes = (
(217,54,o),
(140,158,o),
(140,251,qs),
(140,342,o),
(217,446,o),
(291,446,qs),
(365,446,o),
(442,342,o),
(442,251,qs),
(442,158,o),
(365,54,o),
(291,54,qs)
);
},
{
closed = 1;
nodes = (
(367,-16,o),
(481,56,o),
(542,177,o),
(542,251,qs),
(542,324,o),
(481,445,o),
(367,516,o),
(291,516,qs),
(215,516,o),
(101,445,o),
(40,324,o),
(40,251,qs),
(40,177,o),
(101,56,o),
(215,-16,o),
(291,-16,qs)
);
},
{
closed = 1;
nodes = (
(382,620,ls),
(400,620,o),
(423,643,o),
(423,661,qs),
(423,678,o),
(400,700,o),
(382,700,qs),
(0,700,l),
(0,620,l)
);
}
);
width = 582;
},
{
layerId = "AA4DCE21-7FE4-4F03-915F-CE2C7C2CC948";
shapes = (
{
closed = 1;
nodes = (
(217,54,o),
(140,158,o),
(140,251,q),
(140,342,o),
(217,446,o),
(291,446,q),
(365,446,o),
(442,342,o),
(442,251,q),
(442,158,o),
(365,54,o),
(291,54,q)
);
},
{
closed = 1;
nodes = (
(367,-16,o),
(481,56,o),
(542,177,o),
(542,251,q),
(542,324,o),
(481,445,o),
(367,516,o),
(291,516,q),
(215,516,o),
(101,445,o),
(40,324,o),
(40,251,q),
(40,177,o),
(101,56,o),
(215,-16,o),
(291,-16,q)
);
},
{
closed = 1;
nodes = (
(382,620,l),
(400,620,o),
(423,643,o),
(423,661,q),
(423,678,o),
(400,700,o),
(382,700,q),
(0,700,l),
(0,620,l)
);
}
);
width = 582;
}
);
note = odieresis.fina.100;
},
{
glyphname = bowlbase2bowl;
layers = (
{
layerId = m01;
shapes = (
{
closed = 1;
nodes = (
(222,-16,o),
(316,4,o),
(391,91,o),
(391,181,qs),
(391,251,l),
(341,251,l),
(341,160,o),
(298,74,o),
(239,54,o),
(191,54,qs),
(0,54,l),
(30,-16,l),
(161,-16,ls)
);
}
);
width = 391;
},
{
layerId = "AA4DCE21-7FE4-4F03-915F-CE2C7C2CC948";
shapes = (
{
closed = 1;
nodes = (
(219,-16,o),
(276,-16,o),
(334,-16,o),
(391,-16,q),
(391,54,l),
(341,54,l),
(304,54,o),
(266,54,o),
(229,54,o),
(191,54,q),
(0,54,l),
(30,-16,l),
(161,-16,l)
);
}
);
width = 391;
}
);
note = bowlbase2bowl;
},
{
glyphname = bowlbase2point;
layers = (
{
layerId = m01;
shapes = (
{
closed = 1;
nodes = (
(30,-16,l),
(112,-16,o),
(246,51,o),
(295,113,qs),
(342,173,o),
(391,336,o),
(391,430,q),
(374,471,l),
(341,500,l),
(341,362,o),
(259,161,o),
(105,54,o),
(0,54,q)
);
}
);
width = 391;
},
{
layerId = "AA4DCE21-7FE4-4F03-915F-CE2C7C2CC948";
shapes = (
{
closed = 1;
nodes = (
(30,-16,l),
(83,-16,o),
(172,-19,o),
(212,-21,q),
(253,-23,o),
(347,-26,o),
(394,-26,q),
(376,20,l),
(341,54,l),
(256,54,o),
(171,54,o),
(85,54,o),
(0,54,q)
);
}
);
width = 391;
}
);
note = bowlbase2point;
},
{
glyphname = bowlbase2s;
layers = (
{
layerId = m01;
shapes = (
{
closed = 1;
nodes = (
(30,-16,l),
(111,-16,o),
(263,83,o),
(371,234,o),
(392,310,q),
(392,360,l),
(352,380,l),
(352,318,o),
(256,163,o),
(94,54,o),
(0,54,q)
);
}
);
width = 392;
},
{
layerId = "AA4DCE21-7FE4-4F03-915F-CE2C7C2CC948";
shapes = (
{
closed = 1;
nodes = (
(30,-16,l),
(121,-16,o),
(211,-16,o),
(302,-16,o),
(392,-16,q),
(392,34,l),
(352,54,l),
(264,54,o),
(176,54,o),
(88,54,o),
(0,54,q)
);
}
);
width = 392;
}
);
note = bowlbase2s;
},
{
glyphname = bowlbase2stem;
layers = (
{
layerId = m01;
shapes = (
{
closed = 1;
nodes = (
(30,-16,l),
(127,-16,o),
(241,-6,qs),
(327,0,o),
(361,0,q),
(371,35,l),
(361,70,l),
(342,70,o),
(222,64,qs),
(68,54,o),
(0,54,q)
);
}
);
width = 361;
},
{
layerId = "AA4DCE21-7FE4-4F03-915F-CE2C7C2CC948";
shapes = (
{
closed = 1;
nodes = (
(30,-16,l),
(136,-16,o),
(241,-16,q),
(301,-16,o),
(361,-16,q),
(371,19,l),
(361,54,l),
(292,54,o),
(222,54,q),
(111,54,o),
(0,54,q)
);
}
);
width = 361;
}
);
note = bowlbase2stem;
},
{
glyphname = bowltop2bowl;
layers = (
{
layerId = m01;
shapes = (
{
closed = 1;
nodes = (
(343,446,o),
(395,446,qs),
(489,446,o),
(582,446,q),
(582,516,l),
(506,516,o),
(429,516,qs),
(360,516,o),
(291,516,qs),
(222,516,o),
(153,516,qs),
(77,516,o),
(0,516,q),
(0,446,l),
(94,446,o),
(187,446,qs),
(239,446,o),
(291,446,qs)
);
}
);
width = 582;
},
{
layerId = "AA4DCE21-7FE4-4F03-915F-CE2C7C2CC948";
shapes = (
{
closed = 1;
nodes = (
(325,430,o),
(395,436,q),
(487,446,o),
(582,446,q),
(582,516,l),
(529,516,o),
(429,508,q),
(333,500,o),
(291,500,q),
(249,500,o),
(153,508,q),
(53,516,o),
(0,516,q),
(0,446,l),
(95,446,o),
(187,436,q),
(257,430,o),
(291,430,q)
);
}
);
width = 582;
},
{
associatedMasterId = m01;
layerId = "0E6809D2-A2A2-4745-A5E3-5E6B67433387";
name = "{0}";
shapes = (
{
closed = 1;
nodes = (
(325,430,o),
(395,436,q),
(487,446,o),
(582,446,q),
(582,516,l),
(529,516,o),
(429,508,q),
(333,500,o),
(291,500,q),
(249,500,o),
(153,508,q),
(53,516,o),
(0,516,q),
(0,446,l),
(95,446,o),
(187,436,q),
(257,430,o),
(291,430,q)
);
}
);
width = 582;
}
);
note = bowltop2bowl;
},
{
glyphname = bowltop2point;
layers = (
{
layerId = m01;
shapes = (
{
closed = 1;
nodes = (
(0,446,l),
(52,446,o),
(142,443,o),
(179,441,qs),
(213,439,o),
(287,436,o),
(331,436,qs),
(384,436,l),
(366,482,l),
(331,516,l),
(253,516,o),
(174,516,qs),
(87,516,o),
(0,516,q)
);
}
);
width = 374;
},
{
layerId = "AA4DCE21-7FE4-4F03-915F-CE2C7C2CC948";
shapes = (
{
closed = 1;
nodes = (
(0,446,l),
(54,446,o),
(132,439,o),
(179,432,q),
(225,426,o),
(289,420,o),
(331,420,q),
(384,420,l),
(366,466,l),
(331,500,l),
(288,500,o),
(174,508,q),
(52,516,o),
(0,516,q)
);
}
);
width = 374;
},
{
associatedMasterId = m01;
layerId = "D36EA816-245D-4E3A-BE14-6CDAEE646429";
name = "{0}";
shapes = (
{
closed = 1;
nodes = (
(0,446,l),
(54,446,o),
(132,439,o),
(179,432,q),
(225,426,o),
(289,420,o),
(331,420,q),
(384,420,l),
(366,466,l),
(331,500,l),
(288,500,o),
(174,508,q),
(52,516,o),
(0,516,q)
);
}
);
width = 374;
}
);
note = bowltop2point;
},
{
glyphname = bowltop2s;
layers = (
{
layerId = m01;
shapes = (
{
closed = 1;
nodes = (
(0,446,l),
(63,446,o),
(125,446,qs),
(187,446,o),
(249,446,qs),
(312,446,o),
(374,446,qs),
(436,446,o),
(498,446,q),
(508,481,l),
(498,516,l),
(436,516,o),
(374,516,qs),
(312,516,o),
(249,516,qs),
(187,516,o),
(125,516,qs),
(63,516,o),
(0,516,q)
);
}
);
width = 498;
},
{
layerId = "AA4DCE21-7FE4-4F03-915F-CE2C7C2CC948";
shapes = (
{
closed = 1;
nodes = (
(0,446,l),
(41,446,o),
(125,438,q),
(207,430,o),
(249,430,q),
(290,430,o),
(374,438,q),
(456,446,o),
(498,446,q),
(508,481,l),
(498,516,l),
(456,516,o),
(374,508,q),
(290,500,o),
(249,500,q),
(207,500,o),
(125,508,q),
(41,516,o),
(0,516,q)
);
}
);
width = 498;
},
{
associatedMasterId = m01;
layerId = "6D3B7F8E-4E3E-4D57-B094-1F326AFC0FC5";
name = "{0}";
shapes = (
{
closed = 1;
nodes = (
(0,446,l),
(41,446,o),
(125,438,q),
(207,430,o),
(249,430,q),
(290,430,o),
(374,438,q),
(456,446,o),
(498,446,q),
(508,481,l),
(498,516,l),
(456,516,o),
(374,508,q),
(290,500,o),
(249,500,q),
(207,500,o),
(125,508,q),
(41,516,o),
(0,516,q)
);
}
);
width = 498;
}
);
note = bowltop2s;
},
{
glyphname = bowltop2stem;
layers = (
{
layerId = m01;
shapes = (
{
closed = 1;
nodes = (
(0,446,l),
(112,446,o),
(223,446,qs),
(287,446,o),
(351,446,q),
(361,481,l),
(351,516,l),
(284,516,o),
(216,516,qs),
(108,516,o),
(0,516,q)
);
}
);
width = 351;
},
{
layerId = "AA4DCE21-7FE4-4F03-915F-CE2C7C2CC948";
shapes = (
{
closed = 1;
nodes = (
(0,446,l),
(99,446,o),
(223,436,q),
(319,430,o),
(351,430,q),
(361,465,l),
(351,500,l),
(332,500,o),
(216,506,q),
(68,516,o),
(0,516,q)
);
}
);
width = 351;
},
{
associatedMasterId = m01;
layerId = "6EC2EDAF-9D6E-4234-BCE2-09079B6706ED";
name = "{0}";
shapes = (
{
closed = 1;
nodes = (
(0,446,l),
(99,446,o),
(223,436,q),
(319,430,o),
(351,430,q),
(361,465,l),
(351,500,l),
(332,500,o),
(216,506,q),
(68,516,o),
(0,516,q)
);
}
);
width = 351;
}
);
note = bowltop2stem;
},
{
glyphname = cross2bowl;
layers = (
{
layerId = m01;
shapes = (
{
closed = 1;
nodes = (
(0,430,l),
(92,430,o),
(238,438,qs),
(384,446,o),
(476,446,q),
(476,516,l),
(384,516,o),
(238,508,qs),
(92,500,o),
(0,500,q)
);
}
);
width = 476;
},
{
layerId = "AA4DCE21-7FE4-4F03-915F-CE2C7C2CC948";
shapes = (
{
closed = 1;
nodes = (
(0,430,l),
(119,430,o),
(238,430,q),
(357,430,o),
(476,430,q),
(476,500,l),
(357,500,o),
(238,500,q),
(119,500,o),
(0,500,q)
);
}
);
width = 476;
}
);
note = cross2bowl;
},
{
glyphname = cross2cross;
layers = (
{
layerId = m01;
shapes = (
{
closed = 1;
nodes = (
(140,430,l),
(150,465,l),
(140,500,l),
(0,500,l),
(-10,465,l),
(0,430,l)
);
}
);
width = 140;
},
{
layerId = "AA4DCE21-7FE4-4F03-915F-CE2C7C2CC948";
shapes = (
{
closed = 1;
nodes = (
(140,430,l),
(150,465,l),
(140,500,l),
(0,500,l),
(-10,465,l),
(0,430,l)
);
}
);
width = 140;
}
);
note = cross2cross;
},
{
glyphname = cross2point;
layers = (
{
layerId = m01;
shapes = (
{
closed = 1;
nodes = (
(49,430,o),
(109,425,qs),
(137,423,o),
(199,420,o),
(225,420,qs),
(278,420,l),
(260,466,l),
(225,500,l),
(0,500,l),
(0,430,l)
);
}
);
width = 278;
},
{
layerId = "AA4DCE21-7FE4-4F03-915F-CE2C7C2CC948";
shapes = (
{
closed = 1;
nodes = (
(49,430,o),
(109,425,q),
(137,423,o),
(199,420,o),
(225,420,q),
(278,420,l),
(260,466,l),
(225,500,l),
(0,500,l),
(0,430,l)
);
}
);
width = 278;
}
);
note = cross2point;
},
{
glyphname = cross2s;
layers = (
{
layerId = m01;
shapes = (
{
closed = 1;
nodes = (
(89,430,o),
(195,439,qs),
(233,441,o),
(314,446,o),
(347,446,q),
(357,481,l),
(347,516,l),
(314,516,o),
(233,511,o),
(195,509,qs),
(89,500,o),
(0,500,q),
(-10,465,l),
(0,430,l)
);
}
);
width = 347;
},
{
layerId = "AA4DCE21-7FE4-4F03-915F-CE2C7C2CC948";
shapes = (
{
closed = 1;
nodes = (
(106,430,o),
(211,430,q),
(256,430,o),
(301,430,o),
(347,430,q),
(357,465,l),
(347,500,l),
(302,500,o),
(257,500,o),
(211,500,q),
(106,500,o),
(0,500,q),
(-10,465,l),
(0,430,l)
);
}
);
width = 347;
}
);
note = cross2s;
},
{
glyphname = cross2stem;
layers = (
{
layerId = m01;
shapes = (
{
closed = 1;
nodes = (
(245,430,l),
(255,465,l),
(245,500,l),
(0,500,l),
(0,430,l)
);
}
);
width = 245;
},
{
layerId = "AA4DCE21-7FE4-4F03-915F-CE2C7C2CC948";
shapes = (
{
closed = 1;
nodes = (
(245,430,l),
(255,465,l),
(245,500,l),
(0,500,l),
(0,430,l)
);
}
);
width = 245;
}
);
note = cross2stem;
},
{
glyphname = crossEntry;
layers = (
{
layerId = m01;
shapes = (
{
closed = 1;
nodes = (
(60,430,l),
(70,465,l),
(60,500,l),
(0,500,l),
(0,430,l)
);
}
);
width = 60;
},
{
layerId = "AA4DCE21-7FE4-4F03-915F-CE2C7C2CC948";
shapes = (
{
closed = 1;
nodes = (
(60,430,l),
(70,465,l),
(60,500,l),
(0,500,l),
(0,430,l)
);
}
);
width = 60;
}
);
note = crossEntry;
},
{
glyphname = curve2bowl;
layers = (
{
layerId = m01;
shapes = (
{
closed = 1;
nodes = (
(167,-16,o),
(218,51,o),
(230,132,o),
(230,181,qs),
(230,251,l),
(180,251,l),
(180,159,o),
(165,54,o),
(135,54,qs),
(105,54,o),
(90,159,o),
(90,251,q),
(0,251,l),
(0,164,o),
(11,58,o),
(61,-16,o),
(115,-16,qs)
);
}
);
width = 230;
},
{
layerId = "AA4DCE21-7FE4-4F03-915F-CE2C7C2CC948";
shapes = (
{
closed = 1;
nodes = (
(144,-16,o),
(173,-16,o),
(201,-16,o),
(230,-16,q),
(230,54,l),
(180,54,l),
(165,54,o),
(150,54,o),
(135,54,q),
(105,54,o),
(90,159,o),
(90,251,q),
(0,251,l),
(0,164,o),
(11,58,o),
(61,-16,o),
(115,-16,q)
);
}
);
width = 230;
}
);
note = curve2bowl;
},
{
glyphname = curve2point;
layers = (
{
layerId = m01;
shapes = (
{
closed = 1;
nodes = (
(0,20,l),
(65,0,l),
(65,86,o),
(117,247,o),
(166,359,qs),
(202,439,o),
(213,470,q),
(213,480,l),
(155,500,l),
(135,448,o),
(100,368,qs),
(58,270,o),
(11,138,o),
(0,70,q)
);
}
);
width = 213;
},
{
layerId = "AA4DCE21-7FE4-4F03-915F-CE2C7C2CC948";
shapes = (
{
closed = 1;
nodes = (
(0,20,l),
(65,0,l),
(106,0,o),
(146,0,o),
(188,0,q),
(201,0,o),
(213,0,q),
(213,20,l),
(155,70,l),
(138,70,o),
(120,70,q),
(80,70,o),
(41,70,o),
(0,70,q)
);
}
);
width = 213;
}
);
note = curve2point;
},
{
glyphname = curve2s;
layers = (
{
layerId = m01;
shapes = (
{
closed = 1;
nodes = (
(0,20,l),
(58,0,l),
(58,56,o),
(110,162,o),
(158,234,qs),
(194,289,o),
(206,310,q),
(206,360,l),
(158,380,l),
(158,349,o),
(124,284,o),
(85,225,qs),
(54,178,o),
(13,107,o),
(0,70,q)
);
}
);
width = 206;
},
{
layerId = "AA4DCE21-7FE4-4F03-915F-CE2C7C2CC948";
shapes = (
{
closed = 1;
nodes = (
(0,20,l),
(58,0,l),
(98,0,o),
(138,0,o),
(179,0,q),
(193,0,o),
(206,0,q),
(206,50,l),
(158,70,l),
(129,70,o),
(99,70,o),
(69,70,q),
(46,70,o),
(23,70,o),
(0,70,q)
);
}
);
width = 206;
}
);
note = curve2s;
},
{
glyphname = curve2stem;
layers = (
{
layerId = m01;
shapes = (
{
closed = 1;
nodes = (
(200,0,l),
(210,35,l),
(200,70,l),
(194,70,ls),
(146,70,o),
(100,121,o),
(90,193,o),
(90,251,q),
(0,251,l),
(0,165,o),
(16,67,o),
(87,0,o),
(164,0,qs)
);
}
);
width = 200;
},
{
layerId = "AA4DCE21-7FE4-4F03-915F-CE2C7C2CC948";
shapes = (
{
closed = 1;
nodes = (
(200,0,l),
(210,35,l),
(200,70,l),
(194,70,l),
(146,70,o),
(100,121,o),
(90,193,o),
(90,251,q),
(0,251,l),
(0,165,o),
(16,67,o),
(87,0,o),
(164,0,q)
);
}
);
width = 200;
}
);
note = curve2stem;
},
{
glyphname = decender2bowl;
layers = (
{
layerId = m01;
shapes = (
{
closed = 1;
nodes = (
(0,-280,l),
(62,-300,l),
(62,-244,o),
(102,-128,o),
(142,-44,qs),
(177,31,o),
(216,129,o),
(225,181,q),
(225,231,l),
(162,251,l),
(162,182,o),
(117,51,o),
(73,-43,qs),
(43,-106,o),
(9,-189,o),
(0,-230,q)
);
}
);
width = 225;
},
{
layerId = "AA4DCE21-7FE4-4F03-915F-CE2C7C2CC948";
shapes = (
{
closed = 1;
nodes = (
(0,-280,l),
(62,-300,l),
(93,-300,o),
(123,-300,o),
(155,-300,q),
(178,-300,o),
(201,-300,o),
(225,-300,q),
(225,-250,l),
(162,-230,l),
(128,-230,o),
(93,-230,o),
(58,-230,q),
(39,-230,o),
(20,-230,o),
(0,-230,q)
);
}
);
width = 225;
}
);
note = decender2bowl;
},
{
glyphname = decender2stem;
layers = (
{
layerId = m01;
shapes = (
{
closed = 1;
nodes = (
(0,-181,l),
(85,-181,l),
(85,-123,o),
(97,-51,o),
(149,0,o),
(205,0,q),
(215,35,l),
(205,70,l),
(27,70,o),
(0,-111,q)
);
}
);
width = 205;
},
{
layerId = "AA4DCE21-7FE4-4F03-915F-CE2C7C2CC948";
shapes = (
{
closed = 1;
nodes = (
(0,-181,l),
(85,-181,l),
(115,-181,o),
(145,-181,o),
(175,-181,o),
(205,-181,q),
(215,-146,l),
(205,-111,l),
(103,-111,o),
(0,-111,q)
);
}
);
width = 205;
}
);
note = decender2stem;
},
{
glyphname = intiddle;
layers = (
{
layerId = m01;
shapes = (
{
closed = 1;
nodes = (
(119,620,ls),
(137,620,o),
(160,643,o),
(160,661,qs),
(160,678,o),
(137,700,o),
(119,700,qs),
(0,700,l),
(0,620,l)
);
}
);
width = 160;
},
{
layerId = "AA4DCE21-7FE4-4F03-915F-CE2C7C2CC948";
shapes = (
{
closed = 1;
nodes = (
(119,620,l),
(137,620,o),
(160,643,o),
(160,661,q),
(160,678,o),
(137,700,o),
(119,700,q),
(0,700,l),
(0,620,l)
);
}
);
width = 160;
}
);
note = intiddle;
},
{
glyphname = partialBowl2Bowl;
layers = (
{
layerId = m01;
shapes = (
{
closed = 1;
nodes = (
(0,-16,l),
(86,-16,o),
(213,41,o),
(281,132,o),
(281,181,qs),
(281,251,l),
(231,251,l),
(231,150,o),
(124,54,o),
(0,54,q)
);
}
);
width = 281;
},
{
layerId = "AA4DCE21-7FE4-4F03-915F-CE2C7C2CC948";
shapes = (
{
closed = 1;
nodes = (
(0,-16,l),
(70,-16,o),
(141,-16,o),
(211,-16,o),
(281,-16,q),
(281,54,l),
(231,54,l),
(155,54,o),
(79,54,o),
(0,54,q)
);
}
);
width = 281;
}
);
note = partialBowl2Bowl;
},
{
glyphname = partialBowl2Point;
layers = (
{
layerId = m01;
shapes = (
{
closed = 1;
nodes = (
(0,-16,l),
(80,-16,o),
(207,51,o),
(252,113,qs),
(295,173,o),
(341,336,o),
(341,430,q),
(324,471,l),
(291,500,l),
(291,364,o),
(218,162,o),
(86,54,o),
(0,54,q)
);
}
);
width = 341;
},
{
layerId = "AA4DCE21-7FE4-4F03-915F-CE2C7C2CC948";
shapes = (
{
closed = 1;
nodes = (
(0,-16,l),
(52,-16,o),
(135,-19,o),
(171,-21,q),
(207,-23,o),
(293,-26,o),
(341,-26,q),
(324,19,l),
(291,54,l),
(218,54,o),
(146,54,o),
(73,54,o),
(0,54,q)
);
}
);
width = 361;
}
);
note = partialBowl2Point;
},
{
glyphname = partialBowl2Stem;
layers = (
{
layerId = m01;
shapes = (
{
closed = 1;
nodes = (
(0,-16,l),
(60,-16,o),
(158,-8,qs),
(262,0,o),
(331,0,q),
(341,35,l),
(331,70,l),
(244,70,o),
(120,60,qs),
(26,54,o),
(0,54,q)
);
}
);
width = 331;
},
{
layerId = "AA4DCE21-7FE4-4F03-915F-CE2C7C2CC948";
shapes = (
{
closed = 1;
nodes = (
(0,-16,l),
(79,-16,o),
(158,-16,q),
(245,-16,o),
(331,-16,q),
(341,19,l),
(331,54,l),
(226,54,o),
(120,54,q),
(60,54,o),
(0,54,q)
);
}
);
width = 331;
}
);
note = partialBowl2Stem;
},
{
glyphname = partialBowl2s;
layers = (
{
layerId = m01;
shapes = (
{
closed = 1;
nodes = (
(0,-16,l),
(89,-16,o),
(242,82,o),
(344,233,o),
(363,310,q),
(363,360,l),
(322,380,l),
(322,318,o),
(234,163,o),
(89,54,o),
(7,54,q)
);
}
);
width = 363;
},
{
layerId = "AA4DCE21-7FE4-4F03-915F-CE2C7C2CC948";
shapes = (
{
closed = 1;
nodes = (
(0,-16,l),
(91,-16,o),
(182,-16,o),
(272,-16,o),
(363,-16,q),
(363,34,l),
(322,54,l),
(243,54,o),
(165,54,o),
(86,54,o),
(7,54,q)
);
}
);
width = 363;
}
);
note = partialBowl2s;
},
{
glyphname = point2bowl;
layers = (
{
layerId = m01;
shapes = (
{
closed = 1;
nodes = (
(37,430,o),
(167,438,qs),
(297,446,o),
(356,446,q),
(366,481,l),
(356,516,l),
(301,516,o),
(191,508,qs),
(79,500,o),
(25,500,q),
(-7,471,l),
(-22,430,l)
);
}
);
width = 356;
},
{
layerId = "AA4DCE21-7FE4-4F03-915F-CE2C7C2CC948";
shapes = (
{
closed = 1;
nodes = (
(73,430,o),
(167,430,q),
(262,430,o),
(356,430,q),
(366,465,l),
(356,500,l),
(274,500,o),
(191,500,q),
(108,500,o),
(25,500,q),
(-7,471,l),
(-22,430,l)
);
}
);
width = 356;
}
);
note = point2bowl;
},
{
glyphname = point2point;
layers = (
{
layerId = m01;
shapes = (
{
closed = 1;
nodes = (
(21,420,o),
(105,420,qs),
(158,420,l),
(140,466,l),
(105,500,l),
(25,500,l),
(-7,471,l),
(-22,430,l)
);
}
);
width = 148;
},
{
layerId = "AA4DCE21-7FE4-4F03-915F-CE2C7C2CC948";
shapes = (
{
closed = 1;
nodes = (
(21,420,o),
(105,420,q),
(158,420,l),
(140,466,l),
(105,500,l),
(25,500,l),
(-7,471,l),
(-22,430,l)
);
}
);
width = 148;
}
);
note = point2point;
},
{
glyphname = point2s;
layers = (
{
layerId = m01;
shapes = (
{
closed = 1;
nodes = (
(59,430,o),
(147,438,qs),
(235,446,o),
(294,446,q),
(304,481,l),
(294,516,l),
(239,516,o),
(171,508,qs),
(101,500,o),
(47,500,q),
(15,471,l),
(0,430,l)
);
}
);
width = 294;
},
{
layerId = "AA4DCE21-7FE4-4F03-915F-CE2C7C2CC948";
shapes = (
{
closed = 1;
nodes = (
(74,430,o),
(147,430,q),
(221,430,o),
(294,430,q),
(304,465,l),
(294,500,l),
(233,500,o),
(171,500,q),
(109,500,o),
(47,500,q),
(15,471,l),
(0,430,l)
);
}
);
width = 294;
}
);
note = point2s;
},
{
glyphname = point2stem;
layers = (
{
layerId = m01;
shapes = (
{
closed = 1;
nodes = (
(125,430,l),
(135,465,l),
(125,500,l),
(25,500,l),
(-7,471,l),
(-22,430,l)
);
}
);
width = 125;
},
{
layerId = "AA4DCE21-7FE4-4F03-915F-CE2C7C2CC948";
shapes = (
{
closed = 1;
nodes = (
(125,430,l),
(135,465,l),
(125,500,l),
(25,500,l),
(-7,471,l),
(-22,430,l)
);
}
);
width = 125;
}
);
note = point2stem;
},
{
glyphname = stem2bowl;
layers = (
{
layerId = m01;
shapes = (
{
closed = 1;
nodes = (
(193,-16,o),
(240,106,o),
(240,181,qs),
(240,251,l),
(190,251,l),
(190,54,o),
(138,54,qs),
(108,54,o),
(90,163,o),
(90,251,q),
(0,251,l),
(0,166,o),
(13,58,o),
(64,-16,o),
(118,-16,qs)
);
}
);
width = 240;
},
{
layerId = "AA4DCE21-7FE4-4F03-915F-CE2C7C2CC948";
shapes = (
{
closed = 1;
nodes = (
(158,-16,o),
(199,-16,o),
(240,-16,q),
(240,54,l),
(190,54,l),
(164,54,o),
(138,54,q),
(108,54,o),
(90,163,o),
(90,251,q),
(0,251,l),
(0,166,o),
(13,58,o),
(64,-16,o),
(118,-16,q)
);
}
);
width = 240;
}
);
note = stem2bowl;
},
{
glyphname = stem2point;
layers = (
{
layerId = m01;
shapes = (
{
closed = 1;
nodes = (
(0,20,l),
(65,0,l),
(65,83,o),
(118,240,o),
(169,347,qs),
(208,430,o),
(223,470,q),
(223,480,l),
(165,500,l),
(142,439,o),
(101,352,qs),
(57,258,o),
(10,135,o),
(0,70,q)
);
}
);
width = 223;
},
{
layerId = "AA4DCE21-7FE4-4F03-915F-CE2C7C2CC948";
shapes = (
{
closed = 1;
nodes = (
(0,20,l),
(65,0,l),
(107,0,o),
(149,0,o),
(192,0,q),
(208,0,o),
(223,0,q),
(223,20,l),
(165,70,l),
(142,70,o),
(119,70,q),
(80,70,o),
(40,70,o),
(0,70,q)
);
}
);
width = 223;
}
);
note = stem2point;
},
{
glyphname = stem2s;
layers = (
{
layerId = m01;
shapes = (
{
closed = 1;
nodes = (
(0,20,l),
(58,0,l),
(58,54,o),
(112,157,o),
(162,227,qs),
(204,289,o),
(216,310,q),
(216,360,l),
(168,380,l),
(168,350,o),
(131,282,o),
(92,228,qs),
(56,178,o),
(13,107,o),
(0,70,q)
);
}
);
width = 216;
},
{
layerId = "AA4DCE21-7FE4-4F03-915F-CE2C7C2CC948";
shapes = (
{
closed = 1;
nodes = (
(0,20,l),
(58,0,l),
(99,0,o),
(141,0,o),
(183,0,q),
(200,0,o),
(216,0,q),
(216,50,l),
(168,70,l),
(137,70,o),
(107,70,o),
(75,70,q),
(50,70,o),
(26,70,o),
(0,70,q)
);
}
);
width = 216;
}
);
note = stem2s;
},
{
glyphname = stem2stem;
layers = (
{
layerId = m01;
shapes = (
{
closed = 1;
nodes = (
(210,0,l),
(220,35,l),
(210,70,l),
(194,70,ls),
(146,70,o),
(100,121,o),
(90,193,o),
(90,251,q),
(0,251,l),
(0,171,o),
(20,67,o),
(92,0,o),
(164,0,qs)
);
}
